<?xml version="1.0" encoding="UTF-8" standalone="no"?>
<svg
   xmlns:dc="http://purl.org/dc/elements/1.1/"
   xmlns:cc="http://creativecommons.org/ns#"
   xmlns:rdf="http://www.w3.org/1999/02/22-rdf-syntax-ns#"
   xmlns:svg="http://www.w3.org/2000/svg"
   xmlns="http://www.w3.org/2000/svg"
   xmlns:sodipodi="http://sodipodi.sourceforge.net/DTD/sodipodi-0.dtd"
   xmlns:inkscape="http://www.inkscape.org/namespaces/inkscape"
   width="200.35713mm"
   height="170.06496mm"
   viewBox="0 0 200.35713 170.06496"
   version="1.1"
   id="svg8"
   sodipodi:docname="WAM_Illustrations_target_group-website-600.svg"
   inkscape:version="0.92.3 (2405546, 2018-03-11)">
  <sodipodi:namedview
     pagecolor="#ffffff"
     bordercolor="#666666"
     borderopacity="1"
     objecttolerance="10"
     gridtolerance="10"
     guidetolerance="10"
     inkscape:pageopacity="0"
     inkscape:pageshadow="2"
     inkscape:window-width="1920"
     inkscape:window-height="1052"
     id="namedview65"
     showgrid="false"
     inkscape:zoom="0.36716363"
     inkscape:cx="435.99702"
     inkscape:cy="321.3826"
     inkscape:window-x="0"
     inkscape:window-y="0"
     inkscape:window-maximized="1"
     inkscape:current-layer="svg8" />
  <defs
     id="defs2">
    <filter
       style="color-interpolation-filters:sRGB"
       id="filter1002">
      <feFlood
         flood-opacity="0.180392"
         flood-color="rgb(0,46,80)"
         result="flood"
         id="feFlood992" />
      <feComposite
         in="flood"
         in2="SourceGraphic"
         operator="in"
         result="composite1"
         id="feComposite994" />
      <feGaussianBlur
         in="composite1"
         stdDeviation="9.1"
         result="blur"
         id="feGaussianBlur996" />
      <feOffset
         dx="0"
         dy="0"
         result="offset"
         id="feOffset998" />
      <feComposite
         in="SourceGraphic"
         in2="offset"
         operator="over"
         result="composite2"
         id="feComposite1000" />
    </filter>
    <filter
       style="color-interpolation-filters:sRGB"
       id="filter1014">
      <feFlood
         flood-opacity="0.180392"
         flood-color="rgb(0,46,80)"
         result="flood"
         id="feFlood1004" />
      <feComposite
         in="flood"
         in2="SourceGraphic"
         operator="in"
         result="composite1"
         id="feComposite1006" />
      <feGaussianBlur
         in="composite1"
         stdDeviation="9.1"
         result="blur"
         id="feGaussianBlur1008" />
      <feOffset
         dx="0"
         dy="0"
         result="offset"
         id="feOffset1010" />
      <feComposite
         in="SourceGraphic"
         in2="offset"
         operator="over"
         result="composite2"
         id="feComposite1012" />
    </filter>
    <filter
       id="filter1002-2"
       style="color-interpolation-filters:sRGB">
      <feFlood
         id="feFlood992-2"
         result="flood"
         flood-color="rgb(0,46,80)"
         flood-opacity="0.180392" />
      <feComposite
         id="feComposite994-4"
         result="composite1"
         operator="in"
         in2="SourceGraphic"
         in="flood" />
      <feGaussianBlur
         id="feGaussianBlur996-7"
         result="blur"
         stdDeviation="9.1"
         in="composite1" />
      <feOffset
         id="feOffset998-7"
         result="offset"
         dy="0"
         dx="0" />
      <feComposite
         id="feComposite1000-5"
         result="composite2"
         operator="over"
         in2="offset"
         in="SourceGraphic" />
    </filter>
    <filter
       id="filter1014-4"
       style="color-interpolation-filters:sRGB">
      <feFlood
         id="feFlood1004-8"
         result="flood"
         flood-color="rgb(0,46,80)"
         flood-opacity="0.180392" />
      <feComposite
         id="feComposite1006-1"
         result="composite1"
         operator="in"
         in2="SourceGraphic"
         in="flood" />
      <feGaussianBlur
         id="feGaussianBlur1008-2"
         result="blur"
         stdDeviation="9.1"
         in="composite1" />
      <feOffset
         id="feOffset1010-8"
         result="offset"
         dy="0"
         dx="0" />
      <feComposite
         id="feComposite1012-9"
         result="composite2"
         operator="over"
         in2="offset"
         in="SourceGraphic" />
    </filter>
  </defs>
  <metadata
     id="metadata5">
    <rdf:RDF>
      <cc:Work
         rdf:about="">
        <dc:format>image/svg+xml</dc:format>
        <dc:type
           rdf:resource="http://purl.org/dc/dcmitype/StillImage" />
        <dc:title />
      </cc:Work>
    </rdf:RDF>
  </metadata>
  <g
     id="layer1"
     style="display:inline"
     transform="translate(-156.5203,411.74593)" />
  <g
     style="fill:#000000;stroke-width:0.26133338"
     transform="matrix(0.21985752,0,0,0.21985752,63.800801,254.65551)"
     id="g1132">
    <path
       inkscape:connector-curvature="0"
       style="fill:#ffffff"
       d="m 79.043825,-624.41224 a 147.99378,147.99378 0 0 1 -93.819995,137.75 c -2.17,0.87 -4.38,1.68 -6.6,2.43 q -3.72006,1.275 -7.52,2.34 -2.64,0.73507 -5.33,1.38 a 148.92061,148.92061 0 0 1 -81.61,-3.48 c -2.07,-0.69 -4.12,-1.43 -6.15,-2.2 -2.73,-1.05 -5.43,-2.18 -8.08,-3.39 -0.2,-0.08 -0.39,-0.17 -0.58,-0.25994 -1.04,-0.48005 -2.05,-0.96 -3.08,-1.47 h -0.01 q -2.115,-1.02 -4.18994,-2.12 -4.77007,-2.52 -9.33,-5.37 -2.37,-1.47006 -4.67,-3.05 a 147.93882,147.93882 0 0 1 53,-267.52 q 3.915,-0.81 7.91,-1.4 c 1.67,-0.26 3.36,-0.48 5.05,-0.67 1.21,-0.14 2.42,-0.27 3.65,-0.37 h 0.01 q 4.935,-0.45 9.96,-0.56 c 0.46,-0.01 0.92,-0.02 1.39,-0.03 0.26,0 0.52,-0.01 0.78,0 h 0.01 c 0.4,-0.01 0.8,-0.01 1.21,-0.01 1.68,0 3.36,0.03 5.03,0.09 q 5.52,0.18 10.92,0.76 c 2.08,0.22 4.13,0.49 6.18,0.79 0.23,0.04 0.47,0.07 0.7,0.11 0.68,0.11 1.37,0.22 2.05,0.34 1.44,0.23 2.87,0.5 4.3,0.79 1.34,0.27 2.67,0.55 4,0.85 a 144.12746,144.12746 0 0 1 14.54,4.13 148.40967,148.40967 0 0 1 77.939995,61.93 q 0.765,1.215 1.5,2.46 c 0.38,0.62 0.74,1.24 1.1,1.87 q 0.195,0.31494 0.36,0.63 c 0.08,0.12 0.14,0.24 0.21,0.36 0.66,1.15 1.3,2.32 1.92,3.49 a 147.344,147.344 0 0 1 17.24994,69.39994 z"
       id="path1020" />
    <path
       inkscape:connector-curvature="0"
       style="fill:#cbcbcb"
       d="m -68.94049,-475.4075 a 149.81338,149.81338 0 0 1 -47.21057,-7.63525 c -1.96325,-0.65478 -3.98742,-1.37891 -6.18969,-2.21435 -2.77833,-1.06836 -5.51587,-2.2168 -8.14075,-3.41553 -0.17481,-0.0688 -0.38233,-0.166 -0.58985,-0.26416 -0.99536,-0.45947 -1.96862,-0.92139 -2.95837,-1.41016 l -0.14062,-0.0644 c -1.40418,-0.67676 -2.82532,-1.396 -4.22388,-2.13672 -3.18518,-1.68311 -6.34546,-3.502 -9.392,-5.40576 -1.58533,-0.9834 -3.16968,-2.01856 -4.7063,-3.07422 a 148.939,148.939 0 0 1 53.36511,-269.32373 c 2.61817,-0.5415 5.29847,-1.01563 7.96521,-1.40967 1.57959,-0.2456 3.29285,-0.47314 5.08435,-0.67432 1.218,-0.14111 2.43921,-0.272 3.68067,-0.373 3.29529,-0.29932 6.66943,-0.48926 10.02905,-0.56348 l 1.65943,-0.0317 c 0.19006,-0.003 0.38012,-0.004 0.57019,0.002 0.356,-0.0102 0.764,-0.0102 1.18237,-0.0102 1.69189,0 3.39636,0.0303 5.066,0.0903 3.68835,0.12061 7.38733,0.37793 10.99084,0.76514 1.90808,0.20166 3.94239,0.46191 6.2179,0.79492 l 0.96142,0.15234 c 0.60462,0.0972 1.21509,0.19581 1.81775,0.30225 1.29676,0.207 2.67615,0.46045 4.32483,0.79492 1.34632,0.27149 2.68384,0.55274 4.02149,0.85449 a 145.76106,145.76106 0 0 1 14.64294,4.15918 149.83,149.83 0 0 1 78.465455,62.34766 q 0.76885,1.22022 1.51257,2.48047 c 0.37671,0.61377 0.74182,1.24268 1.10693,1.88184 0.11719,0.188 0.24036,0.40283 0.355,0.61914 0.0559,0.0879 0.10535,0.17529 0.15418,0.26318 l 0.0568,0.10059 c 0.62842,1.09521 1.26184,2.24609 1.93958,3.5249 a 149.04437,149.04437 0 0 1 -77.087605,208.54912 c -2.1178,0.84912 -4.356,1.67334 -6.646,2.44677 -2.48,0.8501 -5.02832,1.64307 -7.57019,2.35547 -1.76025,0.49024 -3.5653,0.958 -5.36657,1.39014 a 149.98972,149.98972 0 0 1 -34.94767,4.13183 z m -64.56677,-16.90478 h 0.005 l 0.21985,0.104 c 1.02148,0.50586 2.02344,0.98194 3.05505,1.458 0.18177,0.0859 0.35266,0.16748 0.53272,0.23975 2.63147,1.20019 5.33105,2.333 8.06714,3.38476 2.17248,0.82422 4.17175,1.53955 6.10754,2.18506 a 147.78957,147.78957 0 0 0 81.06055,3.45606 c 1.77771,-0.42627 3.5592,-0.8877 5.29467,-1.3711 2.50391,-0.70166 5.01575,-1.4834 7.46412,-2.32226 2.25927,-0.76367 4.46228,-1.57471 6.552,-2.4126 a 146.16143,146.16143 0 0 0 93.192135,-136.82178 v -0.001 a 146.85209,146.85209 0 0 0 -17.13258,-68.92916 c -0.6676,-1.26026 -1.2904,-2.39209 -1.90441,-3.46143 l -0.0739,-0.13135 c -0.0316,-0.0566 -0.0623,-0.11425 -0.10022,-0.1709 l -0.0544,-0.0918 q -0.14868,-0.28346 -0.32434,-0.56787 c -0.3728,-0.65088 -0.72766,-1.26221 -1.10217,-1.873 -0.49378,-0.83643 -0.98877,-1.64844 -1.49366,-2.44971 a 147.82666,147.82666 0 0 0 -77.417475,-61.51709 143.54627,143.54627 0 0 0 -14.43884,-4.10107 c -1.32031,-0.29834 -2.64282,-0.57666 -3.9751,-0.84473 -1.62207,-0.3291 -2.97546,-0.57763 -4.26025,-0.7832 -0.60913,-0.10742 -1.20972,-0.2041 -1.80457,-0.30029 l -0.95923,-0.15186 c -2.22216,-0.32471 -4.23071,-0.58154 -6.11376,-0.78076 -3.55591,-0.38233 -7.205,-0.63623 -10.84729,-0.75488 -1.64917,-0.0596 -3.32947,-0.0894 -4.99744,-0.0894 -0.40686,10e-4 -0.7937,0 -1.18555,0.009 -0.22851,-0.006 -0.38537,-0.004 -0.54187,-0.002 l -1.64136,0.0322 c -3.31311,0.0728 -6.641,0.25977 -9.8905,0.55615 l -0.10071,0.004 c -1.13745,0.0957 -2.33618,0.22461 -3.535,0.36328 -1.767,0.19873 -3.45178,0.42236 -5.01123,0.665 -2.63672,0.38965 -5.27905,0.85693 -7.86133,1.39111 a 146.93877,146.93877 0 0 0 -52.64282,265.71192 c 1.5177,1.043 3.07568,2.06054 4.63745,3.02929 3.00854,1.87989 6.12646,3.67481 9.27014,5.33545 1.30906,0.69388 2.63707,1.36722 3.95164,2.00394 z"
       id="path1022" />
    <path
       inkscape:connector-curvature="0"
       style="fill:#9f616a"
       d="m 57.690185,-656.549 a 18.17163,18.17163 0 0 1 -27.83783,1.20739 L -9.1947196,-641.211 -23.56925,-662.84545 31.853045,-682.02614 a 18.2701,18.2701 0 0 1 25.83714,25.47711 z"
       id="path1024" />
    <path
       inkscape:connector-curvature="0"
       id="polygon1026"
       d="m 247.806,595.529 -75,23 -19,-26 80.444,-26.59 z"
       style="fill:#cccccc"
       transform="translate(-218.12795,-1247.0639)" />
    <path
       inkscape:connector-curvature="0"
       style="fill:#2f2e41"
       d="m -34.22616,-480.51228 a 148.92071,148.92071 0 0 1 -81.61,-3.48 l 1.8,-17.02 1.67,-15.9 25.05,-38.73 8.03,-12.41 33.09,12.03 3.37,21.25 5.37,33.89 z"
       id="path1028-0" />
    <path
       inkscape:connector-curvature="0"
       style="fill:#2f2e41"
       d="m -14.77618,-486.66224 c -2.17,0.87 -4.38,1.68 -6.6,2.43 q -3.72006,1.275 -7.52,2.34 -2.64,0.73507 -5.33,1.38 a 148.92061,148.92061 0 0 1 -81.61,-3.48 c -2.07,-0.69 -4.12,-1.43 -6.15,-2.2 a 115.18494,115.18494 0 0 1 -0.54,17.75 209.8182,209.8182 0 0 1 -7.54,-21.14 c -0.15,-0.48 -0.29,-0.96 -0.43,-1.43994 -0.7,-2.42 -1.32,-4.73 -1.88,-6.9 -0.64,-2.51 -1.19,-4.84 -1.65,-6.97 -1.83,-8.36 -2.41,-13.53 -2.41,-13.53 l 19.55,-40.6 3.91,0.44995 1.62,0.18 9.8,1.12 14.24,1.63 23.07,2.63 21.42,18.24 19.19,16.35 c 0,0 1.6,5.44 4.11,14.45 1.36001,4.83996 2.97,10.70995 4.75,17.30999 z"
       id="path1030-6" />
    <path
       inkscape:connector-curvature="0"
       id="circle1032"
       d="m -42.16497,-791.32196 a 34.59063,34.59063 0 0 1 -34.59063,34.59063 34.59063,34.59063 0 0 1 -34.59063,-34.59063 34.59063,34.59063 0 0 1 34.59063,-34.59063 34.59063,34.59063 0 0 1 34.59063,34.59063 z"
       style="fill:#9f616a" />
    <path
       inkscape:connector-curvature="0"
       style="fill:#cccccc"
       d="m -52.67724,-718.45277 c 0,0 -8.31354,-25.69768 -27.86482,-25.69768 -4.88782,0 -12.77558,0.4051 -19.188,4.58949 -25.81559,16.84586 -41.52066,45.48033 -42.72388,76.28259 l -6.011,153.88126 c 0,0 33.08668,12.0315 45.11822,7.51972 12.03154,-4.51178 24.063,-34.59064 24.063,-34.59064 0,0 -3.00787,40.60639 9.02364,39.10248 12.03151,-1.50391 57.14973,-4.51184 58.65367,-10.52759 1.50394,-6.01575 -23.02365,-135.36249 -23.02365,-135.36249 z"
       id="path1034" />
    <path
       inkscape:connector-curvature="0"
       style="fill:#2f2e41"
       d="m -93.57158,-781.1808 c 3.10315,-0.18516 6.13318,0.86354 9.21479,1.27266 11.02521,1.46376 22.49477,-6.53667 24.92915,-17.38893 a 13.34245,13.34245 0 0 1 1.275,-4.15438 c 1.69684,-2.7704 5.56127,-3.29857 8.74692,-2.66152 3.18565,0.63705 6.20538,2.128 9.44965,2.29824 5.0092,0.26285 9.81827,-2.821 12.4879,-7.06775 2.66963,-4.24675 3.42545,-9.47228 3.06507,-14.47543 l -2.40137,2.52035 a 12.19712,12.19712 0 0 1 -1.08734,-6.62906 7.69249,7.69249 0 0 0 -7.28634,1.86444 c -2.11744,0.22535 -0.51934,-3.92751 -2.09246,-5.36269 a 3.63926,3.63926 0 0 0 -2.56027,-0.479 c -4.50463,0.0434 -8.14865,-3.402 -11.69839,-6.17564 a 49.71109,49.71109 0 0 0 -20.99555,-9.5769 c -5.08664,-0.99214 -10.49557,-1.15155 -15.3195,0.74258 -3.96165,1.55555 -7.2776,4.3887 -10.3455,7.33868 -7.55234,7.26208 -14.24,15.79477 -17.382,25.79 a 43.41522,43.41522 0 0 0 -0.20792,25.17486 c 1.266,4.273 5.08151,18.90689 10.66729,19.24769 7.01866,0.4282 2.80472,-11.75695 11.54087,-12.2782 z"
       id="path1036" />
    <path
       inkscape:connector-curvature="0"
       id="polygon1038"
       d="m 92.413,746.774 46.749,-172.621 -35.421,51.951 z"
       style="opacity:0.1;isolation:isolate"
       transform="translate(-218.12795,-1247.0639)" />
    <path
       inkscape:connector-curvature="0"
       style="fill:#6c63ff"
       d="m 23.919445,-648.69825 v 0 a 4.62419,4.62419 0 0 1 -1.07851,-6.45 v 0 l 40.28636,-56.46421 a 4.62418,4.62418 0 0 1 6.45,-1.07854 v 0 l -45.65789,63.9928 z"
       id="path1042-2" />
    <path
       inkscape:connector-curvature="0"
       style="fill:#2f2e41"
       d="m 25.573555,-643.05472 -2.331,-1.66311 a 3.7425,3.7425 0 0 1 -0.87291,-5.22023 l 45.8693,-64.28921 a 3.16,3.16 0 0 1 4.40763,-0.73706 v 0 l 2.80521,2.00147 v 0 l -49.87825,69.90813 v 0 z"
       id="path1044-6" />
    <path
       inkscape:connector-curvature="0"
       id="rect1048"
       d="m 602.40509,-356.63553 h 5.28479 v 1.3212 h -5.28479 z"
       style="fill:#d0cde1"
       transform="rotate(-54.49277)" />
    <path
       inkscape:connector-curvature="0"
       style="fill:#9f616a"
       d="m -117.67415,-460.92838 a 18.17162,18.17162 0 0 0 -6.8889,-26.999 l 2.24361,-41.46462 -24.8654,-7.50915 -2.346,58.60057 a 18.2701,18.2701 0 0 0 31.85667,17.3722 z"
       id="path1050" />
    <path
       inkscape:connector-curvature="0"
       style="fill:#cccccc"
       d="m -117.80658,-495.03494 h -35.97265 l -9.89819,-110.80468 0.0339,-0.10059 33.66919,-98.88281 a 26.49019,26.49019 0 1 1 48.2356,21.39844 l -39.61768,71.34667 z"
       id="path1052" />
    <path
       inkscape:connector-curvature="0"
       style="fill:#ffffff"
       d="m 538.1718,-824.50479 a 148.13535,148.13535 0 1 1 -151.39001,-147.96 c 0.46,-0.01 0.92,-0.02 1.39,-0.03 0.66,-0.01 1.33,-0.01 2,-0.01 1.68,0 3.36,0.03 5.03,0.09 q 5.52,0.18 10.92,0.76 c 2.08,0.22 4.13,0.49 6.18,0.79 0.23,0.04 0.47,0.07 0.7,0.11 a 146.19769,146.19769 0 0 1 24.89,6.11 148.07727,148.07727 0 0 1 100.28001,140.14 z"
       id="path1054" />
    <path
       inkscape:connector-curvature="0"
       style="fill:#cbcbcb"
       d="m 390.03403,-675.22986 c -82.17139,0.004 -149.05542,-66.80615 -149.13281,-148.99462 A 149.136,149.136 0 0 1 386.7599,-973.46472 l 1.39014,-0.0303 c 2.35547,-0.0337 4.75244,-0.003 7.08764,0.0806 3.68433,0.12061 7.38331,0.37793 10.991,0.76563 1.90991,0.20166 3.94458,0.46191 6.21826,0.79492 l 0.72632,0.11377 a 148.83466,148.83466 0 0 1 125.99854,147.23535 v -0.001 c 0.078,82.23339 -66.76123,149.19824 -148.99463,149.27587 z m 0.12207,-296.2749 c -0.65991,0 -1.31982,0 -1.96948,0.01 l -1.38257,0.0303 c -79.42334,1.74512 -143.97778,67.79639 -143.90283,147.23828 0.0764,81.08106 66.07007,146.99268 147.13281,146.99658 h 0.14111 c 81.13062,-0.0767 147.07296,-66.14355 146.99656,-147.27392 v -10e-4 A 146.83525,146.83525 0 0 0 412.84946,-969.76648 l -0.719,-0.11279 c -2.22046,-0.32519 -4.229,-0.582 -6.11377,-0.78076 -3.56031,-0.38281 -7.20923,-0.63672 -10.84766,-0.75537 -1.64892,-0.0596 -3.3291,-0.0894 -4.99731,-0.0894 z"
       id="path1056" />
    <path
       inkscape:connector-curvature="0"
       id="ellipse1058"
       d="m 1027.5291,-190.13249 a 0.99090999,2.64239 0 0 1 -0.9909,2.64239 0.99090999,2.64239 0 0 1 -0.9909,-2.64239 0.99090999,2.64239 0 0 1 0.9909,-2.64239 0.99090999,2.64239 0 0 1 0.9909,2.64239 z"
       style="fill:#3f3d56"
       transform="rotate(-57.656)" />
    <path
       inkscape:connector-curvature="0"
       style="fill:#6c63ff"
       d="m 272.60033,-825.11925 v 0 a 4.62418,4.62418 0 0 1 6.3807,-1.43283 v 0 l 58.60127,37.10913 a 4.62418,4.62418 0 0 1 1.43279,6.38071 v 0 l -66.41476,-42.057 z"
       id="path1060" />
    <path
       inkscape:connector-curvature="0"
       style="fill:#2f2e41"
       d="m 267.05684,-823.1563 1.84361,-2.91134 a 3.16,3.16 0 0 1 4.36025,-0.97915 v 0 l 66.72236,42.25188 a 3.74249,3.74249 0 0 1 1.15964,5.1641 l -1.532,2.4192 v 0 l -72.55392,-45.94471 z"
       id="path1062" />
    <path
       inkscape:connector-curvature="0"
       id="rect1064"
       d="m 1029.511,-190.13246 h 1.3212 v 5.28479 h -1.3212 z"
       style="fill:#d0cde1"
       transform="rotate(-57.656)" />
    <path
       inkscape:connector-curvature="0"
       id="rect1066"
       d="m 1029.511,-182.86588 h 1.3212 v 5.28479 h -1.3212 z"
       style="fill:#d0cde1"
       transform="rotate(-57.656)" />
    <path
       inkscape:connector-curvature="0"
       id="circle1068"
       d="m 432.21889,-998.92126 a 41.651871,41.651871 0 0 1 -41.65187,41.65187 41.651871,41.651871 0 0 1 -41.65187,-41.65187 41.651871,41.651871 0 0 1 41.65187,-41.65184 41.651871,41.651871 0 0 1 41.65187,41.65184 z"
       style="fill:#ffb8b8" />
    <path
       inkscape:connector-curvature="0"
       style="fill:#2f2e41"
       d="m 430.23178,-681.98483 a 148.69439,148.69439 0 0 1 -101.75,-7.95 l 3.2,-85.5 0.24,-6.65 0.09,-2.16 0.11,-3.18 0.08,-2.03 c 0,0 0.13,-0.01 0.38,-0.02 0.68005,-0.05 2.25,-0.16 4.5,-0.29 2.61,-0.15 6.12,-0.34 10.21,-0.51 0.97,-0.04 1.97,-0.08 3,-0.13 21.54,-0.8 55.18,-0.97 59.63,5.52 l 0.56,3.82 0.9,6.17 1.84,12.61 c 0,0 20.91998,41.60005 17.01,80.3 z"
       id="path1070" />
    <path
       inkscape:connector-curvature="0"
       style="fill:#cccccc"
       d="m 440.806,-897.62748 -8.20373,75.7799 -15.62452,34.5609 -5.79058,12.81561 -83.81171,-1.0159 8.63513,-58.41421 c -12.19079,-31.49289 16.76231,-44.19162 16.76231,-44.19162 l 30.0331,-61.53468 c 0,0 8,-4 28.8891,-5.00675 19.41939,-0.93591 4.1109,2.00675 4.1109,2.00675 25.39747,-2.5398 25,45 25,45 z"
       id="path1072" />
    <path
       inkscape:connector-curvature="0"
       d="m 415.60227,-817.84758 -15.62452,34.56088 c -5.01849,-9.3869 -8.83825,-20.01828 -8.83825,-26.29654 0,-17.27029 17.27026,-8.1272 17.27026,-8.1272 0,0 -13.96863,-76.44642 -13.96863,-99.30417 0,-15.18264 12.65802,52.19689 21.16114,99.16703 z"
       style="opacity:0.2;isolation:isolate"
       id="path1074" />
    <path
       inkscape:connector-curvature="0"
       style="fill:#2f2e41"
       d="m 438.57065,-1024.2971 a 46.68432,46.68432 0 0 0 -12.25195,-17.2519 9.10839,9.10839 0 0 0 5.12353,-4.3168 c 1.60328,-3.1734 0.75391,-7.153 -1.42578,-9.9933 a 18.1924,18.1924 0 0 0 -7.46313,-5.3706 14.751,14.751 0 0 0 6.79565,1.3073 c 2.83277,-0.2946 5.665,-2.518 5.49683,-5.2764 -0.16016,-2.628 -2.74536,-4.4049 -5.06543,-5.7763 q -2.2577,-1.3345 -4.51538,-2.6689 a 23.51294,23.51294 0 0 0 1.17578,-2.6682 18.50912,18.50912 0 0 0 -4.00366,-19.6878 c 4.92895,5.0177 3.67016,12.7832 -1.19947,19.085 -0.157,0.2031 -0.32568,0.4011 -0.48876,0.6016 q -1.44727,-0.8555 -2.89454,-1.7109 c -2.40649,-1.4224 -4.9082,-2.878 -7.70312,-3.2134 -2.79492,-0.3355 -5.97925,0.771 -7.12036,3.2643 -1.22144,2.6689 0.16748,6.0748 -1.42432,8.5528 -1.39282,2.1683 -4.4331,2.63 -7.0686,2.5273 -2.63526,-0.1027 -5.437,-0.519 -7.78174,0.6467 -3.25952,1.6203 -4.3291,6.0025 -2.8794,9.2705 a 9.85028,9.85028 0 0 0 2.80567,3.5691 c -6.97632,0.9741 -13.84717,3.0456 -20.59912,5.1524 -7.96167,2.4843 -16.07178,5.123 -22.72559,10.1515 -6.654,5.0285 -11.69507,12.9662 -11.061,21.2824 0.63407,8.3162 8.89575,21.41427 17.12939,20.08474 l 1.25342,-3.92434 a 26.47649,26.47649 0 0 1 30.27832,5.38332 c 0.095,-5.23592 8.06445,-6.97542 12.03564,-3.56177 3.97119,3.41369 4.73731,9.18525 5.04517,14.413 0.30786,5.22772 0.59961,10.9198 4.04321,14.865 3.30518,3.7865 8.93531,4.96051 13.833,3.83252 4.898,-1.12805 9.13184,-4.23505 12.63916,-7.835 12.72459,-13.06041 16.82273,-33.81737 10.01658,-50.73387 z"
       id="path1076" />
    <path
       inkscape:connector-curvature="0"
       style="fill:#ffb8b8"
       d="m 305.72003,-780.49049 a 18.1716,18.1716 0 0 0 26.999,-6.88889 l 113.46462,2.2436 7.50916,-24.86539 -130.60057,-2.346 a 18.2701,18.2701 0 0 0 -17.3722,31.85667 z"
       id="path1078" />
    <path
       inkscape:connector-curvature="0"
       style="fill:#cccccc"
       d="m 416.02896,-946.72967 c 0,0 -26.41339,2.0318 -26.41339,24.88954 0,22.85774 23.87366,104.12968 23.87366,104.12968 0,0 -17.27026,-9.14309 -17.27026,8.1272 0,17.27029 28.95312,67.55731 32.00085,34.03262 0,0 43.68365,21.3339 41.144,-18.79412 -2.53965,-40.12802 -29.969,-124.95563 -29.969,-124.95563 0,0 -3.04786,-28.95314 -23.36586,-27.42929 z"
       id="path1080" />
  </g>
  <g
     transform="translate(-154.40363,411.74593)"
     id="g2069" />
  <g
     style="fill:#ffffff;fill-opacity:1;stroke-width:0.12555267"
     transform="matrix(0.54924286,0,0,0.55220262,573.74755,-444.72346)"
     id="g1278">
    <path
       inkscape:connector-curvature="0"
       style="fill:#ffffff;fill-opacity:1;stroke:none;stroke-width:0.48043099px;stroke-linecap:butt;stroke-linejoin:miter;stroke-opacity:1"
       d="m 125.31542,904.05438 h 64.15693 l -12.37516,-33.75063 h -39.4066 z"
       id="path1274" />
    <path
       inkscape:connector-curvature="0"
       id="path1162"
       overflow="visible"
       display="inline"
       visibility="visible"
       marker="none"
       d="m 136.23636,868.44279 c -0.68275,0.0667 -1.30716,0.55207 -1.53977,1.19724 l -13.68681,37.39944 c -0.40132,1.09659 0.54289,2.44937 1.71085,2.45148 h 32.84835 v 10.94607 h -9.29563 c -0.95552,0.0448 -1.78415,0.95457 -1.73937,1.90985 0.0448,0.95528 0.95493,1.78365 1.91045,1.73886 h 21.8989 c 0.96412,0.0141 1.85088,-0.86042 1.85088,-1.82431 0,-0.96398 -0.88676,-1.83802 -1.85088,-1.8244 h -9.12454 v -10.94607 h 32.84835 c 1.16796,0 2.11217,-1.35489 1.71086,-2.45148 l -13.68682,-37.39944 c -0.2548,-0.69576 -0.96975,-1.1961 -1.71085,-1.19724 z m 1.45423,3.64872 h 10.43618 l -1.28314,8.20959 h -12.17556 z m 14.086,0 h 13.05951 l 1.25462,8.20959 h -15.56875 z m 16.70932,0 h 8.61128 l 3.02251,8.20959 h -10.35065 z m -35.12948,11.8584 h 12.94544 l -1.42572,9.12166 h -14.85588 z m 16.59525,0 h 16.70931 l 1.3972,9.12166 h -19.50371 z m 20.35913,0 h 11.12054 l 3.33616,9.12166 h -13.03099 z m -41.65923,12.77038 h 15.68281 l -1.42571,9.12185 h -17.59326 z m 19.33263,0 h 20.64427 l 1.3972,9.12185 h -23.43867 z m 24.29408,0 h 13.8579 l 3.33616,9.12185 H 173.704 Z"
       style="color:#000000;text-indent:0;text-transform:none;direction:ltr;baseline-shift:baseline;display:inline;overflow:visible;visibility:visible;fill:#ffffff;fill-opacity:1;stroke:none;stroke-width:0.12555268;enable-background:accumulate" />
  </g>
</svg>
