<svg width="32" height="32" viewBox="0 0 32 32" fill="none" xmlns="http://www.w3.org/2000/svg">
   <path d="M27.25 6.86128H27.1394V5.57297C27.1394 5.47351 27.0999 5.37813 27.0296 5.30781C26.9593 5.23748 26.8639 5.19797 26.7644 5.19797H23.9865C23.887 5.19797 23.7917 5.23748 23.7213 5.30781C23.651 5.37813 23.6115 5.47351 23.6115 5.57297V6.86128H20.7407V4.08453C20.7407 3.98508 20.7012 3.88969 20.6309 3.81937C20.5605 3.74904 20.4651 3.70953 20.3657 3.70953H11.5754C11.4759 3.70953 11.3805 3.74904 11.3102 3.81937C11.2399 3.88969 11.2004 3.98508 11.2004 4.08453V6.86128H8.3885V5.57297C8.3885 5.47351 8.34899 5.37813 8.27866 5.30781C8.20834 5.23748 8.11296 5.19797 8.0135 5.19797H5.23556C5.13611 5.19797 5.04072 5.23748 4.9704 5.30781C4.90007 5.37813 4.86056 5.47351 4.86056 5.57297V6.86128H4.75C4.31917 6.86176 3.90612 7.03312 3.60148 7.33776C3.29684 7.64241 3.12548 8.05545 3.125 8.48628V12.675C3.12515 12.9439 3.19203 13.2086 3.31966 13.4453C3.44728 13.682 3.63166 13.8833 3.85625 14.0312V26.7355C3.85673 27.1478 4.02071 27.543 4.31221 27.8345C4.60372 28.126 4.99895 28.2899 5.41119 28.2904H26.5893C27.0015 28.2898 27.3966 28.1258 27.688 27.8343C27.9794 27.5428 28.1433 27.1477 28.1437 26.7355V14.0312C28.3683 13.8833 28.5527 13.682 28.6803 13.4453C28.808 13.2086 28.8749 12.9439 28.875 12.675V8.48628C28.8745 8.05545 28.7032 7.64241 28.3985 7.33776C28.0939 7.03312 27.6808 6.86176 27.25 6.86128V6.86128ZM24.3615 5.94797H26.3894V6.86128H24.3615V5.94797ZM11.9504 4.45953H19.9907V6.86128H11.9504V4.45953ZM5.61056 5.94797H7.6385V6.86128H5.61056V5.94797ZM3.875 8.48628C3.87525 8.2543 3.96751 8.03188 4.13156 7.86784C4.2956 7.7038 4.51801 7.61153 4.75 7.61128H27.25C27.482 7.61153 27.7044 7.7038 27.8684 7.86784C28.0325 8.03188 28.1248 8.2543 28.125 8.48628V12.675C28.1248 12.907 28.0325 13.1294 27.8684 13.2934C27.7044 13.4575 27.482 13.5497 27.25 13.55H4.75C4.51801 13.5497 4.2956 13.4575 4.13156 13.2934C3.96751 13.1294 3.87525 12.907 3.875 12.675V8.48628ZM27.3937 26.7355C27.3935 26.9489 27.3086 27.1535 27.1577 27.3044C27.0068 27.4553 26.8022 27.5402 26.5888 27.5404H5.41094C5.19758 27.5401 4.99305 27.4552 4.8422 27.3043C4.69135 27.1534 4.6065 26.9489 4.60625 26.7355V14.2932C4.65375 14.2973 4.70169 14.2998 4.75 14.2998H27.25C27.2986 14.2998 27.3465 14.2973 27.3937 14.2932V26.7355Z" fill="#495965"/>
   <path d="M7.15076 10.949H8.19163V12.049C8.19163 12.1485 8.23114 12.2439 8.30147 12.3142C8.37179 12.3845 8.46718 12.424 8.56663 12.424C8.66609 12.424 8.76147 12.3845 8.8318 12.3142C8.90212 12.2439 8.94163 12.1485 8.94163 12.049V10.949H10.1595C10.259 10.949 10.3543 10.9095 10.4247 10.8392C10.495 10.7689 10.5345 10.6735 10.5345 10.574C10.5345 10.4746 10.495 10.3792 10.4247 10.3089C10.3543 10.2385 10.259 10.199 10.1595 10.199H8.94163V9.04016C8.94163 8.9407 8.90212 8.84532 8.8318 8.775C8.76147 8.70467 8.66609 8.66516 8.56663 8.66516C8.46718 8.66516 8.37179 8.70467 8.30147 8.775C8.23114 8.84532 8.19163 8.9407 8.19163 9.04016V10.199H7.15076C7.0513 10.199 6.95592 10.2385 6.88559 10.3089C6.81527 10.3792 6.77576 10.4746 6.77576 10.574C6.77576 10.6735 6.81527 10.7689 6.88559 10.8392C6.95592 10.9095 7.0513 10.949 7.15076 10.949Z" fill="#495965"/>
   <path d="M21.0146 10.949H24.0235C24.1229 10.949 24.2183 10.9095 24.2886 10.8392C24.359 10.7689 24.3985 10.6735 24.3985 10.574C24.3985 10.4746 24.359 10.3792 24.2886 10.3089C24.2183 10.2385 24.1229 10.199 24.0235 10.199H21.0146C20.9152 10.199 20.8198 10.2385 20.7495 10.3089C20.6792 10.3792 20.6396 10.4746 20.6396 10.574C20.6396 10.6735 20.6792 10.7689 20.7495 10.8392C20.8198 10.9095 20.9152 10.949 21.0146 10.949Z" fill="#495965"/>
</svg>
