<svg width="32" height="32" viewBox="0 0 32 32" fill="none" xmlns="http://www.w3.org/2000/svg">
  <path d="M16.1844 10.3469C16.0614 10.3162 15.9385 10.3162 15.8155 10.3469C13.5715 11.0847 12.0038 13.4516 12.0038 16.1566C12.0038 18.6772 13.3871 20.9212 15.3852 21.8126V23.2266C15.3852 23.5648 15.6618 23.8414 15.9999 23.8414C16.3381 23.8414 16.6147 23.5648 16.6147 23.2266V21.8126C18.6128 20.9519 19.996 18.6772 19.996 16.1566C19.996 13.4516 18.4283 11.0847 16.1844 10.3469ZM16.6147 20.4294V15.2344C16.6147 14.8963 16.3381 14.6197 15.9999 14.6197C15.6618 14.6197 15.3852 14.8963 15.3852 15.2344V20.4294C14.0941 19.5994 13.2334 17.9702 13.2334 16.1566C13.2334 14.0664 14.3708 12.222 15.9999 11.5765C17.6291 12.222 18.7665 14.0664 18.7665 16.1566C18.7665 17.9702 17.9058 19.5994 16.6147 20.4294ZM26.1439 21.3823H24.9143V12.7753H26.1439C26.482 12.7753 26.7587 12.4987 26.7587 12.1605C26.7587 11.8224 26.482 11.5457 26.1439 11.5457H24.9143V10.931C24.9143 8.90217 23.2544 7.24225 21.2256 7.24225H19.6886V3.55354H20.9182C21.2563 3.55354 21.533 3.27689 21.533 2.93876C21.533 2.60063 21.2563 2.32397 20.9182 2.32397H19.0739H12.926H11.0817C10.7435 2.32397 10.4669 2.60063 10.4669 2.93876C10.4669 3.27689 10.7435 3.55354 11.0817 3.55354H12.3112V7.24225H10.7743C8.74548 7.24225 7.08556 8.90217 7.08556 10.931V11.5457H5.856C5.51786 11.5457 5.24121 11.8224 5.24121 12.1605C5.24121 12.4987 5.51786 12.7753 5.856 12.7753H7.08556V21.3823H5.856C5.51786 21.3823 5.24121 21.6589 5.24121 21.9971C5.24121 22.3352 5.51786 22.6119 5.856 22.6119H7.08556V23.2266C7.08556 25.0403 8.40735 26.5772 10.1595 26.8539V28.1449C10.1595 29.1593 10.9894 29.9893 12.0038 29.9893H19.996C21.0104 29.9893 21.8404 29.1593 21.8404 28.1449V26.8539C23.5925 26.5465 24.9143 25.0403 24.9143 23.2266V22.6119H26.1439C26.482 22.6119 26.7587 22.3352 26.7587 21.9971C26.7587 21.6589 26.482 21.3823 26.1439 21.3823ZM13.5408 3.55354H18.4591V7.24225H16.6147V6.01268C16.6147 5.67455 16.3381 5.3979 15.9999 5.3979C15.6618 5.3979 15.3852 5.67455 15.3852 6.01268V7.24225H13.5408V3.55354ZM20.6108 28.1449C20.6108 28.4831 20.3342 28.7597 19.996 28.7597H12.0038C11.6657 28.7597 11.3891 28.4831 11.3891 28.1449V26.9154H20.6108V28.1449ZM23.6847 23.2266C23.6847 24.5792 22.5781 25.6858 21.2256 25.6858H10.7743C9.42175 25.6858 8.31513 24.5792 8.31513 23.2266V22.6119H10.1595C10.4976 22.6119 10.7743 22.3352 10.7743 21.9971C10.7743 21.6589 10.4976 21.3823 10.1595 21.3823H8.31513V12.7753H10.1595C10.4976 12.7753 10.7743 12.4987 10.7743 12.1605C10.7743 11.8224 10.4976 11.5457 10.1595 11.5457H8.31513V10.931C8.31513 9.57843 9.42175 8.47182 10.7743 8.47182H12.926H19.0739H21.2256C22.5781 8.47182 23.6847 9.57843 23.6847 10.931V11.5457H21.8404C21.5023 11.5457 21.2256 11.8224 21.2256 12.1605C21.2256 12.4987 21.5023 12.7753 21.8404 12.7753H23.6847V21.3823H21.8404C21.5023 21.3823 21.2256 21.6589 21.2256 21.9971C21.2256 22.3352 21.5023 22.6119 21.8404 22.6119H23.6847V23.2266Z" fill="#495965"/>
</svg>