<?xml version="1.0" encoding="UTF-8"?>
<svg width="26.458mm" height="26.458mm" version="1.1" viewBox="0 0 26.458 26.458" xmlns="http://www.w3.org/2000/svg">
 <g transform="matrix(.44097 0 0 .44097 -59.845 293.91)" stroke-linecap="round">
  <path d="m152.46-643.9s-0.76204 0.12901-1.5371 0.65039c-0.77506 0.52139-1.6436 1.495-1.9941 3.0176-0.35764 1.5535 0.26997 2.7807 0.92188 3.5742s1.2648 1.3725 1.6543 2.5703c0.33812 1.0398-0.0182 1.513-0.53321 1.9961-0.51498 0.48305-1.1504 0.73047-1.1504 0.73047a1.05 1.05 0 0 0-0.625 1.3457 1.05 1.05 0 0 0 1.3457 0.625s0.98975-0.34689 1.8672-1.1699c0.87745-0.82304 1.6817-2.3677 1.0938-4.1758-0.53657-1.6502-1.4916-2.5994-2.0293-3.2539-0.53771-0.65453-0.72273-0.79553-0.49805-1.7715 0.2318-1.0069 0.70281-1.466 1.1191-1.7461s0.69922-0.32031 0.69922-0.32031a1.05 1.05 0 0 0 0.86914-1.2031 1.05 1.05 0 0 0-1.2031-0.86914z" color="#000000" style="-inkscape-stroke:none"/>
  <path d="m158.46-643.9s-0.76204 0.12901-1.5371 0.65039c-0.77506 0.52139-1.6436 1.495-1.9941 3.0176-0.35764 1.5535 0.26997 2.7807 0.92188 3.5742s1.2648 1.3725 1.6543 2.5703c0.33812 1.0398-0.0182 1.513-0.53321 1.9961-0.51498 0.48305-1.1504 0.73047-1.1504 0.73047a1.05 1.05 0 0 0-0.625 1.3457 1.05 1.05 0 0 0 1.3457 0.625s0.98975-0.34689 1.8672-1.1699c0.87745-0.82304 1.6817-2.3677 1.0938-4.1758-0.53657-1.6502-1.4916-2.5994-2.0293-3.2539-0.53771-0.65453-0.72273-0.79553-0.49805-1.7715 0.2318-1.0069 0.70281-1.466 1.1191-1.7461s0.69922-0.32031 0.69922-0.32031a1.05 1.05 0 0 0 0.86914-1.2031 1.05 1.05 0 0 0-1.2031-0.86914z" color="#000000" style="-inkscape-stroke:none"/>
  <path d="m164.46-643.9s-0.76204 0.12901-1.5371 0.65039c-0.77506 0.52139-1.6436 1.495-1.9941 3.0176-0.35764 1.5535 0.26997 2.7807 0.92188 3.5742s1.2648 1.3725 1.6543 2.5703c0.33812 1.0398-0.0182 1.513-0.53321 1.9961-0.51498 0.48305-1.1504 0.73047-1.1504 0.73047a1.05 1.05 0 0 0-0.625 1.3457 1.05 1.05 0 0 0 1.3457 0.625s0.98975-0.34689 1.8672-1.1699c0.87745-0.82304 1.6817-2.3677 1.0938-4.1758-0.53657-1.6502-1.4916-2.5994-2.0293-3.2539-0.53771-0.65453-0.72273-0.79553-0.49805-1.7715 0.2318-1.0069 0.70281-1.466 1.1191-1.7461s0.69922-0.32031 0.69922-0.32031a1.05 1.05 0 0 0 0.86914-1.2031 1.05 1.05 0 0 0-1.2031-0.86914z" color="#000000" style="-inkscape-stroke:none"/>
  <path d="m143.21-658.52c-2.69 0-4.8914 2.2002-4.8914 4.8903v34.248c0 2.69 2.2014 4.8903 4.8914 4.8903h45.252c2.6893 0 4.8903-2.2002 4.8903-4.8903v-34.248c0-2.69-2.2008-4.8903-4.8903-4.8903h-45.252zm0 2.4457h45.252c1.3484 0 2.4445 1.0961 2.4445 2.4445v34.248c0 1.3477-1.0961 2.4445-2.4445 2.4445h-45.252c-1.3483 0-2.4457-1.0967-2.4457-2.4445v-34.248c0-1.3483 1.0973-2.4445 2.4457-2.4445zm33.335 10.358c-0.47 0-0.87085 0.32047-0.98086 0.78048l-1.8398 8.2102c-0.07001 0.3 3.8e-4 0.61025 0.20039 0.84024 0.18999 0.24 0.48047 0.37969 0.78047 0.37969h1.6395l-0.78984 7.1004c-0.05001 0.47001 0.2303 0.90937 0.67031 1.0594 0.11001 0.04 0.20992 0.05039 0.31992 0.05039 0.34 0 0.67015-0.17985 0.86017-0.48985l6.5391-10.901c0.18999-0.31002 0.19065-0.69014 0.01055-1.0102-0.17999-0.32-0.51071-0.49923-0.87071-0.49923h-2.1996l0.54961-4.3899c0.04-0.28-0.04909-0.57103-0.23906-0.79102-0.18999-0.21999-0.45999-0.33985-0.75001-0.33985h-3.9zm-23.809 1.8094a1.05 1.05 0 0 0-0.27422 0.0082s-0.76128 0.12902-1.5363 0.65039c-0.77506 0.52139-1.644 1.495-1.9945 3.0176-0.35764 1.5535 0.27036 2.7807 0.92227 3.5742 0.65191 0.7935 1.264 1.3721 1.6535 2.5699 0.33812 1.0398-0.0182 1.5138-0.53321 1.9969-0.51498 0.48305-1.1496 0.73009-1.1496 0.73009a1.05 1.05 0 0 0-0.62579 1.3453 1.05 1.05 0 0 0 1.3465 0.62578s0.98936-0.3477 1.8668-1.1707c0.87745-0.82304 1.6813-2.3673 1.0934-4.1754-0.53657-1.6502-1.4908-2.5998-2.0285-3.2543-0.53771-0.65453-0.72273-0.79475-0.49805-1.7707 0.2318-1.0069 0.70286-1.466 1.1192-1.7461 0.41628-0.2801 0.69844-0.32109 0.69844-0.32109a1.05 1.05 0 0 0 0.86953-1.2024 1.05 1.05 0 0 0-0.9293-0.87774zm6 0a1.05 1.05 0 0 0-0.27422 0.0082s-0.76128 0.12902-1.5363 0.65039c-0.77505 0.52139-1.644 1.495-1.9945 3.0176-0.35764 1.5535 0.27036 2.7807 0.92227 3.5742 0.65191 0.7935 1.264 1.3721 1.6535 2.5699 0.33812 1.0398-0.0182 1.5138-0.53321 1.9969-0.51498 0.48305-1.1496 0.73009-1.1496 0.73009a1.05 1.05 0 0 0-0.62579 1.3453 1.05 1.05 0 0 0 1.3465 0.62578s0.98936-0.3477 1.8668-1.1707c0.87745-0.82304 1.6813-2.3673 1.0934-4.1754-0.53657-1.6502-1.4908-2.5998-2.0285-3.2543-0.53771-0.65453-0.72273-0.79475-0.49805-1.7707 0.2318-1.0069 0.70286-1.466 1.1192-1.7461 0.41628-0.2801 0.69844-0.32109 0.69844-0.32109a1.05 1.05 0 0 0 0.86953-1.2024 1.05 1.05 0 0 0-0.9293-0.87774zm6 0a1.05 1.05 0 0 0-0.27422 0.0082s-0.76128 0.12902-1.5363 0.65039c-0.77505 0.52139-1.644 1.495-1.9945 3.0176-0.35764 1.5535 0.27036 2.7807 0.92227 3.5742 0.65191 0.7935 1.264 1.3721 1.6535 2.5699 0.33812 1.0398-0.0182 1.5138-0.53321 1.9969-0.51498 0.48305-1.1496 0.73009-1.1496 0.73009a1.05 1.05 0 0 0-0.62579 1.3453 1.05 1.05 0 0 0 1.3465 0.62578s0.98936-0.3477 1.8668-1.1707c0.87745-0.82304 1.6813-2.3673 1.0934-4.1754-0.53656-1.6502-1.4908-2.5998-2.0285-3.2543-0.53771-0.65453-0.72273-0.79475-0.49805-1.7707 0.2318-1.0069 0.70286-1.466 1.1192-1.7461s0.69844-0.32109 0.69844-0.32109a1.05 1.05 0 0 0 0.86953-1.2024 1.05 1.05 0 0 0-0.9293-0.87774zm12.599 0.20156h1.9699l-0.54961 4.3899c-0.04 0.27999 0.0491 0.56985 0.23907 0.78984 0.18999 0.22 0.46 0.33985 0.75 0.33985h1.5609l-3.2602 5.4504 0.41016-3.6504c0.03-0.28-0.06079-0.57048-0.25078-0.78047s-0.46001-0.3293-0.75001-0.3293h-1.5094l1.3898-6.2098z"/>
 </g>
</svg>
