<svg width="32" height="32" viewBox="0 0 32 32" fill="none" xmlns="http://www.w3.org/2000/svg">
  <path d="M8.93222 12.0577C8.93222 12.0577 8.52579 12.1265 8.11243 12.4045C7.69906 12.6826 7.23583 13.2019 7.0489 14.014C6.85816 14.8425 7.19288 15.497 7.54057 15.9202C7.88826 16.3434 8.21513 16.6522 8.42287 17.291C8.6032 17.8456 8.41317 18.098 8.13849 18.3556C7.86383 18.6133 7.52494 18.7452 7.52494 18.7452C7.38563 18.7963 7.27229 18.9006 7.20979 19.0351C7.14729 19.1697 7.14075 19.3235 7.1916 19.4629C7.24267 19.6022 7.34694 19.7156 7.4815 19.7781C7.61607 19.8406 7.76993 19.8471 7.90931 19.7963C7.90931 19.7963 8.43719 19.6113 8.90516 19.1723C9.37314 18.7334 9.80208 17.9095 9.48853 16.9452C9.20235 16.0651 8.693 15.5588 8.40623 15.2098C8.11945 14.8607 8.02077 14.7855 8.1406 14.265C8.26423 13.728 8.51543 13.4831 8.73745 13.3337C8.95948 13.1843 9.11037 13.1629 9.11037 13.1629C9.2569 13.1392 9.38803 13.0583 9.47495 12.938C9.56187 12.8177 9.59746 12.6678 9.57392 12.5212C9.55023 12.3747 9.46935 12.2436 9.34903 12.1567C9.22871 12.0697 9.07877 12.0341 8.93222 12.0577Z" fill="#495965"/>
  <path d="M12.1323 12.0577C12.1323 12.0577 11.7259 12.1265 11.3125 12.4045C10.8991 12.6826 10.4359 13.2019 10.249 14.014C10.0582 14.8425 10.393 15.497 10.7406 15.9202C11.0883 16.3434 11.4152 16.6522 11.6229 17.291C11.8033 17.8456 11.6132 18.098 11.3386 18.3556C11.0639 18.6133 10.725 18.7452 10.725 18.7452C10.5857 18.7963 10.4724 18.9006 10.4099 19.0351C10.3474 19.1697 10.3408 19.3235 10.3917 19.4629C10.4427 19.6022 10.547 19.7156 10.6816 19.7781C10.8161 19.8406 10.97 19.8471 11.1094 19.7963C11.1094 19.7963 11.6373 19.6113 12.1052 19.1723C12.5732 18.7334 13.0021 17.9095 12.6886 16.9452C12.4024 16.0651 11.8931 15.5588 11.6063 15.2098C11.3195 14.8607 11.2208 14.7855 11.3407 14.265C11.4643 13.728 11.7155 13.4831 11.9375 13.3337C12.1596 13.1843 12.3104 13.1629 12.3104 13.1629C12.457 13.1392 12.5881 13.0583 12.675 12.938C12.7619 12.8177 12.7975 12.6678 12.774 12.5212C12.7503 12.3747 12.6694 12.2436 12.5491 12.1567C12.4288 12.0697 12.2788 12.0341 12.1323 12.0577Z" fill="#495965"/>
  <path d="M15.3324 12.0577C15.3324 12.0577 14.9259 12.1265 14.5126 12.4045C14.0992 12.6826 13.636 13.2019 13.449 14.014C13.2583 14.8425 13.593 15.497 13.9407 15.9202C14.2884 16.3434 14.6153 16.6522 14.823 17.291C15.0033 17.8456 14.8133 18.098 14.5386 18.3556C14.264 18.6133 13.9251 18.7452 13.9251 18.7452C13.7858 18.7963 13.6724 18.9006 13.6099 19.0351C13.5474 19.1697 13.5409 19.3235 13.5917 19.4629C13.6428 19.6022 13.7471 19.7156 13.8817 19.7781C14.0162 19.8406 14.1701 19.8471 14.3095 19.7963C14.3095 19.7963 14.8373 19.6113 15.3053 19.1723C15.7733 18.7334 16.2022 17.9095 15.8887 16.9452C15.6025 16.0651 15.0931 15.5588 14.8064 15.2098C14.5196 14.8607 14.4209 14.7855 14.5407 14.265C14.6644 13.728 14.9156 13.4831 15.1376 13.3337C15.3596 13.1843 15.5105 13.1629 15.5105 13.1629C15.657 13.1392 15.7882 13.0583 15.8751 12.938C15.962 12.8177 15.9976 12.6678 15.9741 12.5212C15.9504 12.3747 15.8695 12.2436 15.7492 12.1567C15.6289 12.0697 15.4789 12.0341 15.3324 12.0577Z" fill="#495965"/>
  <path d="M3.9989 4.26025C2.56423 4.26025 1.39014 5.43371 1.39014 6.86844V25.1342C1.39014 26.5688 2.56423 27.7424 3.9989 27.7424H28.1335C29.5678 27.7424 30.7417 26.5689 30.7417 25.1342V6.86844C30.7417 5.43377 29.5679 4.26025 28.1335 4.26025H3.9989ZM3.9989 5.56466H28.1335C28.8526 5.56466 29.4372 6.14923 29.4372 6.86838V25.1341C29.4372 25.8529 28.8526 26.4379 28.1335 26.4379H3.9989C3.27981 26.4379 2.69452 25.853 2.69452 25.1341V6.86838C2.69452 6.14928 3.27975 5.56466 3.9989 5.56466ZM21.7777 11.089C21.527 11.089 21.3132 11.2599 21.2546 11.5052L20.2733 15.884C20.236 16.044 20.2735 16.2095 20.3802 16.3322C20.4815 16.4602 20.6365 16.5347 20.7965 16.5347H21.6709L21.2496 20.3216C21.2229 20.5722 21.3725 20.8066 21.6071 20.8866C21.6658 20.9079 21.7191 20.9135 21.7777 20.9135C21.9591 20.9135 22.1352 20.8175 22.2365 20.6522L25.7241 14.8383C25.8254 14.6729 25.8257 14.4702 25.7297 14.2995C25.6337 14.1289 25.4573 14.0332 25.2653 14.0332H24.0922L24.3853 11.6919C24.4066 11.5426 24.3591 11.3874 24.2578 11.2701C24.1565 11.1527 24.0125 11.0888 23.8578 11.0888L21.7777 11.089ZM9.07947 12.054C9.03074 12.049 8.98157 12.0505 8.93322 12.0584C8.93322 12.0584 8.5272 12.1272 8.11385 12.4052C7.70048 12.6833 7.23705 13.2026 7.05012 14.0146C6.85937 14.8432 7.19431 15.4977 7.542 15.9209C7.88969 16.3441 8.21613 16.6527 8.42386 17.2915C8.6042 17.8461 8.41416 18.0989 8.13949 18.3565C7.86483 18.6141 7.52636 18.7459 7.52636 18.7459C7.38703 18.7969 7.27363 18.9011 7.21105 19.0356C7.14848 19.1701 7.14184 19.324 7.19261 19.4634C7.24359 19.6029 7.34788 19.7164 7.48256 19.779C7.61723 19.8416 7.77125 19.8481 7.91074 19.7972C7.91074 19.7972 8.43841 19.6117 8.90638 19.1728C9.37436 18.7338 9.80308 17.9102 9.48953 16.9459C9.20336 16.0658 8.69443 15.5593 8.40765 15.2102C8.12087 14.8612 8.0222 14.7864 8.14203 14.2659C8.26565 13.7288 8.51689 13.484 8.73894 13.3346C8.96096 13.1852 9.11144 13.1633 9.11144 13.1633C9.25793 13.1397 9.38905 13.0589 9.476 12.9387C9.56295 12.8184 9.59862 12.6686 9.57519 12.5221C9.55562 12.4004 9.49643 12.2885 9.40682 12.2039C9.31721 12.1193 9.20209 12.0666 9.07947 12.054ZM12.2795 12.054C12.2308 12.049 12.1816 12.0505 12.1332 12.0584C12.1332 12.0584 11.7272 12.1272 11.3139 12.4052C10.9005 12.6833 10.4371 13.2026 10.2501 14.0146C10.0594 14.8432 10.3943 15.4977 10.742 15.9209C11.0897 16.3441 11.4162 16.6527 11.6239 17.2915C11.8042 17.8461 11.6142 18.0989 11.3395 18.3565C11.0649 18.6141 10.7264 18.7459 10.7264 18.7459C10.5871 18.7969 10.4737 18.9011 10.4111 19.0356C10.3485 19.1701 10.3419 19.324 10.3926 19.4634C10.4436 19.6029 10.5479 19.7164 10.6826 19.779C10.8173 19.8416 10.9713 19.8481 11.1108 19.7972C11.1108 19.7972 11.6384 19.6117 12.1064 19.1728C12.5744 18.7338 13.0031 17.9102 12.6896 16.9459C12.4034 16.0658 11.8945 15.5593 11.6077 15.2102C11.3209 14.8612 11.2222 14.7864 11.3421 14.2659C11.4657 13.7288 11.7169 13.484 11.939 13.3346C12.161 13.1852 12.3115 13.1633 12.3115 13.1633C12.458 13.1397 12.5891 13.0589 12.676 12.9387C12.763 12.8184 12.7986 12.6686 12.7752 12.5221C12.7556 12.4004 12.6965 12.2885 12.6068 12.2039C12.5172 12.1193 12.4021 12.0666 12.2795 12.054ZM15.4795 12.054C15.4308 12.049 15.3816 12.0505 15.3333 12.0584C15.3333 12.0584 14.9272 12.1272 14.5139 12.4052C14.1005 12.6833 13.6371 13.2026 13.4502 14.0146C13.2594 14.8432 13.5944 15.4977 13.942 15.9209C14.2897 16.3441 14.6162 16.6527 14.8239 17.2915C15.0042 17.8461 14.8142 18.0989 14.5395 18.3565C14.2649 18.6141 13.9264 18.7459 13.9264 18.7459C13.7871 18.7969 13.6737 18.9011 13.6111 19.0356C13.5485 19.1701 13.5419 19.324 13.5927 19.4634C13.6436 19.6029 13.7479 19.7164 13.8826 19.779C14.0173 19.8416 14.1713 19.8481 14.3108 19.7972C14.3108 19.7972 14.8385 19.6117 15.3064 19.1728C15.7744 18.7338 16.2031 17.9102 15.8896 16.9459C15.6034 16.0658 15.0945 15.5593 14.8077 15.2102C14.5209 14.8612 14.4222 14.7864 14.5421 14.2659C14.6657 13.7288 14.9169 13.484 15.139 13.3346C15.361 13.1852 15.5115 13.1633 15.5115 13.1633C15.658 13.1397 15.7891 13.0589 15.876 12.9387C15.963 12.8184 15.9987 12.6686 15.9752 12.5221C15.9557 12.4004 15.8965 12.2885 15.8069 12.2039C15.7173 12.1193 15.6021 12.0666 15.4795 12.054ZM22.199 12.1615H23.2497L22.9565 14.5028C22.9352 14.6521 22.9827 14.8067 23.084 14.924C23.1854 15.0414 23.3294 15.1053 23.484 15.1053H24.3165L22.5777 18.0122L22.7965 16.0653C22.8125 15.916 22.7641 15.761 22.6627 15.649C22.5614 15.537 22.4174 15.4734 22.2627 15.4734H21.4577L22.199 12.1615Z" fill="#495965"/>
</svg>