<svg width="32" height="32" viewBox="0 0 32 32" fill="none" xmlns="http://www.w3.org/2000/svg">
  <path d="M28.006 5.10701C28.7251 5.10701 29.3099 5.69175 29.3099 6.41087V24.6754C29.3099 25.3942 28.7251 25.9792 28.006 25.9792H3.8712C3.15208 25.9792 2.56733 25.3942 2.56733 24.6754V6.41087C2.56733 5.69175 3.15208 5.10701 3.8712 5.10701H28.006ZM28.006 3.80249H3.8712C2.43655 3.80249 1.26282 4.97623 1.26282 6.41087V24.6754C1.26282 26.11 2.43655 27.2838 3.8712 27.2838H28.006C29.4403 27.2838 30.6144 26.11 30.6144 24.6754V6.41087C30.6144 4.97623 29.4403 3.80249 28.006 3.80249Z" fill="#495965"/>
  <path d="M12.025 9.34669C15.4419 9.34669 18.2215 12.1263 18.2215 15.5431C18.2215 18.9603 15.4419 21.7396 12.025 21.7396C8.60816 21.7396 5.82856 18.9603 5.82856 15.5435C5.82856 12.1266 8.60848 9.34669 12.025 9.34669ZM12.025 8.04218C7.88187 8.04218 4.52405 11.4 4.52405 15.5431C4.52405 19.6866 7.8822 23.0441 12.025 23.0441C16.1681 23.0441 19.526 19.6866 19.526 15.5435C19.526 11.4 16.1685 8.04218 12.025 8.04218Z" fill="#495965"/>
  <path d="M13.839 15.3002C13.6127 15.3002 13.3792 15.3158 13.1437 15.3403C13.0951 15.0774 12.9588 14.8462 12.7631 14.6789C14.2936 12.5649 14.3093 10.0531 12.0254 10.0531C9.74153 10.0531 9.75718 12.5649 11.2877 14.6789C11.092 14.8462 10.9557 15.0774 10.9071 15.3403C10.6716 15.3158 10.4385 15.3002 10.2121 15.3002C7.9426 15.3002 6.23303 16.4906 7.27077 18.2882C7.66278 18.9672 8.17546 19.2633 8.72335 19.2633C9.77055 19.2633 10.9443 18.1786 11.6442 16.6145C11.7639 16.6575 11.891 16.6849 12.0254 16.6849C12.1601 16.6849 12.287 16.6575 12.4067 16.6145C13.1065 18.1786 14.2799 19.2636 15.3275 19.2636C15.875 19.2636 16.388 18.9672 16.78 18.2885C17.8178 16.4906 16.1085 15.3002 13.839 15.3002ZM8.72303 17.9588C8.59649 17.9588 8.44386 17.7116 8.40016 17.6359C8.35646 17.5603 8.21883 17.3046 8.28177 17.195C8.42234 16.952 9.10492 16.6102 10.186 16.6044C9.66684 17.4895 9.03089 17.9588 8.72303 17.9588ZM12.0251 13.4233C11.5525 12.5976 11.4273 11.8481 11.5675 11.5096C11.5848 11.4682 11.6305 11.3576 12.0251 11.3576C12.4197 11.3576 12.4654 11.4678 12.4826 11.5096C12.6229 11.8481 12.498 12.5976 12.0251 13.4233ZM15.65 17.6362C15.6063 17.7119 15.4537 17.9591 15.3275 17.9591C15.0199 17.9591 14.3836 17.4895 13.8641 16.6047C14.9452 16.6102 15.6278 16.9517 15.7684 17.1953C15.8317 17.3046 15.694 17.5606 15.65 17.6362Z" fill="#495965"/>
  <path d="M26.7008 9.6728H21.8089C21.4488 9.6728 21.1566 9.38059 21.1566 9.02054C21.1566 8.6605 21.4488 8.36829 21.8089 8.36829H26.7008C27.0612 8.36829 27.3531 8.6605 27.3531 9.02054C27.3531 9.38059 27.0612 9.6728 26.7008 9.6728Z" fill="#495965"/>
  <path d="M26.7008 12.9749H21.8089C21.4488 12.9749 21.1566 12.6827 21.1566 12.3226C21.1566 11.9626 21.4488 11.6703 21.8089 11.6703H26.7008C27.0612 11.6703 27.3531 11.9626 27.3531 12.3226C27.3531 12.6827 27.0612 12.9749 26.7008 12.9749Z" fill="#495965"/>
  <path d="M26.7008 16.1954H21.8089C21.4488 16.1954 21.1566 15.9032 21.1566 15.5431C21.1566 15.1828 21.4488 14.8909 21.8089 14.8909H26.7008C27.0612 14.8909 27.3531 15.1828 27.3531 15.5431C27.3531 15.9032 27.0612 16.1954 26.7008 16.1954Z" fill="#495965"/>
  <path d="M26.7008 19.4567H21.8089C21.4488 19.4567 21.1566 19.1645 21.1566 18.8044C21.1566 18.444 21.4488 18.1522 21.8089 18.1522H26.7008C27.0612 18.1522 27.3531 18.444 27.3531 18.8044C27.3531 19.1645 27.0612 19.4567 26.7008 19.4567Z" fill="#495965"/>
  <path d="M26.7008 22.718H21.8089C21.4488 22.718 21.1566 22.4258 21.1566 22.0657C21.1566 21.7053 21.4488 21.4135 21.8089 21.4135H26.7008C27.0612 21.4135 27.3531 21.7053 27.3531 22.0657C27.3531 22.4258 27.0612 22.718 26.7008 22.718Z" fill="#495965"/>
</svg>
