<svg width="32" height="32" viewBox="0 0 32 32" fill="none" xmlns="http://www.w3.org/2000/svg">
   <path d="M14.3689 0.472954C14.2413 0.467809 14.1159 0.506375 14.0132 0.58228L9.90075 3.63296V2.03983C9.9009 1.89132 9.84205 1.74882 9.73716 1.64369C9.63226 1.53855 9.48989 1.47938 9.34138 1.4792H6.657C6.5834 1.4792 6.51053 1.49372 6.44255 1.5219C6.37457 1.55009 6.31281 1.5914 6.2608 1.64346C6.20879 1.69553 6.16756 1.75734 6.13945 1.82535C6.11134 1.89337 6.09691 1.96624 6.09699 2.03983V6.45483L3.86762 8.1086C3.79728 8.16066 3.74012 8.22847 3.70072 8.30662C3.66132 8.38476 3.64078 8.47105 3.64075 8.55856V25.3948C3.64067 25.4684 3.65509 25.5413 3.6832 25.6093C3.71131 25.6773 3.75255 25.7391 3.80456 25.7912C3.85657 25.8433 3.91832 25.8846 3.9863 25.9127C4.05428 25.9409 4.12715 25.9554 4.20074 25.9554H21.797V30.6042C21.7972 30.7526 21.8563 30.8949 21.9613 30.9997C22.0663 31.1046 22.2086 31.1636 22.357 31.1636H26.6508C26.7991 31.1634 26.9412 31.1044 27.0461 30.9995C27.151 30.8947 27.2099 30.7525 27.2101 30.6042V23.8023C27.401 23.7824 27.4494 23.8034 27.7051 23.7291C27.977 23.6502 28.2709 23.5323 28.532 23.3067C28.7931 23.081 29.0064 22.7069 29.0064 22.2866V17.8416C29.0064 17.8416 29.026 17.3852 28.7945 16.9104C28.5631 16.4356 27.9738 15.9242 27.1032 15.9242H25.5664C25.4917 15.9242 25.4178 15.9392 25.349 15.9682C25.2803 15.9973 25.218 16.0398 25.1659 16.0932C25.1138 16.1467 25.0729 16.21 25.0456 16.2795C25.0183 16.349 25.0052 16.4233 25.007 16.4979C25.007 16.4979 25.0022 16.6369 24.9439 16.7566C24.8854 16.8764 24.8801 16.9585 24.532 16.9585C24.1878 16.9585 24.1303 16.8517 24.047 16.7085C23.9638 16.5653 23.9458 16.4179 23.9458 16.4179C23.9345 16.2765 23.87 16.1445 23.7652 16.0488C23.6605 15.9531 23.5233 15.9007 23.3814 15.9023C23.3814 15.9023 22.3637 15.9132 21.8645 15.9132C21.0369 15.9132 20.4805 16.4568 20.2626 16.9269C20.0448 17.397 20.0458 17.8444 20.0458 17.8444C20.0457 17.8468 20.0457 17.8492 20.0458 17.8517V22.306C20.0458 22.7465 20.2315 23.1452 20.4989 23.3935C20.7663 23.6419 21.0785 23.756 21.3583 23.8192C21.5879 23.871 21.6161 23.8375 21.797 23.841V24.8348H4.76013V8.84046L14.347 1.72983L23.9095 8.83922V10.7217C22.8178 10.9415 21.9876 11.9121 21.9876 13.0655C21.9876 14.3791 23.0646 15.4561 24.3782 15.4561C25.6919 15.4561 26.7689 14.3791 26.7689 13.0655C26.7689 11.9775 26.029 11.0539 25.0289 10.768V8.55793C25.0289 8.47079 25.0085 8.38485 24.9695 8.30695C24.9304 8.22905 24.8737 8.16132 24.8039 8.10919L14.6814 0.582945C14.5908 0.515364 14.4818 0.477459 14.3689 0.472954ZM7.21637 2.5992H8.78138V4.46359L7.21637 5.62422V2.5992ZM13.4307 9.59669C13.1801 9.59669 12.9669 9.76699 12.9083 10.0123L11.927 14.3911C11.8896 14.5511 11.9266 14.7165 12.0333 14.8392C12.1347 14.9672 12.2896 15.0417 12.4496 15.0417H13.3239L12.9027 18.8286C12.876 19.0792 13.0255 19.3136 13.2602 19.3936C13.3188 19.4149 13.3722 19.4204 13.4308 19.4204C13.6121 19.4204 13.7882 19.3245 13.8896 19.1592L17.3777 13.346C17.479 13.1807 17.4787 12.978 17.3825 12.8073C17.2865 12.6366 17.1108 12.5404 16.9188 12.5404H15.745L16.0387 10.1992C16.06 10.0499 16.012 9.89529 15.9106 9.7779C15.8092 9.66058 15.6653 9.59667 15.5106 9.59667L13.4307 9.59669ZM13.852 10.6686H14.9026L14.6095 13.0098C14.5882 13.1591 14.6362 13.3138 14.7376 13.4311C14.839 13.5484 14.983 13.6123 15.1376 13.6123H15.9695L14.2308 16.5192L14.4495 14.5723C14.4655 14.423 14.4177 14.2687 14.3164 14.1567C14.215 14.0447 14.071 13.9804 13.9164 13.9804H13.1107L13.852 10.6686ZM24.3782 11.7948C25.0866 11.7948 25.6489 12.3578 25.6489 13.0661C25.6489 13.7744 25.0866 14.3367 24.3782 14.3367C23.6699 14.3367 23.1083 13.7744 23.1083 13.0661C23.1083 12.3578 23.6699 11.7948 24.3782 11.7948ZM22.9976 17.0254C23.0343 17.136 23.0061 17.1481 23.0783 17.2723C23.3023 17.6576 23.8158 18.0786 24.532 18.0786C25.2444 18.0786 25.7569 17.6449 25.9508 17.2473C26.0015 17.1434 25.9712 17.1392 25.997 17.0442H27.1032C27.6096 17.0442 27.6917 17.2043 27.7876 17.4011C27.8835 17.5979 27.8863 17.8136 27.8863 17.8136C27.8863 17.8182 27.8863 17.8228 27.8863 17.8274V22.2867C27.8863 22.3818 27.8754 22.3946 27.8001 22.4599C27.7246 22.5252 27.5695 22.6022 27.3926 22.6536C27.0387 22.7564 26.6488 22.7629 26.6488 22.7629C26.5006 22.7635 26.3587 22.8227 26.2541 22.9276C26.1495 23.0326 26.0907 23.1747 26.0907 23.3229V30.0442H22.9163V23.3167C22.9162 23.2374 22.8993 23.1591 22.8666 23.0868C22.8339 23.0146 22.7863 22.9501 22.7269 22.8976C22.6675 22.8452 22.5976 22.8059 22.5218 22.7825C22.4461 22.7591 22.3663 22.752 22.2876 22.7617C22.2876 22.7617 21.9211 22.7987 21.6051 22.7273C21.4471 22.6917 21.321 22.6296 21.2601 22.573C21.1991 22.5164 21.1657 22.4816 21.1657 22.3067V17.8599C21.1657 17.8599 21.1766 17.6173 21.2782 17.398C21.3798 17.1786 21.4519 17.0336 21.8645 17.0336C22.2468 17.0336 22.6839 17.0291 22.9976 17.0254Z" fill="#495965"/>
</svg>
