<?xml version="1.0" encoding="UTF-8"?>
<svg width="26.458mm" height="26.458mm" version="1.1" viewBox="0 0 26.458 26.458" xmlns="http://www.w3.org/2000/svg">
 <g transform="translate(107.35 -180.77)">
  <path d="m-95.465 181.16c-0.10545-4e-3 -0.20919 0.0276-0.29404 0.0904l-3.4003 2.5224v-1.3172c2.67e-4 -0.25571-0.20679-0.46324-0.4625-0.46355h-2.2195c-0.25592 2e-5 -0.4633 0.20763-0.46303 0.46355v3.6504l-1.8433 1.3674c-0.11794 0.0873-0.18753 0.22531-0.18759 0.37204v13.921c-2.6e-4 0.25591 0.20711 0.46351 0.46302 0.46354h14.549v3.8437c3.13e-4 0.25551 0.20752 0.46247 0.46302 0.4625h3.5502c0.2553-3.1e-4 0.46219-0.2072 0.4625-0.4625v-5.624c0.15779-0.0165 0.19783 8.8e-4 0.40928-0.0605 0.22478-0.0653 0.46779-0.16273 0.68368-0.34933 0.21589-0.18661 0.39222-0.49591 0.39222-0.84336v-3.6752s0.0162-0.37742-0.17518-0.76998c-0.19136-0.39256-0.67857-0.81545-1.3984-0.81545h-1.2707c-0.26001 2.4e-4 -0.46886 0.21446-0.4625 0.47439 0 0-4e-3 0.11494-0.0522 0.21394-0.0483 0.099-0.0527 0.16692-0.34055 0.16692-0.28461 0-0.33217-0.0883-0.40101-0.20671-0.0688-0.1184-0.0837-0.24029-0.0837-0.24029-0.01929-0.24268-0.22321-0.42898-0.46664-0.42634 0 0-0.84141 9e-3 -1.2542 9e-3 -0.6843 0-1.1443 0.44949-1.3245 0.83819-0.18013 0.38871-0.17932 0.75861-0.17932 0.75861-1.3e-5 2e-3 -1.3e-5 4e-3 0 6e-3v3.683c0 0.36421 0.15357 0.69382 0.37465 0.89917 0.22109 0.20534 0.47924 0.29967 0.71056 0.35192 0.18983 0.0429 0.21316 0.0152 0.36276 0.0181v0.82165h-14.086v-13.224l7.9266-5.8792 7.9065 5.8782v1.5565c-0.9026 0.18172-1.589 0.98429-1.589 1.9379 0 1.0861 0.8905 1.9766 1.9766 1.9766s1.9766-0.8905 1.9766-1.9766c0-0.89954-0.61178-1.6632-1.4387-1.8996v-1.8273c-1e-5 -0.1461-0.06897-0.28363-0.18604-0.37103l-8.3695-6.2229c-0.07492-0.0559-0.165-0.0878-0.25839-0.0915zm-5.9139 1.758h1.294v1.5415l-1.294 0.95964zm14.19 7.6032c0.58566 0 1.0506 0.46545 1.0506 1.0511 0 0.58566-0.46493 1.0506-1.0506 1.0506-0.58565 0-1.0501-0.46492-1.0501-1.0506 0-0.58565 0.46441-1.0511 1.0501-1.0511zm-1.1415 4.3248c0.0303 0.0914 7e-3 0.10142 0.0667 0.20412 0.18518 0.31853 0.60975 0.66663 1.202 0.66663 0.58901 0 1.0128-0.35854 1.173-0.6873 0.0419-0.0859 0.0169-0.0894 0.0382-0.16795h0.91468c0.41867 0 0.48653 0.13234 0.56586 0.29508 0.0793 0.16273 0.0816 0.34106 0.0816 0.34106-4.7e-5 4e-3 -4.7e-5 8e-3 0 0.0114v3.6871c0 0.0786-9e-3 0.0892-0.0713 0.14314-0.0624 0.054-0.19062 0.11772-0.33693 0.1602-0.29263 0.085-0.61495 0.0904-0.61495 0.0904-0.2551 8.8e-4 -0.46145 0.20792-0.46147 0.46302v5.5573h-2.6246v-5.5624c-4.15e-4 -0.278-0.24396-0.49298-0.51986-0.45888 0 0-0.30305 0.0306-0.56431-0.0284-0.13063-0.0295-0.23487-0.0808-0.28525-0.12764-0.0504-0.0468-0.078-0.0755-0.078-0.22015v-3.6768s9e-3 -0.20055 0.093-0.38189 0.14363-0.30128 0.48472-0.30128c0.31616 0 0.67752-4e-3 0.9369-7e-3z" color="#000000" color-rendering="auto" dominant-baseline="auto" image-rendering="auto" shape-rendering="auto" solid-color="#000000" style="font-feature-settings:normal;font-variant-alternates:normal;font-variant-caps:normal;font-variant-ligatures:normal;font-variant-numeric:normal;font-variant-position:normal;isolation:auto;mix-blend-mode:normal;paint-order:normal;shape-padding:0;text-decoration-color:#000000;text-decoration-line:none;text-decoration-style:solid;text-indent:0;text-orientation:mixed;text-transform:none;white-space:normal"/>
 </g>
</svg>
