<svg width="32" height="32" viewBox="0 0 32 32" fill="none" xmlns="http://www.w3.org/2000/svg">
   <path d="M30.4999 7.07927H23.5V6.32927C23.5004 5.93158 23.6586 5.55029 23.9398 5.26909C24.221 4.98788 24.6023 4.8297 24.9999 4.82927H25.5173C25.5063 4.74638 25.5005 4.66288 25.4999 4.57927V3.82928H24.9999C24.3371 3.83002 23.7016 4.09365 23.233 4.56232C22.7643 5.031 22.5006 5.66646 22.4999 6.32927V7.07927H20.4999V6.32927C20.5013 5.13621 20.9758 3.99241 21.8194 3.14879C22.663 2.30516 23.8068 1.83061 24.9999 1.82927H25.4999V1.07927C25.5005 0.995659 25.5063 0.91217 25.5173 0.829285H24.9999C23.5418 0.83093 22.1438 1.41091 21.1127 2.44201C20.0816 3.4731 19.5016 4.87109 19.4999 6.32927V7.07927H17.5V5.82928C17.4992 5.29195 17.3256 4.76911 17.0048 4.33806C16.6839 3.90701 16.233 3.59062 15.7185 3.43565C15.7737 3.78615 15.7562 4.14428 15.6669 4.48771C15.9168 4.61178 16.1271 4.80304 16.2742 5.04003C16.4214 5.27701 16.4995 5.55033 16.4999 5.82928V7.07927H3.5V5.82928C3.5004 5.55033 3.57856 5.27701 3.7257 5.04003C3.87285 4.80304 4.08315 4.61178 4.33299 4.48771C4.24377 4.14428 4.22623 3.78615 4.28146 3.43565C3.76697 3.59062 3.31599 3.90701 2.99517 4.33806C2.67436 4.76911 2.50074 5.29195 2.49998 5.82928V7.07927H1.49998C1.10229 7.07971 0.72102 7.23789 0.439812 7.5191C0.158603 7.80031 0.000435506 8.18158 0 8.57927V26.0793C0.000435506 26.477 0.158603 26.8583 0.439812 27.1395C0.72102 27.4207 1.10229 27.5788 1.49998 27.5793H2.41865L3.34727 29.7741C3.38556 29.8646 3.44965 29.9418 3.53154 29.996C3.61343 30.0503 3.70949 30.0793 3.80773 30.0793H7.19221C7.29045 30.0793 7.38651 30.0503 7.4684 29.996C7.55029 29.9418 7.61439 29.8646 7.65267 29.7741L8.58129 27.5793H23.4186L24.3472 29.7741C24.3855 29.8646 24.4496 29.9418 24.5315 29.996C24.6134 30.0503 24.7094 30.0793 24.8077 30.0793H28.1921C28.2904 30.0793 28.3864 30.0503 28.4683 29.996C28.5502 29.9418 28.6143 29.8646 28.6526 29.7741L29.5812 27.5793H30.4999C30.8976 27.5788 31.2789 27.4207 31.5601 27.1395C31.8413 26.8583 31.9995 26.477 31.9999 26.0793V8.57927C31.9995 8.18158 31.8413 7.80029 31.5601 7.51909C31.2789 7.23788 30.8976 7.0797 30.4999 7.07927ZM6.86084 29.0793H4.13918L3.50447 27.5793H7.49555L6.86084 29.0793ZM27.8608 29.0793H25.1391L24.5044 27.5793H28.4955L27.8608 29.0793ZM30.9999 26.0793C30.9998 26.2118 30.9471 26.3389 30.8533 26.4327C30.7596 26.5264 30.6325 26.5791 30.4999 26.5793H1.50001C1.36745 26.5791 1.24036 26.5264 1.14663 26.4327C1.05289 26.3389 1.00015 26.2118 1.00002 26.0793V25.0793H30.9999V26.0793ZM30.9999 24.0793H1.00002V8.57927C1.00015 8.44671 1.05289 8.3196 1.14663 8.22586C1.24036 8.13213 1.36745 8.07941 1.50001 8.07928H30.4999C30.6325 8.07941 30.7596 8.13212 30.8533 8.22586C30.9471 8.3196 30.9998 8.4467 30.9999 8.57927V24.0793Z" fill="#495965"/>
   <path d="M14.5 9.32928H5.49999C5.23487 9.32959 4.9807 9.43504 4.79323 9.62251C4.60576 9.80998 4.50029 10.0642 4.49999 10.3293V10.8293H2.99999C2.86739 10.8293 2.74022 10.882 2.64646 10.9757C2.55269 11.0695 2.50001 11.1967 2.5 11.3293V13.3293C2.5 13.4619 2.55267 13.5891 2.64644 13.6828C2.7402 13.7766 2.86739 13.8293 2.99999 13.8293H4.49999V18.3293H2.99999C2.86739 18.3293 2.74022 18.382 2.64646 18.4757C2.55269 18.5695 2.50001 18.6967 2.5 18.8293V20.8293C2.50001 20.9619 2.55269 21.0891 2.64646 21.1828C2.74022 21.2766 2.86739 21.3293 2.99999 21.3293H4.49999V21.8293C4.50029 22.0944 4.60576 22.3486 4.79323 22.5361C4.9807 22.7235 5.23487 22.829 5.49999 22.8293H14.5C14.7651 22.829 15.0193 22.7235 15.2067 22.5361C15.3942 22.3486 15.4997 22.0944 15.5 21.8293V10.3293C15.4997 10.0642 15.3942 9.80998 15.2067 9.62251C15.0193 9.43504 14.7651 9.32959 14.5 9.32928ZM4.49999 20.3293H3.5V19.3293H4.49999V20.3293ZM4.49999 12.8293H3.5V11.8293H4.49999V12.8293ZM5.49999 21.8293V10.3293H14.5L14.5006 21.8293H5.49999Z" fill="#495965"/>
   <path d="M28.5 15.8293H19.5C19.2349 15.8296 18.9807 15.935 18.7932 16.1225C18.6058 16.31 18.5003 16.5642 18.5 16.8293V21.8293C18.5003 22.0944 18.6058 22.3486 18.7932 22.536C18.9807 22.7235 19.2349 22.829 19.5 22.8293H28.5C28.7651 22.829 29.0193 22.7235 29.2067 22.536C29.3942 22.3486 29.4997 22.0944 29.5 21.8293V16.8293C29.4997 16.5642 29.3942 16.31 29.2067 16.1225C29.0193 15.935 28.7651 15.8296 28.5 15.8293ZM19.5 21.8293V16.8293H28.5L28.5005 21.8293H19.5Z" fill="#495965"/>
   <path d="M26.75 17.8293H21.25C21.1176 17.8296 20.9908 17.8825 20.8973 17.9762C20.8038 18.0699 20.7513 18.1969 20.7513 18.3293C20.7513 18.4617 20.8038 18.5886 20.8973 18.6824C20.9908 18.7761 21.1176 18.8289 21.25 18.8293H26.75C26.8824 18.8289 27.0092 18.7761 27.1027 18.6824C27.1961 18.5886 27.2486 18.4617 27.2486 18.3293C27.2486 18.1969 27.1961 18.0699 27.1027 17.9762C27.0092 17.8825 26.8824 17.8296 26.75 17.8293Z" fill="#495965"/>
   <path d="M26.75 19.8293H21.25C21.1174 19.8293 20.9902 19.882 20.8964 19.9757C20.8027 20.0695 20.75 20.1967 20.75 20.3293C20.75 20.4619 20.8027 20.5891 20.8964 20.6829C20.9902 20.7766 21.1174 20.8293 21.25 20.8293H26.75C26.8826 20.8293 27.0098 20.7766 27.1035 20.6829C27.1973 20.5891 27.25 20.4619 27.25 20.3293C27.25 20.1967 27.1973 20.0695 27.1035 19.9757C27.0098 19.882 26.8826 19.8293 26.75 19.8293Z" fill="#495965"/>
   <path d="M12.75 12.3293H7.25001C7.11741 12.3293 6.99022 12.382 6.89646 12.4757C6.80269 12.5695 6.75001 12.6967 6.75 12.8293V14.8293C6.75001 14.9619 6.80269 15.0891 6.89646 15.1828C6.99022 15.2766 7.11741 15.3293 7.25001 15.3293H12.75C12.8826 15.3293 13.0098 15.2766 13.1035 15.1828C13.1973 15.0891 13.25 14.9619 13.25 14.8293V12.8293C13.25 12.6967 13.1973 12.5695 13.1035 12.4757C13.0098 12.382 12.8826 12.3293 12.75 12.3293ZM12.25 14.3293H7.75V13.3293H12.25V14.3293Z" fill="#495965"/>
   <path d="M12.75 16.8293H7.25001C7.1174 16.8293 6.99022 16.882 6.89646 16.9757C6.80269 17.0695 6.75 17.1967 6.75 17.3293V19.3293C6.75001 19.4619 6.80269 19.5891 6.89646 19.6828C6.99022 19.7766 7.11741 19.8293 7.25001 19.8293H12.75C12.8826 19.8293 13.0098 19.7766 13.1035 19.6828C13.1973 19.5891 13.25 19.4619 13.25 19.3293V17.3293C13.25 17.1967 13.1973 17.0695 13.1035 16.9757C13.0098 16.882 12.8826 16.8293 12.75 16.8293ZM12.25 18.8293H7.75V17.8293H12.25V18.8293Z" fill="#495965"/>
   <path d="M25.58 5.57929H26.58C27.132 5.57865 27.5793 5.13129 27.5799 4.57927V1.07927C27.5792 0.527256 27.132 0.0799136 26.58 0.0792847H25.58C25.0279 0.0799136 24.5806 0.527256 24.58 1.07927V4.57927C24.5806 5.13129 25.0279 5.57865 25.58 5.57929ZM25.58 1.07927H26.58L26.5805 4.57927H25.58L25.58 1.07927Z" fill="#495965"/>
   <path d="M27 9.32928C26.5055 9.32929 26.0222 9.47592 25.6111 9.75062C25.2 10.0253 24.8795 10.4158 24.6903 10.8726C24.5011 11.3294 24.4516 11.8321 24.548 12.317C24.6445 12.802 24.8826 13.2474 25.2322 13.5971C25.5819 13.9467 26.0273 14.1848 26.5123 14.2813C26.9972 14.3777 27.4999 14.3282 27.9567 14.139C28.4135 13.9498 28.804 13.6293 29.0787 13.2182C29.3534 12.8071 29.5 12.3237 29.5 11.8293C29.4993 11.1665 29.2356 10.531 28.7669 10.0623C28.2983 9.59366 27.6628 9.33002 27 9.32928ZM27.5 13.2418V12.3293C27.5 12.1967 27.4473 12.0695 27.3536 11.9757C27.2598 11.882 27.1326 11.8293 27 11.8293C26.8674 11.8293 26.7402 11.882 26.6464 11.9757C26.5527 12.0695 26.5 12.1967 26.5 12.3293V13.2418C26.1664 13.1238 25.8852 12.8918 25.7062 12.5866C25.5272 12.2814 25.4618 11.9227 25.5216 11.5739C25.5814 11.2252 25.7626 10.9088 26.0332 10.6807C26.3037 10.4527 26.6462 10.3276 27 10.3276C27.3538 10.3276 27.6963 10.4527 27.9668 10.6807C28.2374 10.9088 28.4186 11.2252 28.4784 11.5739C28.5382 11.9227 28.4728 12.2814 28.2938 12.5866C28.1148 12.8918 27.8336 13.1238 27.5 13.2418Z" fill="#495965"/>
   <path d="M21 14.3293C21.4944 14.3293 21.9778 14.1827 22.3889 13.908C22.8 13.6333 23.1205 13.2428 23.3097 12.786C23.4989 12.3292 23.5484 11.8265 23.4519 11.3416C23.3555 10.8566 23.1174 10.4111 22.7678 10.0615C22.4181 9.71189 21.9727 9.47379 21.4877 9.37733C21.0028 9.28086 20.5001 9.33036 20.0433 9.51958C19.5865 9.70879 19.196 10.0292 18.9213 10.4404C18.6466 10.8515 18.5 11.3348 18.5 11.8293C18.5007 12.4921 18.7644 13.1275 19.233 13.5962C19.7017 14.0649 20.3372 14.3285 21 14.3293ZM20.5 10.4168V11.3293C20.5004 11.4617 20.5532 11.5885 20.6469 11.682C20.7406 11.7754 20.8676 11.8279 21 11.8279C21.1324 11.8279 21.2593 11.7754 21.3531 11.682C21.4468 11.5885 21.4996 11.4617 21.5 11.3293V10.4168C21.8336 10.5347 22.1148 10.7668 22.2938 11.072C22.4728 11.3772 22.5382 11.7359 22.4784 12.0846C22.4185 12.4334 22.2374 12.7498 21.9668 12.9778C21.6963 13.2059 21.3538 13.331 21 13.331C20.6461 13.331 20.3037 13.2059 20.0332 12.9778C19.7626 12.7498 19.5814 12.4334 19.5216 12.0846C19.4618 11.7359 19.5271 11.3772 19.7062 11.072C19.8852 10.7668 20.1664 10.5347 20.5 10.4168Z" fill="#495965"/>
   <path d="M6.33182 1.33441C5.07249 1.33441 4.04285 2.36406 4.04285 3.62339C4.04285 4.88273 5.07249 5.91236 6.33182 5.91236H13.8342C15.0935 5.91236 16.1231 4.88273 16.1231 3.62339C16.1231 2.36406 15.0935 1.33441 13.8342 1.33441H6.33182ZM6.33182 2.35725H13.8342C14.5439 2.35725 15.0979 2.91364 15.0979 3.62339C15.0979 4.33314 14.5439 4.88953 13.8342 4.88953H6.33182C5.62208 4.88953 5.06804 4.33314 5.06804 3.62339C5.06804 2.91364 5.62208 2.35725 6.33182 2.35725Z" fill="#495965"/>
</svg>
