<svg width="32" height="32" viewBox="0 0 32 32" fill="none" xmlns="http://www.w3.org/2000/svg">
  <path d="M12.128 3.39197H5.92004V3.67997H12.128V3.39197Z" fill="#495965"/>
  <path d="M12.128 3.93591H5.92004V4.22391H12.128V3.93591Z" fill="#495965"/>
  <path d="M26.1758 3.39197H19.9678V3.67997H26.1758V3.39197Z" fill="#495965"/>
  <path d="M26.1758 3.93591H19.9678V4.22391H26.1758V3.93591Z" fill="#495965"/>
  <path d="M11.072 6.71997H4V7.03997H11.072V6.71997Z" fill="#495965"/>
  <path d="M11.072 7.35999H4V7.67999H11.072V7.35999Z" fill="#495965"/>
  <path d="M27.968 6.71997H20.896V7.03997H27.968V6.71997Z" fill="#495965"/>
  <path d="M27.968 7.35999H20.896V7.67999H27.968V7.35999Z" fill="#495965"/>
  <path d="M20.3197 7.71197V6.71997H18.0797V4.22397H19.4237V3.39197H12.7037V4.22397H14.0477V6.71997H11.8077V7.71197H13.8237L10.0477 30.656H11.5837L16.0957 26.144L20.6077 30.656H21.9837L18.3037 7.71197H20.3197ZM18.0797 13.6L16.4157 11.936L17.6317 10.72L18.0797 13.6ZM14.7197 4.22397H17.4717V6.71997H14.7197V4.22397ZM17.3117 8.79997L16.2237 7.71197H17.1197L17.3117 8.79997ZM15.3917 7.71197L14.8477 8.25597L14.9437 7.71197H15.3917ZM14.7197 9.21597L15.8077 8.12797L17.4717 9.79197L17.5037 10.048L15.9997 11.52L14.5597 10.08L14.7197 9.21597ZM14.4637 10.784L15.6157 11.936L14.0157 13.536L14.4637 10.784ZM13.6637 15.616L15.6157 17.568L12.8957 20.288L13.6637 15.616ZM11.2957 30.144L12.5437 22.56L15.7117 25.728L11.2957 30.144ZM20.7677 29.952L16.5437 25.728L19.5837 22.688L20.7677 29.952ZM19.4557 21.984L16.1277 25.312L12.6397 21.856L12.7357 21.248L15.9997 17.984L19.3277 21.312L19.4557 21.984ZM19.1997 20.32L16.4477 17.568L18.4317 15.584L19.1997 20.32ZM18.3037 14.88L16.0317 17.152L13.7917 14.912L13.8557 14.528L16.0317 12.352L18.2717 14.592L18.3037 14.88Z" fill="#495965"/>
</svg>