<svg width="32" height="32" viewBox="0 0 32 32" fill="none" xmlns="http://www.w3.org/2000/svg">
   <path d="M1.07782 11.488C0.929358 11.49 0.787744 11.5508 0.684092 11.6571C0.58044 11.7634 0.523233 11.9065 0.525067 12.055V26.9298C0.525067 28.72 1.52158 29.7801 2.46916 30.2652C3.41674 30.7503 4.34948 30.766 4.34948 30.766H4.35431H27.1945H27.1969C27.1969 30.766 28.2035 30.7638 29.226 30.2487C30.2485 29.7335 31.3142 28.5995 31.3142 26.644V12.055C31.3163 11.9802 31.3033 11.9057 31.2761 11.8359C31.2489 11.7662 31.208 11.7026 31.1559 11.649C31.1037 11.5953 31.0412 11.5527 30.9723 11.5236C30.9033 11.4944 30.8292 11.4794 30.7544 11.4794C30.6795 11.4794 30.6054 11.4944 30.5365 11.5236C30.4675 11.5527 30.4051 11.5953 30.3529 11.649C30.3007 11.7026 30.2598 11.7662 30.2326 11.8359C30.2054 11.9057 30.1925 11.9802 30.1945 12.055V26.644C30.1945 28.2233 29.4792 28.8672 28.7205 29.2495C27.9641 29.6306 27.1966 29.6462 27.1922 29.6463H4.37565C4.37565 29.6463 3.67015 29.6219 2.97958 29.2684C2.28902 28.9148 1.64494 28.3375 1.64494 26.9298V12.055C1.64586 11.9803 1.63182 11.9061 1.60365 11.8369C1.57549 11.7677 1.53378 11.7049 1.48095 11.652C1.42812 11.5992 1.36525 11.5575 1.29605 11.5293C1.22685 11.5012 1.15253 11.4871 1.07782 11.488Z" fill="#495965"/>
   <path d="M15.1613 14.3275C13.8625 14.3275 12.7991 15.3909 12.7991 16.6897V22.196C12.7991 23.4947 13.8625 24.5582 15.1613 24.5582H16.5692C17.8679 24.5582 18.9314 23.4947 18.9314 22.196V16.6897C18.9314 15.3909 17.8679 14.3275 16.5692 14.3275H15.1613ZM15.1613 15.4471H16.5692C17.2668 15.4471 17.8093 15.992 17.8093 16.6897V22.196C17.8093 22.8936 17.2668 23.4385 16.5692 23.4385H15.1613C14.4636 23.4385 13.9188 22.8936 13.9188 22.196V16.6897C13.9188 15.992 14.4636 15.4471 15.1613 15.4471Z" fill="#495965"/>
   <path d="M3.78726 17.2896C2.80944 17.2896 2.04898 17.9193 1.50773 18.4754C0.96648 19.0316 0.624268 19.5857 0.624268 19.5857L1.57387 20.1786C1.57387 20.1786 1.8632 19.7173 2.31088 19.2573C2.75856 18.7973 3.34293 18.4093 3.78726 18.4093C4.23159 18.4093 4.57274 18.7422 5.0534 19.2502C5.53405 19.7583 6.15433 20.4432 7.13214 20.4432C8.10996 20.4432 8.7494 19.7725 9.26285 19.2644C9.77629 18.7564 10.1626 18.4093 10.6069 18.4093C11.0513 18.4093 11.5918 18.7881 12.0054 19.2432C12.4189 19.6983 12.6762 20.155 12.6762 20.155L13.6542 19.6093C13.6542 19.6093 13.3443 19.0506 12.8345 18.4896C12.3247 17.9286 11.5848 17.2896 10.6069 17.2896C9.62913 17.2896 8.98967 17.9603 8.47624 18.4684C7.96279 18.9764 7.57648 19.3235 7.13214 19.3235C6.6878 19.3235 6.34666 18.9906 5.866 18.4825C5.38535 17.9745 4.76507 17.2896 3.78726 17.2896Z" fill="#495965"/>
   <path d="M21.2912 17.2896C20.3134 17.2896 19.5529 17.9193 19.0116 18.4754C18.4704 19.0316 18.1282 19.5857 18.1282 19.5857L19.0778 20.1786C19.0778 20.1786 19.3671 19.7173 19.8148 19.2573C20.2625 18.7973 20.8468 18.4093 21.2912 18.4093C21.7355 18.4093 22.0767 18.7422 22.5573 19.2502C23.038 19.7583 23.6582 20.4432 24.636 20.4432C25.6139 20.4432 26.2533 19.7725 26.7668 19.2644C27.2802 18.7564 27.6665 18.4093 28.1109 18.4093C28.5552 18.4093 29.0957 18.7881 29.5093 19.2432C29.9228 19.6983 30.1801 20.155 30.1801 20.155L31.1581 19.6093C31.1581 19.6093 30.8482 19.0506 30.3384 18.4896C29.8286 17.9286 29.0887 17.2896 28.1109 17.2896C27.133 17.2896 26.4936 17.9603 25.9801 18.4684C25.4667 18.9764 25.0804 19.3235 24.636 19.3235C24.1917 19.3235 23.8506 18.9906 23.3699 18.4825C22.8893 17.9745 22.269 17.2896 21.2912 17.2896Z" fill="#495965"/>
   <path d="M10.307 0.872314C8.85695 0.872314 7.67078 2.0585 7.67078 3.50854V6.54397C7.67078 7.99401 8.85695 9.17783 10.307 9.17783H21.6668C23.1169 9.17783 24.3031 7.99401 24.3031 6.54397V3.50854C24.3031 2.0585 23.1169 0.872314 21.6668 0.872314H10.307ZM10.307 1.992H21.6668C22.5158 1.992 23.1834 2.6596 23.1834 3.50854V6.54397C23.1834 7.3929 22.5158 8.05814 21.6668 8.05814H10.307C9.45806 8.05814 8.79046 7.3929 8.79046 6.54397V3.50854C8.79046 2.6596 9.45806 1.992 10.307 1.992Z" fill="#495965"/>
   <path d="M8.03452 4.24554C8.03452 4.24554 6.88927 4.18981 5.71483 4.69436C4.54041 5.19891 3.30066 6.39096 3.30066 8.54711V17.3818H4.42034V8.54711C4.42034 6.78667 5.25533 6.1091 6.15656 5.72192C7.0578 5.33473 7.98727 5.36522 7.98727 5.36522L8.03452 4.24554Z" fill="#495965"/>
   <path d="M23.781 4.24554L23.8283 5.36522C23.8283 5.36522 24.7578 5.33473 25.659 5.72192C26.5602 6.1091 27.3952 6.78667 27.3952 8.54711V17.3818H28.5149V8.54711C28.5149 6.39096 27.2752 5.19891 26.1007 4.69436C24.9263 4.1898 23.781 4.24554 23.781 4.24554Z" fill="#495965"/>
   <path d="M11.0913 4.40146C11.0164 4.39939 10.942 4.41234 10.8722 4.43955C10.8025 4.46675 10.7389 4.50766 10.6853 4.55985C10.6316 4.61204 10.589 4.67446 10.5599 4.74341C10.5308 4.81236 10.5157 4.88645 10.5157 4.9613C10.5157 5.03615 10.5308 5.11024 10.5599 5.17919C10.589 5.24814 10.6316 5.31056 10.6853 5.36275C10.7389 5.41494 10.8025 5.45585 10.8722 5.48305C10.942 5.51026 11.0164 5.52321 11.0913 5.52114H14.6275C14.7023 5.52321 14.7768 5.51026 14.8465 5.48305C14.9162 5.45585 14.9798 5.41494 15.0334 5.36275C15.0871 5.31056 15.1298 5.24814 15.1589 5.17919C15.188 5.11024 15.203 5.03615 15.203 4.9613C15.203 4.88645 15.188 4.81236 15.1589 4.74341C15.1298 4.67446 15.0871 4.61204 15.0334 4.55985C14.9798 4.50766 14.9162 4.46675 14.8465 4.43955C14.7768 4.41234 14.7023 4.39939 14.6275 4.40146H11.0913Z" fill="#495965"/>
   <path d="M17.684 4.40146C17.6092 4.39939 17.5348 4.41234 17.465 4.43955C17.3953 4.46675 17.3317 4.50766 17.2781 4.55985C17.2244 4.61204 17.1818 4.67446 17.1526 4.74341C17.1235 4.81236 17.1085 4.88645 17.1085 4.9613C17.1085 5.03615 17.1235 5.11024 17.1526 5.17919C17.1818 5.24814 17.2244 5.31056 17.2781 5.36275C17.3317 5.41494 17.3953 5.45585 17.465 5.48305C17.5348 5.51026 17.6092 5.52321 17.684 5.52114H21.2203C21.2951 5.52321 21.3696 5.51026 21.4393 5.48305C21.509 5.45585 21.5726 5.41494 21.6263 5.36275C21.6799 5.31056 21.7226 5.24814 21.7517 5.17919C21.7808 5.11024 21.7958 5.03615 21.7958 4.9613C21.7958 4.88645 21.7808 4.81236 21.7517 4.74341C21.7226 4.67446 21.6799 4.61204 21.6263 4.55985C21.5726 4.50766 21.509 4.46675 21.4393 4.43955C21.3696 4.41234 21.2951 4.39939 21.2203 4.40146H17.684Z" fill="#495965"/>
   <path d="M19.444 2.62504C19.3702 2.62599 19.2974 2.64149 19.2297 2.67064C19.162 2.69978 19.1007 2.74202 19.0494 2.79491C18.998 2.8478 18.9576 2.91031 18.9305 2.97885C18.9033 3.0474 18.89 3.12062 18.8912 3.19433V6.73056C18.8892 6.80536 18.9021 6.87982 18.9293 6.94953C18.9566 7.01923 18.9975 7.08278 19.0497 7.13641C19.1018 7.19004 19.1643 7.23267 19.2332 7.26177C19.3021 7.29088 19.3762 7.30588 19.451 7.30588C19.5259 7.30588 19.5999 7.29088 19.6689 7.26177C19.7378 7.23267 19.8002 7.19004 19.8524 7.13641C19.9046 7.08278 19.9455 7.01923 19.9727 6.94953C20 6.87982 20.0129 6.80536 20.0109 6.73056V3.19433C20.0121 3.11943 19.9983 3.04504 19.9703 2.97557C19.9423 2.90609 19.9006 2.84294 19.8477 2.78986C19.7949 2.73678 19.7319 2.69484 19.6626 2.66653C19.5932 2.63822 19.5189 2.62411 19.444 2.62504Z" fill="#495965"/>
</svg>
