<svg width="32" height="32" viewBox="0 0 32 32" fill="none" xmlns="http://www.w3.org/2000/svg">
   <path d="M3.00222 6.71753C1.72919 6.71753 0.687256 7.75712 0.687256 9.03014V22.901C0.687256 24.174 1.72919 25.2136 3.00222 25.2136H11.5676C12.8406 25.2136 13.8802 24.174 13.8802 22.901V9.03014C13.8802 7.75712 12.8406 6.71753 11.5676 6.71753H3.00222ZM3.00222 7.74037H11.5676C12.291 7.74037 12.8573 8.30671 12.8573 9.03014V22.901C12.8573 23.6244 12.291 24.1908 11.5676 24.1908H3.00222C2.27878 24.1908 1.71245 23.6244 1.71245 22.901V9.03014C1.71245 8.30671 2.27878 7.74037 3.00222 7.74037Z" fill="#495965"/>
   <path d="M20.4754 6.71753C19.2024 6.71753 18.1628 7.75712 18.1628 9.03014V22.901C18.1628 24.174 19.2024 25.2136 20.4754 25.2136H29.0408C30.3138 25.2136 31.3558 24.174 31.3558 22.901V9.03014C31.3558 7.75712 30.3138 6.71753 29.0408 6.71753H20.4754ZM20.4754 7.74037H29.0408C29.7642 7.74037 30.3306 8.30671 30.3306 9.03014V22.901C30.3306 23.6244 29.7642 24.1908 29.0408 24.1908H20.4754C19.752 24.1908 19.1857 23.6244 19.1857 22.901V9.03014C19.1857 8.30671 19.752 7.74037 20.4754 7.74037Z" fill="#495965"/>
   <path d="M3.46044 9.26401C3.38561 9.26194 3.31114 9.27489 3.24141 9.30209C3.17167 9.32929 3.1081 9.3702 3.05444 9.42239C3.00079 9.47458 2.95813 9.53699 2.92901 9.60595C2.89989 9.6749 2.88489 9.749 2.88489 9.82385C2.88489 9.8987 2.89989 9.97279 2.92901 10.0417C2.95813 10.1107 3.00079 10.1731 3.05444 10.2253C3.1081 10.2775 3.17167 10.3184 3.24141 10.3456C3.31114 10.3728 3.38561 10.3858 3.46044 10.3837H9.58091C9.58091 10.3837 9.87693 10.3909 10.1431 10.497C10.2762 10.5502 10.3864 10.6232 10.4526 10.7025C10.5187 10.7819 10.5636 10.8656 10.5636 11.0569C10.5636 11.2481 10.5187 11.3295 10.4526 11.4088C10.3864 11.4882 10.2762 11.5612 10.1431 11.6143C9.87693 11.7206 9.58091 11.7277 9.58091 11.7277H4.94626H4.94155C4.94155 11.7277 4.48212 11.7325 3.9943 11.9332C3.75039 12.0334 3.48182 12.1877 3.26438 12.4458C3.04695 12.7039 2.9006 13.0705 2.9006 13.4804C2.9006 13.8903 3.04694 14.2593 3.26438 14.5174C3.48182 14.7755 3.75039 14.9298 3.9943 15.03C4.48212 15.2305 4.94155 15.2332 4.94155 15.2332H4.94626H9.55965C9.55965 15.2332 9.86238 15.2512 10.136 15.3655C10.2728 15.4226 10.3873 15.4982 10.4549 15.5781C10.5226 15.6579 10.5636 15.7344 10.5636 15.9064C10.5636 16.0784 10.5226 16.1525 10.4549 16.2324C10.3873 16.3123 10.2728 16.3903 10.136 16.4474C9.86238 16.5615 9.55965 16.5773 9.55965 16.5773H4.95571H4.95329C4.95329 16.5773 4.49125 16.5688 3.99896 16.7639C3.75223 16.862 3.48286 17.0165 3.26432 17.2789C3.04577 17.5412 2.90054 17.9142 2.90054 18.33C2.90054 18.7459 3.04578 19.1189 3.26432 19.3812C3.48285 19.6435 3.75226 19.7981 3.99896 19.8962C4.49119 20.0919 4.95329 20.0828 4.95329 20.0828H9.55959C9.55959 20.0828 9.86232 20.1008 10.136 20.2151C10.2728 20.2721 10.3872 20.3478 10.4549 20.4277C10.5225 20.5076 10.5635 20.584 10.5635 20.756C10.5635 20.928 10.5225 21.0021 10.4549 21.082C10.3872 21.1618 10.2728 21.2399 10.136 21.297C9.86233 21.4111 9.55959 21.4269 9.55959 21.4269H3.46038C3.38557 21.4248 3.31112 21.4378 3.24141 21.465C3.17171 21.4922 3.10815 21.5332 3.05452 21.5853C3.00089 21.6375 2.95827 21.6999 2.92916 21.7689C2.90005 21.8378 2.88505 21.9119 2.88505 21.9867C2.88505 22.0615 2.90005 22.1356 2.92916 22.2046C2.95827 22.2735 3.00089 22.3359 3.05452 22.3881C3.10815 22.4403 3.17171 22.4812 3.24141 22.5084C3.31112 22.5356 3.38557 22.5486 3.46038 22.5466H9.5903H9.59974C9.59974 22.5466 10.0707 22.5369 10.5682 22.3293C10.817 22.2255 11.0884 22.0687 11.31 21.8072C11.5315 21.5457 11.6832 21.1726 11.6832 20.756C11.6832 20.3394 11.5315 19.9664 11.31 19.7048C11.0884 19.4433 10.817 19.2842 10.5682 19.1804C10.0707 18.9728 9.59974 18.9631 9.59974 18.9631H9.5903H4.95329H4.95088C4.95088 18.9631 4.6676 18.9571 4.41466 18.8568C4.28818 18.8065 4.18545 18.7367 4.1241 18.6631C4.06276 18.5894 4.02017 18.5133 4.02017 18.33C4.02017 18.1466 4.06276 18.0706 4.1241 17.997C4.18544 17.9233 4.28821 17.8559 4.41466 17.8056C4.66754 17.7051 4.95088 17.697 4.95088 17.697H9.59025H9.59968C9.59968 17.697 10.0706 17.6873 10.5682 17.4797C10.817 17.3759 11.0884 17.2191 11.3099 16.9576C11.5315 16.6961 11.6831 16.323 11.6831 15.9064C11.6831 15.4899 11.5315 15.1168 11.3099 14.8553C11.0884 14.5937 10.817 14.4347 10.5682 14.3309C10.0706 14.1232 9.59968 14.1135 9.59968 14.1135H9.59025H4.96505C4.96505 14.1135 4.67791 14.0993 4.41938 13.9931C4.29011 13.94 4.18419 13.8688 4.12174 13.7946C4.0593 13.7205 4.02017 13.6498 4.02017 13.4805C4.02017 13.3111 4.0593 13.2404 4.12174 13.1663C4.18419 13.0922 4.29011 13.021 4.41938 12.9679C4.67791 12.8617 4.96505 12.8474 4.96505 12.8474H9.5808C9.5808 12.8474 10.0537 12.8559 10.5587 12.6537C10.8113 12.5528 11.0892 12.3942 11.3123 12.1269C11.5353 11.8596 11.6832 11.4818 11.6832 11.0569C11.6832 10.632 11.5353 10.2517 11.3123 9.98443C11.0892 9.71713 10.8113 9.55852 10.5587 9.45765C10.0537 9.25591 9.5808 9.26394 9.5808 9.26394L3.46044 9.26401Z" fill="#495965"/>
   <path d="M22.4361 9.26395C22.4361 9.26395 21.9608 9.25548 21.4558 9.45765C21.2033 9.55852 20.9277 9.71713 20.7046 9.98443C20.4816 10.2517 20.3337 10.632 20.3337 11.0569C20.3337 11.4818 20.4816 11.8596 20.7046 12.1269C20.9277 12.3942 21.2033 12.5528 21.4558 12.6537C21.9608 12.8555 22.4361 12.8474 22.4361 12.8474H27.0495C27.0495 12.8474 27.3366 12.8617 27.5952 12.9679C27.7244 13.021 27.8304 13.0922 27.8928 13.1663C27.9552 13.2405 27.9944 13.3111 27.9944 13.4805C27.9944 13.6498 27.9552 13.7205 27.8928 13.7947C27.8304 13.8688 27.7244 13.94 27.5952 13.9931C27.3366 14.0993 27.0495 14.1135 27.0495 14.1135H22.4243H22.4149C22.4149 14.1135 21.9463 14.1232 21.4487 14.3309C21.1999 14.4348 20.9285 14.5937 20.707 14.8553C20.4854 15.1168 20.3338 15.4899 20.3338 15.9065C20.3338 16.323 20.4854 16.6961 20.707 16.9576C20.9285 17.2192 21.1999 17.3759 21.4487 17.4797C21.9463 17.6873 22.4149 17.697 22.4149 17.697H22.4243H27.0637H27.0661C27.0661 17.697 27.3494 17.7055 27.6023 17.8056C27.7287 17.8559 27.8315 17.9233 27.8929 17.997C27.9542 18.0706 27.9944 18.1466 27.9944 18.33C27.9944 18.5133 27.9542 18.5895 27.8929 18.6631C27.8315 18.7367 27.7288 18.8065 27.6023 18.8568C27.3494 18.9573 27.0637 18.9631 27.0637 18.9631H22.4243H22.4149C22.4149 18.9631 21.9464 18.9728 21.4488 19.1804C21.2 19.2843 20.9286 19.4433 20.707 19.7048C20.4855 19.9664 20.3338 20.3394 20.3338 20.756C20.3338 21.1726 20.4855 21.5457 20.707 21.8072C20.9286 22.0687 21.2 22.2254 21.4488 22.3293C21.9464 22.5369 22.4149 22.5466 22.4149 22.5466H22.4243H28.5543C28.6291 22.5486 28.7035 22.5356 28.7732 22.5084C28.8429 22.4812 28.9065 22.4403 28.9601 22.3881C29.0138 22.3359 29.0564 22.2735 29.0855 22.2046C29.1146 22.1356 29.1296 22.0616 29.1296 21.9867C29.1296 21.9119 29.1146 21.8378 29.0855 21.7689C29.0564 21.6999 29.0138 21.6375 28.9601 21.5853C28.9065 21.5332 28.8429 21.4923 28.7732 21.465C28.7035 21.4378 28.6291 21.4248 28.5543 21.4269H22.4551C22.4551 21.4269 22.1523 21.4112 21.8787 21.297C21.7419 21.2399 21.6298 21.1619 21.5621 21.082C21.4945 21.0022 21.4535 20.928 21.4535 20.756C21.4535 20.584 21.4945 20.5076 21.5621 20.4277C21.6298 20.3479 21.7419 20.2722 21.8787 20.2151C22.1523 20.1009 22.4551 20.0828 22.4551 20.0828H27.0637C27.0637 20.0828 27.5235 20.0925 28.0157 19.8962C28.2624 19.7981 28.5342 19.6435 28.7527 19.3812C28.9712 19.1189 29.1165 18.7459 29.1165 18.33C29.1165 17.9142 28.9712 17.5412 28.7527 17.2789C28.5341 17.0165 28.2624 16.8619 28.0157 16.7639C27.5234 16.5682 27.0637 16.5773 27.0637 16.5773H22.4551C22.4551 16.5773 22.1523 16.5616 21.8787 16.4474C21.7419 16.3903 21.6298 16.3123 21.5621 16.2324C21.4945 16.1526 21.4535 16.0784 21.4535 15.9064C21.4535 15.7344 21.4945 15.6579 21.5621 15.5781C21.6298 15.4982 21.7419 15.4226 21.8787 15.3655C22.1523 15.2513 22.4551 15.2332 22.4551 15.2332H27.0684H27.0756C27.0756 15.2332 27.535 15.2308 28.0228 15.03C28.2667 14.9298 28.5329 14.7755 28.7504 14.5174C28.9678 14.2594 29.1165 13.8903 29.1165 13.4804C29.1165 13.0706 28.9678 12.7039 28.7504 12.4458C28.5329 12.1877 28.2667 12.0334 28.0228 11.9332C27.535 11.7327 27.0756 11.7277 27.0756 11.7277H27.0684H22.4362C22.4362 11.7277 22.1378 11.7204 21.8716 11.6143C21.7385 11.5611 21.6307 11.4881 21.5645 11.4088C21.4983 11.3295 21.4535 11.2481 21.4535 11.0569C21.4535 10.8656 21.4983 10.7818 21.5645 10.7025C21.6307 10.6232 21.7385 10.5502 21.8716 10.497C22.1378 10.3907 22.4362 10.3837 22.4362 10.3837H28.5543C28.6291 10.3858 28.7036 10.3728 28.7733 10.3456C28.843 10.3184 28.9066 10.2775 28.9603 10.2253C29.0139 10.1731 29.0566 10.1107 29.0857 10.0417C29.1148 9.97279 29.1298 9.8987 29.1298 9.82385C29.1298 9.749 29.1148 9.67491 29.0857 9.60596C29.0566 9.537 29.0139 9.47459 28.9603 9.4224C28.9066 9.37021 28.843 9.32929 28.7733 9.30209C28.7036 9.27489 28.6291 9.26194 28.5543 9.26401L22.4361 9.26395Z" fill="#495965"/>
</svg>
