<svg width="32" height="32" viewBox="0 0 32 32" fill="none" xmlns="http://www.w3.org/2000/svg">
   <path d="M7.51701 1.45068C6.97672 1.45087 6.45863 1.66566 6.07671 2.04783C5.69479 2.42999 5.48031 2.94824 5.48047 3.48853V26.5061C5.48031 27.0464 5.69479 27.5646 6.07671 27.9468C6.45863 28.3289 6.97672 28.5438 7.51701 28.544H11.5215V30.5805H12.8805V28.544H19.1182V30.5805H20.4772V28.544H24.4817C24.7493 28.544 25.0143 28.4914 25.2616 28.389C25.5089 28.2866 25.7335 28.1365 25.9228 27.9472C26.112 27.758 26.2621 27.5333 26.3645 27.286C26.4669 27.0387 26.5195 26.7738 26.5195 26.5061V3.48853C26.5195 3.2209 26.4669 2.95585 26.3645 2.70858C26.2621 2.46131 26.112 2.23669 25.9228 2.04745C25.7335 1.8582 25.5089 1.70808 25.2616 1.6057C25.0143 1.50331 24.7493 1.45061 24.4817 1.45068H7.51701ZM7.51701 2.80968H24.4817C24.6617 2.80975 24.8343 2.88131 24.9616 3.0086C25.0889 3.1359 25.1605 3.30851 25.1605 3.48853V6.66431C25.1605 6.84434 25.0889 7.01695 24.9616 7.14424C24.8343 7.27154 24.6617 7.3431 24.4817 7.34316H7.51701C7.33699 7.3431 7.16436 7.27154 7.03706 7.14424C6.90977 7.01695 6.83823 6.84434 6.83816 6.66431V3.48853C6.83823 3.30851 6.90977 3.1359 7.03706 3.0086C7.16436 2.88131 7.33699 2.80975 7.51701 2.80968ZM7.51701 8.70216H24.4817C24.6617 8.70222 24.8343 8.77371 24.9616 8.90101C25.0889 9.0283 25.1605 9.20099 25.1605 9.38101V26.5061C25.1605 26.6862 25.0889 26.8588 24.9616 26.9861C24.8343 27.1134 24.6617 27.1849 24.4817 27.185H7.51701C7.33699 27.1849 7.16436 27.1134 7.03706 26.9861C6.90977 26.8588 6.83823 26.6862 6.83816 26.5061V9.38101C6.83823 9.20099 6.90977 9.0283 7.03706 8.90101C7.16436 8.77371 7.33699 8.70222 7.51701 8.70216Z" fill="#495965"/>
   <path d="M15.9813 10.5154C15.8215 10.5206 15.6715 10.5935 15.5686 10.7158C15.5686 10.7158 14.2903 12.228 13.0113 14.1006C12.3718 15.0369 11.7305 16.0644 11.2396 17.0541C10.7488 18.0439 10.3956 18.9863 10.3956 19.8524C10.3956 22.9413 12.9089 25.4546 15.9978 25.4546C16.1181 25.4546 16.2359 25.4439 16.3543 25.4376C16.355 25.4375 16.3558 25.4376 16.3565 25.4376C19.2785 25.2512 21.6043 22.8209 21.6043 19.853C21.6043 18.9869 21.2468 18.0444 20.7559 17.0547C20.2651 16.0643 19.6227 15.0368 18.9832 14.1005C17.7042 12.2279 16.4302 10.7157 16.4302 10.7157C16.3192 10.5837 16.1537 10.5099 15.9813 10.5154ZM15.9978 12.0087C16.3227 12.4033 17.0249 13.2335 18.0522 14.7377C18.6731 15.6467 19.2946 16.6405 19.7491 17.5569C20.2035 18.4733 20.4764 19.3262 20.4764 19.8523C20.4764 20.9693 20.0694 21.9861 19.3969 22.7684C19.4594 22.5076 19.4949 22.2369 19.4949 21.9574C19.4949 21.3821 19.2732 20.8147 18.9799 20.2232C18.6865 19.6316 18.3074 19.0265 17.9312 18.4757C17.1788 17.3741 16.4302 16.4884 16.4302 16.4884C16.3198 16.3552 16.1542 16.2802 15.9813 16.2848C15.821 16.2909 15.6709 16.3649 15.5686 16.4884C15.5686 16.4884 14.8157 17.3741 14.0633 18.4757C13.6871 19.0265 13.3091 19.6316 13.0157 20.2232C12.7223 20.8147 12.4996 21.3821 12.4996 21.9574C12.4996 22.2369 12.5361 22.5076 12.5986 22.7684C11.9261 21.9861 11.518 20.9694 11.518 19.8523C11.518 19.3262 11.7953 18.4733 12.2498 17.5569C12.7043 16.6405 13.3224 15.6467 13.9433 14.7377C14.9701 13.2344 15.6722 12.4041 15.9978 12.0087ZM15.9978 17.7814C16.2539 18.0982 16.4994 18.3795 17.0003 19.1129C17.3578 19.6364 17.7116 20.2079 17.9686 20.7261C18.2256 21.2442 18.368 21.7222 18.368 21.9574C18.368 23.274 17.3143 24.3277 15.9978 24.3277C14.6812 24.3277 13.6264 23.274 13.6264 21.9574C13.6264 21.7222 13.7689 21.2442 14.0259 20.7261C14.2828 20.2079 14.6377 19.6364 14.9953 19.1129C15.4957 18.3803 15.7414 18.0986 15.9978 17.7814Z" fill="#495965" stroke="#495965" stroke-width="0.5" stroke-linejoin="round"/>
</svg>
