<svg width="32" height="32" viewBox="0 0 32 32" fill="none" xmlns="http://www.w3.org/2000/svg">
   <path d="M15.8707 1.0719C14.5404 1.0719 13.2757 1.36188 12.1384 1.88213C9.03879 3.29996 6.88721 6.43009 6.88721 10.0554C6.88721 15.0108 10.9152 19.0412 15.8707 19.0412C20.8262 19.0412 24.8565 15.0109 24.8565 10.0554C24.8565 5.09986 20.8262 1.0719 15.8707 1.0719ZM15.8707 2.19158C20.2209 2.19158 23.7368 5.70516 23.7368 10.0554C23.7368 14.4055 20.2209 17.9215 15.8707 17.9215C11.5205 17.9215 8.00689 14.4056 8.00689 10.0554C8.00689 6.8729 9.89241 4.14047 12.6037 2.90023C13.5986 2.44516 14.7029 2.19158 15.8707 2.19158Z" fill="#495965"/>
   <path d="M17.6584 4.9708C17.4071 4.97115 17.2196 5.12407 17.1401 5.3207C17.0605 5.51732 17.0887 5.75763 17.269 5.93267L17.6722 6.33611L18.0753 6.73955H15.3072H12.539C12.1604 6.73471 11.9711 7.01688 11.9711 7.29955C11.9711 7.58222 12.1604 7.8649 12.539 7.85955H15.2565H17.974L17.6215 8.21205L17.269 8.56454C16.9942 8.82845 17.0602 9.16385 17.2609 9.36456C17.4616 9.56527 17.7971 9.63128 18.061 9.35609L18.9166 8.50047L19.7722 7.64484C19.8815 7.53551 19.9362 7.3922 19.9362 7.24891C19.9362 7.10561 19.8815 6.96232 19.7722 6.85297L18.9165 5.99672L18.0609 5.14047C18.0081 5.08605 17.9454 5.04347 17.8769 5.0146C17.8084 4.9857 17.7342 4.97068 17.6584 4.9708Z" fill="#495965"/>
   <path d="M14.2488 10.7308C14.5001 10.7312 14.6876 10.8841 14.7672 11.0807C14.8468 11.2774 14.8185 11.5177 14.6382 11.6927L14.235 12.0961L13.8319 12.4996H16.6001H19.3682C19.7468 12.4947 19.9361 12.7769 19.9361 13.0596C19.9361 13.3422 19.7468 13.6249 19.3682 13.6196H16.6507H13.9332L14.2857 13.9721L14.6382 14.3246C14.913 14.5885 14.847 14.9239 14.6463 15.1246C14.4456 15.3253 14.1102 15.3913 13.8463 15.1161L12.9906 14.2605L12.135 13.4049C12.0257 13.2955 11.9711 13.1522 11.9711 13.0089C11.9711 12.8656 12.0257 12.7223 12.135 12.613L12.9906 11.7567L13.8463 10.9005C13.8991 10.8461 13.9618 10.8035 14.0303 10.7746C14.0987 10.7457 14.173 10.7307 14.2488 10.7308Z" fill="#495965"/>
   <path d="M5.66329 21.2395C5.53762 21.2396 5.41712 21.2896 5.32825 21.3784C5.23939 21.4673 5.18942 21.5878 5.18933 21.7135V24.7937C5.18942 24.9193 5.23938 25.0398 5.32825 25.1287C5.41711 25.2176 5.53761 25.2675 5.66329 25.2676H14.431C14.5567 25.2675 14.6772 25.2176 14.766 25.1287C14.8549 25.0398 14.9049 24.9193 14.905 24.7937V21.7135C14.9049 21.5878 14.8549 21.4673 14.766 21.3784C14.6772 21.2896 14.5567 21.2396 14.431 21.2395H5.66329ZM6.13725 22.1885H13.956V24.3197H6.13725V22.1885Z" fill="#495965"/>
   <path d="M2.85387 9.6405C2.78027 9.64046 2.70737 9.65492 2.63936 9.68306C2.57134 9.71121 2.50954 9.75249 2.4575 9.80454C2.40545 9.85659 2.36417 9.91839 2.33602 9.9864C2.30787 10.0544 2.29341 10.1273 2.29346 10.2009V16.129C2.29341 16.2027 2.30787 16.2755 2.33602 16.3436C2.36417 16.4116 2.40545 16.4734 2.4575 16.5254C2.50954 16.5775 2.57134 16.6188 2.63936 16.6469C2.70737 16.675 2.78027 16.6895 2.85387 16.6895H6.45387V21.6936H7.57471V16.129C7.57475 16.0554 7.56029 15.9825 7.53214 15.9145C7.504 15.8465 7.46272 15.7847 7.41067 15.7327C7.35862 15.6806 7.29682 15.6393 7.22881 15.6112C7.16079 15.583 7.0879 15.5686 7.01429 15.5686H3.41429V10.7603H7.22262V9.6405H2.85387Z" fill="#495965"/>
   <path d="M12.4872 17.6895V21.6936H13.607V17.6895H12.4872Z" fill="#495965"/>
   <path d="M6.45386 24.8655V29.6499C6.45381 29.7235 6.46827 29.7964 6.49642 29.8644C6.52457 29.9324 6.56584 29.9942 6.61789 30.0462C6.66994 30.0983 6.73174 30.1396 6.79976 30.1677C6.86777 30.1959 6.94067 30.2103 7.01427 30.2103H13.0466C13.1202 30.2103 13.1931 30.1959 13.2611 30.1677C13.3291 30.1396 13.3909 30.0983 13.4429 30.0462C13.495 29.9942 13.5363 29.9324 13.5644 29.8644C13.5926 29.7964 13.607 29.7235 13.607 29.6499V24.9176H12.4872V29.0905H7.57469V24.8655H6.45386Z" fill="#495965"/>
   <path d="M26.2555 21.2395C26.3812 21.2396 26.5017 21.2896 26.5906 21.3784C26.6794 21.4673 26.7294 21.5878 26.7295 21.7135V24.7937C26.7294 24.9193 26.6794 25.0398 26.5906 25.1287C26.5017 25.2176 26.3812 25.2675 26.2555 25.2676H17.4878C17.3622 25.2675 17.2417 25.2176 17.1528 25.1287C17.0639 25.0398 17.014 24.9193 17.0139 24.7937V21.7135C17.014 21.5878 17.0639 21.4673 17.1528 21.3784C17.2417 21.2896 17.3622 21.2396 17.4878 21.2395H26.2555ZM25.7816 22.1885H17.9628V24.3197H25.7816V22.1885Z" fill="#495965"/>
   <path d="M29.0649 9.6405C29.1386 9.64046 29.2115 9.65492 29.2795 9.68306C29.3475 9.71121 29.4093 9.75249 29.4613 9.80454C29.5134 9.85659 29.5547 9.91839 29.5828 9.9864C29.611 10.0544 29.6254 10.1273 29.6254 10.2009V16.129C29.6254 16.2027 29.611 16.2755 29.5828 16.3436C29.5547 16.4116 29.5134 16.4734 29.4613 16.5254C29.4093 16.5775 29.3475 16.6188 29.2795 16.6469C29.2115 16.675 29.1386 16.6895 29.0649 16.6895H25.4649V21.6936H24.3441V16.129C24.3441 16.0554 24.3585 15.9825 24.3867 15.9145C24.4148 15.8465 24.4561 15.7847 24.5082 15.7327C24.5602 15.6806 24.622 15.6393 24.69 15.6112C24.758 15.583 24.8309 15.5686 24.9045 15.5686H28.5045V10.7603H24.6962V9.6405H29.0649Z" fill="#495965"/>
   <path d="M19.4316 17.6895V21.6936H18.3118V17.6895H19.4316Z" fill="#495965"/>
   <path d="M25.465 24.8655V29.6499C25.465 29.7235 25.4506 29.7964 25.4224 29.8644C25.3943 29.9324 25.353 29.9942 25.3009 30.0462C25.2489 30.0983 25.1871 30.1396 25.1191 30.1677C25.0511 30.1959 24.9782 30.2103 24.9045 30.2103H18.8723C18.7986 30.2103 18.7258 30.1959 18.6577 30.1677C18.5897 30.1396 18.5279 30.0983 18.4759 30.0462C18.4238 29.9942 18.3826 29.9324 18.3544 29.8644C18.3263 29.7964 18.3118 29.7235 18.3118 29.6499V24.9176H19.4316V29.0905H24.3441V24.8655H25.465Z" fill="#495965"/>
</svg>
