<svg width="32" height="32" viewBox="0 0 32 32" fill="none" xmlns="http://www.w3.org/2000/svg">
   <path d="M11.7926 14.4318H9.07995C8.75561 14.4318 8.49023 14.6971 8.49023 15.0215V17.4393C8.49023 17.7636 8.75561 18.029 9.07995 18.029H11.7926C12.117 18.029 12.3823 17.7636 12.3823 17.4393V15.0215C12.3823 14.6971 12.117 14.4318 11.7926 14.4318ZM11.2324 16.8496H9.66966V15.5817H11.2324V16.8496Z" fill="#495965"/>
   <path d="M17.9552 14.4318H15.2425C14.9182 14.4318 14.6528 14.6971 14.6528 15.0215V17.4393C14.6528 17.7636 14.9182 18.029 15.2425 18.029H17.9552C18.2796 18.029 18.5449 17.7636 18.5449 17.4393V15.0215C18.5449 14.6971 18.2796 14.4318 17.9552 14.4318ZM17.3655 16.8496H15.8028V15.5817H17.3655V16.8496Z" fill="#495965"/>
   <path d="M24.1177 14.4318H21.405C21.0807 14.4318 20.8153 14.6971 20.8153 15.0215V17.4393C20.8153 17.7636 21.0807 18.029 21.405 18.029H24.1177C24.442 18.029 24.7074 17.7636 24.7074 17.4393V15.0215C24.7074 14.6971 24.442 14.4318 24.1177 14.4318ZM23.528 16.8496H21.9652V15.5817H23.528V16.8496Z" fill="#495965"/>
   <path d="M29.8084 19.7687H28.4521V12.4267C28.4521 12.2498 28.3636 12.0729 28.2162 11.955L24.4715 9.18331C24.2651 9.03588 23.9997 9.03588 23.7933 9.18331L22.9382 9.80251L22.2896 4.52458C22.2601 4.22973 21.9947 4.02333 21.6998 4.02333H20.9332V2.60802C20.9332 1.6055 20.1076 0.779907 19.1051 0.779907H18.6923C17.9847 0.779907 17.6308 1.19271 17.3655 1.45808C17.1591 1.69396 17.0706 1.75293 16.8937 1.75293C16.7168 1.75293 16.6578 1.69396 16.4219 1.45808C16.186 1.19271 15.8027 0.779907 15.0951 0.779907C14.3874 0.779907 14.0336 1.19271 13.7682 1.45808C13.5618 1.69396 13.4734 1.75293 13.2964 1.75293C13.1195 1.75293 13.0606 1.69396 12.8247 1.45808C12.5888 1.19271 12.2055 0.779907 11.4978 0.779907C10.7902 0.779907 10.4363 1.19271 10.171 1.45808C9.96457 1.69396 9.87611 1.75293 9.6992 1.75293C9.52228 1.75293 9.46331 1.69396 9.22743 1.45808C8.99154 1.19271 8.60823 0.779907 7.90057 0.779907C7.19292 0.779907 6.83909 1.19271 6.57372 1.45808C6.36732 1.69396 6.27886 1.75293 6.10195 1.75293C5.77761 1.75293 5.51224 2.0183 5.51224 2.34265C5.51224 2.66699 5.77761 2.93236 6.10195 2.93236C6.80961 2.93236 7.16343 2.51956 7.4288 2.25419C7.6352 2.0183 7.72366 1.95933 7.90057 1.95933C8.07749 1.95933 8.13646 2.0183 8.37234 2.25419C8.60823 2.51956 8.99154 2.93236 9.6992 2.93236C10.4069 2.93236 10.7607 2.51956 11.026 2.25419C11.2324 2.0183 11.3209 1.95933 11.4978 1.95933C11.6747 1.95933 11.7337 2.0183 11.9696 2.25419C12.2055 2.51956 12.5888 2.93236 13.2964 2.93236C14.0041 2.93236 14.3579 2.51956 14.6233 2.25419C14.8297 2.0183 14.9182 1.95933 15.0951 1.95933C15.272 1.95933 15.331 2.0183 15.5668 2.25419C15.8027 2.51956 16.186 2.93236 16.8937 2.93236C17.6013 2.93236 17.9552 2.51956 18.2205 2.25419C18.4269 2.0183 18.5154 1.95933 18.6923 1.95933H19.1051C19.4884 1.95933 19.7833 2.25419 19.7833 2.6375V4.02333H19.0167C18.7218 4.02333 18.4859 4.22973 18.4269 4.52458L17.7783 9.80251L16.9527 9.18331C16.7463 9.03588 16.4809 9.03588 16.2745 9.18331L15.272 9.92045L14.7707 5.88092C14.7412 5.58606 14.4759 5.37967 14.181 5.37967H11.4978C11.203 5.37967 10.9671 5.58606 10.9081 5.88092L10.4069 9.92045L9.43383 9.18331C9.22743 9.03588 8.96206 9.03588 8.75566 9.18331L4.9815 11.955C4.83407 12.0729 4.74561 12.2498 4.74561 12.4267V19.7687H3.38927C3.06493 19.7687 2.79956 20.034 2.79956 20.3584C2.79956 20.6827 3.06493 20.9481 3.38927 20.9481H29.8084C30.1327 20.9481 30.3981 20.6827 30.3981 20.3584C30.3981 20.034 30.1327 19.7687 29.8084 19.7687ZM19.5474 5.17327H21.1986L21.8473 10.5986L20.373 11.6896L18.8987 10.5986L19.5474 5.17327ZM11.9991 6.55909H13.6503L14.1515 10.746L12.8247 11.7191L11.4978 10.746L11.9991 6.55909ZM5.89555 12.7216L9.08 10.3627L12.5003 12.869C12.7067 13.0164 12.9721 13.0164 13.1785 12.869L16.5988 10.3627L20.0192 12.869C20.2256 13.0164 20.4909 13.0164 20.6973 12.869L24.1177 10.3627L27.3021 12.7216V19.7687H5.89555V12.7216Z" fill="#495965"/>
   <path d="M14.2573 22.5972C14.2258 22.5977 14.1945 22.6008 14.1636 22.6066C14.1636 22.6066 13.7571 22.6754 13.3438 22.9535C12.9304 23.2315 12.4672 23.7508 12.2802 24.5628C12.0895 25.3914 12.4242 26.0459 12.7719 26.4691C13.1196 26.8923 13.4465 27.2011 13.6542 27.8399C13.8345 28.3945 13.6445 28.6469 13.3698 28.9045C13.0951 29.1621 12.7563 29.2941 12.7563 29.2941C12.6843 29.317 12.6177 29.3543 12.5605 29.4036C12.5033 29.4529 12.4567 29.5133 12.4235 29.5812C12.3902 29.649 12.371 29.7228 12.3671 29.7982C12.3631 29.8737 12.3744 29.9491 12.4003 30.0201C12.4263 30.091 12.4663 30.1559 12.518 30.211C12.5697 30.2661 12.632 30.3101 12.7012 30.3405C12.7703 30.3709 12.8449 30.3869 12.9204 30.3877C12.996 30.3885 13.0709 30.374 13.1406 30.3451C13.1406 30.3451 13.6685 30.1601 14.1365 29.7212C14.6044 29.2822 15.0334 28.4584 14.7198 27.4941C14.4336 26.614 13.9243 26.1077 13.6375 25.7587C13.3507 25.4096 13.2521 25.3344 13.3719 24.8139C13.4955 24.2769 13.7467 24.032 13.9688 23.8826C14.1908 23.7333 14.3417 23.7118 14.3417 23.7118C14.4826 23.6919 14.6106 23.6192 14.6998 23.5083C14.789 23.3975 14.8326 23.2568 14.8219 23.1149C14.8112 22.9731 14.7468 22.8406 14.642 22.7445C14.5371 22.6483 14.3996 22.5956 14.2573 22.5972Z" fill="#495965"/>
   <path d="M17.4573 22.5972C17.4258 22.5977 17.3944 22.6008 17.3635 22.6066C17.3635 22.6066 16.9571 22.6754 16.5437 22.9535C16.1304 23.2315 15.6671 23.7508 15.4802 24.5628C15.2894 25.3914 15.6242 26.0459 15.9718 26.4691C16.3195 26.8923 16.6464 27.2011 16.8541 27.8399C17.0345 28.3945 16.8444 28.6469 16.5698 28.9045C16.2951 29.1621 15.9562 29.2941 15.9562 29.2941C15.8843 29.317 15.8177 29.3543 15.7605 29.4036C15.7033 29.4529 15.6567 29.5133 15.6234 29.5812C15.5902 29.649 15.571 29.7228 15.567 29.7982C15.563 29.8737 15.5744 29.9491 15.6003 30.0201C15.6262 30.091 15.6663 30.1559 15.718 30.211C15.7697 30.2661 15.832 30.3101 15.9011 30.3405C15.9703 30.3709 16.0448 30.3869 16.1204 30.3877C16.1959 30.3885 16.2708 30.374 16.3406 30.3451C16.3406 30.3451 16.8685 30.1601 17.3364 29.7212C17.8044 29.2822 18.2333 28.4584 17.9198 27.4941C17.6336 26.614 17.1242 26.1077 16.8375 25.7587C16.5507 25.4096 16.452 25.3344 16.5718 24.8139C16.6955 24.2769 16.9467 24.032 17.1687 23.8826C17.3908 23.7333 17.5416 23.7118 17.5416 23.7118C17.6825 23.6919 17.8106 23.6192 17.8997 23.5083C17.9889 23.3975 18.0326 23.2568 18.0219 23.1149C18.0111 22.9731 17.9468 22.8406 17.8419 22.7445C17.7371 22.6483 17.5995 22.5956 17.4573 22.5972Z" fill="#495965"/>
   <path d="M20.6573 22.5972C20.6259 22.5977 20.5945 22.6008 20.5636 22.6066C20.5636 22.6066 20.1572 22.6754 19.7438 22.9535C19.3304 23.2315 18.8672 23.7508 18.6802 24.5628C18.4895 25.3914 18.8242 26.0459 19.1719 26.4691C19.5196 26.8923 19.8465 27.2011 20.0542 27.8399C20.2345 28.3945 20.0445 28.6469 19.7698 28.9045C19.4952 29.1621 19.1563 29.2941 19.1563 29.2941C19.0843 29.317 19.0177 29.3543 18.9606 29.4036C18.9034 29.4529 18.8567 29.5133 18.8235 29.5812C18.7902 29.649 18.7711 29.7228 18.7671 29.7982C18.7631 29.8737 18.7744 29.9491 18.8004 30.0201C18.8263 30.091 18.8663 30.1559 18.918 30.211C18.9697 30.2661 19.032 30.3101 19.1012 30.3405C19.1703 30.3709 19.2449 30.3869 19.3204 30.3877C19.396 30.3885 19.4709 30.374 19.5407 30.3451C19.5407 30.3451 20.0685 30.1601 20.5365 29.7212C21.0045 29.2822 21.4334 28.4584 21.1198 27.4941C20.8337 26.614 20.3243 26.1077 20.0375 25.7587C19.7508 25.4096 19.6521 25.3344 19.7719 24.8139C19.8955 24.2769 20.1467 24.032 20.3688 23.8826C20.5908 23.7333 20.7417 23.7118 20.7417 23.7118C20.8826 23.6919 21.0106 23.6192 21.0998 23.5083C21.189 23.3975 21.2327 23.2568 21.2219 23.1149C21.2112 22.9731 21.1469 22.8406 21.042 22.7445C20.9371 22.6483 20.7996 22.5956 20.6573 22.5972Z" fill="#495965"/>
</svg>