<svg width="32" height="32" viewBox="0 0 32 32" fill="none" xmlns="http://www.w3.org/2000/svg">
   <path d="M5.83453 4.41828C5.68604 4.42065 5.54457 4.48191 5.44123 4.58856C5.3379 4.69522 5.28116 4.83854 5.28349 4.98703V23.9047C5.2817 23.9794 5.29485 24.0536 5.32219 24.1231C5.34952 24.1926 5.3905 24.256 5.44266 24.3094C5.49483 24.3628 5.55715 24.4053 5.62597 24.4343C5.69478 24.4633 5.76871 24.4782 5.84338 24.4782C5.91806 24.4782 5.99198 24.4633 6.0608 24.4343C6.12961 24.4053 6.19193 24.3628 6.2441 24.3094C6.29627 24.256 6.33724 24.1926 6.36457 24.1231C6.39191 24.0536 6.40506 23.9794 6.40328 23.9047V4.98703C6.40445 4.91202 6.39053 4.83752 6.36236 4.76799C6.33419 4.69845 6.29236 4.63529 6.23931 4.58225C6.18626 4.5292 6.1231 4.48737 6.05357 4.4592C5.98404 4.43103 5.90954 4.41711 5.83453 4.41828Z" fill="#495965"/>
   <path d="M17.2668 4.41828C17.1183 4.42065 16.9768 4.48191 16.8735 4.58856C16.7701 4.69522 16.7134 4.83855 16.7157 4.98703V23.9047C16.714 23.9794 16.7271 24.0536 16.7544 24.1231C16.7818 24.1926 16.8227 24.256 16.8749 24.3094C16.9271 24.3628 16.9894 24.4053 17.0582 24.4343C17.127 24.4633 17.201 24.4782 17.2756 24.4782C17.3503 24.4782 17.4242 24.4633 17.493 24.4343C17.5619 24.4053 17.6242 24.3628 17.6763 24.3094C17.7285 24.256 17.7695 24.1926 17.7968 24.1231C17.8242 24.0536 17.8373 23.9794 17.8355 23.9047V4.98703C17.8367 4.91202 17.8228 4.83752 17.7946 4.76799C17.7664 4.69845 17.7246 4.63529 17.6716 4.58225C17.6185 4.5292 17.5554 4.48737 17.4858 4.4592C17.4163 4.43103 17.3418 4.41711 17.2668 4.41828Z" fill="#495965"/>
   <path d="M6.22517 13.8204C6.15052 13.8186 6.07627 13.8317 6.00678 13.8591C5.93729 13.8864 5.87395 13.9274 5.82052 13.9795C5.76709 14.0317 5.72463 14.094 5.69565 14.1628C5.66666 14.2316 5.65173 14.3056 5.65173 14.3802C5.65173 14.4549 5.66666 14.5288 5.69565 14.5977C5.72463 14.6665 5.76709 14.7288 5.82052 14.781C5.87395 14.8331 5.93729 14.8741 6.00678 14.9014C6.07627 14.9288 6.15052 14.9419 6.22517 14.9401H17.2252C17.2998 14.9419 17.3741 14.9288 17.4436 14.9014C17.5131 14.8741 17.5764 14.8331 17.6298 14.781C17.6833 14.7288 17.7257 14.6665 17.7547 14.5977C17.7837 14.5288 17.7986 14.4549 17.7986 14.3802C17.7986 14.3056 17.7837 14.2316 17.7547 14.1628C17.7257 14.094 17.6833 14.0317 17.6298 13.9795C17.5764 13.9274 17.5131 13.8864 17.4436 13.8591C17.3741 13.8317 17.2998 13.8186 17.2252 13.8204H6.22517Z" fill="#495965"/>
   <path d="M24.3648 16.2037C22.86 16.1913 21.9382 17.0499 21.52 17.859C21.1017 18.668 21.0794 19.4642 21.0794 19.4642C21.0742 19.539 21.084 19.6141 21.1084 19.6851C21.1328 19.756 21.1712 19.8213 21.2213 19.8772C21.2715 19.933 21.3323 19.9781 21.4002 20.01C21.4681 20.0419 21.5417 20.0598 21.6167 20.0626C21.6917 20.0655 21.7664 20.0533 21.8366 20.0267C21.9067 20.0001 21.9708 19.9597 22.0251 19.9078C22.0793 19.856 22.1225 19.7938 22.1523 19.7249C22.182 19.656 22.1976 19.5819 22.1981 19.5069C22.1981 19.5069 22.2267 18.9308 22.5148 18.3735C22.8028 17.8163 23.2418 17.3143 24.3554 17.3235C25.4711 17.3327 25.9637 17.7039 26.27 18.1517C26.5763 18.5994 26.6631 19.1949 26.6648 19.5871C26.6685 20.472 26.4636 20.9841 25.8106 22.0204C24.1616 24.6374 21.5335 26.2975 21.5335 26.2975C21.4307 26.3621 21.3516 26.4583 21.3082 26.5717C21.2648 26.6852 21.2595 26.8096 21.293 26.9263C21.3265 27.0431 21.397 27.1457 21.4939 27.2189C21.5909 27.292 21.709 27.3317 21.8304 27.3319H27.9387C28.0134 27.3337 28.0876 27.3205 28.1571 27.2932C28.2266 27.2658 28.29 27.2249 28.3434 27.1727C28.3968 27.1206 28.4393 27.0582 28.4683 26.9894C28.4972 26.9206 28.5122 26.8467 28.5122 26.772C28.5122 26.6973 28.4972 26.6234 28.4683 26.5546C28.4393 26.4857 28.3968 26.4234 28.3434 26.3713C28.29 26.3191 28.2266 26.2782 28.1571 26.2508C28.0876 26.2235 28.0134 26.2103 27.9387 26.2121H23.4991C24.4795 25.4244 25.7022 24.2921 26.7575 22.6173C27.4519 21.5152 27.7893 20.6737 27.7846 19.5819C27.7824 19.0514 27.6922 18.2462 27.195 17.5194C26.6977 16.7925 25.7592 16.2152 24.3648 16.2037Z" fill="#495965"/>
</svg>