<svg width="32" height="32" viewBox="0 0 32 32" fill="none" xmlns="http://www.w3.org/2000/svg">
   <path d="M5.80386 14.6702C5.65543 14.6725 5.51396 14.7335 5.41053 14.84C5.30711 14.9465 5.2502 15.0897 5.25229 15.2381V24.1793C5.25091 24.2537 5.26437 24.3277 5.29189 24.3968C5.31941 24.466 5.36043 24.5289 5.41257 24.5821C5.4647 24.6352 5.5269 24.6774 5.59552 24.7062C5.66415 24.735 5.73783 24.7498 5.81225 24.7498C5.88668 24.7498 5.96035 24.735 6.02898 24.7062C6.09761 24.6774 6.15981 24.6352 6.21194 24.5821C6.26407 24.5289 6.3051 24.466 6.33262 24.3968C6.36014 24.3277 6.3736 24.2537 6.37221 24.1793V15.2381C6.37327 15.1632 6.35929 15.0889 6.33109 15.0195C6.3029 14.95 6.26107 14.887 6.20807 14.8341C6.15508 14.7811 6.092 14.7393 6.02256 14.7112C5.95313 14.683 5.87876 14.6691 5.80386 14.6702Z" fill="#495965"/>
   <path d="M11.2073 14.6702C11.0589 14.6725 10.9174 14.7335 10.814 14.84C10.7106 14.9465 10.6536 15.0897 10.6557 15.2381V24.1793C10.6544 24.2537 10.6678 24.3277 10.6953 24.3968C10.7228 24.466 10.7639 24.5289 10.816 24.5821C10.8681 24.6352 10.9303 24.6774 10.999 24.7062C11.0676 24.735 11.1413 24.7498 11.2157 24.7498C11.2901 24.7498 11.3638 24.735 11.4324 24.7062C11.5011 24.6774 11.5632 24.6352 11.6154 24.5821C11.6675 24.5289 11.7085 24.466 11.7361 24.3968C11.7636 24.3277 11.777 24.2537 11.7757 24.1793V15.2381C11.7767 15.1632 11.7627 15.0889 11.7345 15.0195C11.7063 14.95 11.6645 14.887 11.6115 14.8341C11.5585 14.7811 11.4954 14.7393 11.426 14.7112C11.3566 14.683 11.2822 14.6691 11.2073 14.6702Z" fill="#495965"/>
   <path d="M5.99272 19.1177C5.9183 19.1163 5.84436 19.1297 5.77521 19.1572C5.70606 19.1848 5.64309 19.2258 5.58998 19.2779C5.53687 19.3301 5.49468 19.3923 5.46587 19.4609C5.43707 19.5295 5.42224 19.6032 5.42224 19.6776C5.42224 19.752 5.43707 19.8257 5.46587 19.8943C5.49468 19.963 5.53687 20.0252 5.58998 20.0773C5.64309 20.1294 5.70606 20.1705 5.77521 20.198C5.84436 20.2255 5.9183 20.239 5.99272 20.2376H11.1919C11.2663 20.239 11.3403 20.2255 11.4094 20.198C11.4786 20.1705 11.5415 20.1294 11.5947 20.0773C11.6478 20.0252 11.69 19.963 11.7188 19.8943C11.7476 19.8257 11.7624 19.752 11.7624 19.6776C11.7624 19.6032 11.7476 19.5295 11.7188 19.4609C11.69 19.3923 11.6478 19.3301 11.5947 19.2779C11.5415 19.2258 11.4786 19.1848 11.4094 19.1572C11.3403 19.1297 11.2663 19.1163 11.1919 19.1177H5.99272Z" fill="#495965"/>
   <path d="M15.2149 20.2444C14.4005 20.2377 13.8376 20.7376 13.6056 21.1864C13.3736 21.6351 13.3646 22.0698 13.3646 22.0698C13.36 22.1443 13.3704 22.2189 13.3951 22.2894C13.4198 22.3598 13.4584 22.4246 13.5085 22.4799C13.5586 22.5353 13.6193 22.58 13.6869 22.6116C13.7546 22.6431 13.8279 22.6608 13.9025 22.6636C13.9771 22.6664 14.0515 22.6543 14.1213 22.6279C14.1912 22.6016 14.255 22.5615 14.3092 22.5101C14.3633 22.4588 14.4066 22.3971 14.4366 22.3287C14.4665 22.2603 14.4825 22.1866 14.4836 22.112C14.4836 22.112 14.4989 21.8976 14.6007 21.7007C14.7025 21.5037 14.7827 21.3608 15.2058 21.3643C15.6596 21.3681 15.7751 21.4891 15.8695 21.6272C15.964 21.7652 16.0037 21.9913 16.0043 22.1401C16.0059 22.5038 15.9434 22.6591 15.6457 23.1316C14.9113 24.2971 13.7178 25.06 13.7178 25.06C13.6148 25.1245 13.5357 25.2208 13.4922 25.3342C13.4488 25.4477 13.4434 25.5722 13.4769 25.689C13.5104 25.8058 13.581 25.9085 13.678 25.9816C13.775 26.0548 13.8931 26.0944 14.0146 26.0946H16.9014C16.9758 26.096 17.0497 26.0825 17.1189 26.055C17.188 26.0275 17.251 25.9864 17.3041 25.9343C17.3572 25.8822 17.3994 25.82 17.4282 25.7513C17.457 25.6827 17.4718 25.609 17.4718 25.5346C17.4718 25.4602 17.457 25.3865 17.4282 25.3179C17.3994 25.2493 17.3572 25.1871 17.3041 25.1349C17.251 25.0828 17.188 25.0418 17.1189 25.0142C17.0497 24.9867 16.9758 24.9733 16.9014 24.9746H15.5613C15.9134 24.6283 16.2778 24.2297 16.5936 23.7285C16.9327 23.1903 17.1267 22.7057 17.1243 22.1351C17.123 21.8479 17.0791 21.4119 16.7938 20.9948C16.5084 20.5777 15.9475 20.2504 15.2149 20.2444Z" fill="#495965"/>
   <path d="M7.11123 5.22021C5.83854 5.22021 4.79626 6.26249 4.79626 7.53518V8.38793C4.79626 9.66061 5.83854 10.7029 7.11123 10.7029H15.0955C16.3682 10.7029 17.4104 9.66061 17.4104 8.38793V7.53518C17.4104 6.26249 16.3682 5.22021 15.0955 5.22021H7.11123ZM7.11123 6.3399H15.0955C15.7671 6.3399 16.2908 6.8636 16.2908 7.53518V8.38793C16.2908 9.0595 15.7671 9.58321 15.0955 9.58321H7.11123C6.43965 9.58321 5.91595 9.0595 5.91595 8.38793V7.53518C5.91595 6.8636 6.43965 6.3399 7.11123 6.3399Z" fill="#495965"/>
   <path d="M26.9208 4.30607C26.7996 4.30703 26.682 4.34727 26.5856 4.42074C26.4893 4.49421 26.4193 4.59696 26.3863 4.71355C26.3533 4.83015 26.359 4.95431 26.4026 5.06739C26.4461 5.18048 26.5252 5.27638 26.6279 5.34072C26.6279 5.34072 29.1319 7.0248 29.0255 9.44151C28.9621 10.8802 28.9573 14.478 28.9688 17.7399C28.9746 19.3709 28.9837 20.9111 28.9948 22.0439C29.0003 22.6103 29.006 23.0746 29.0113 23.3974C29.014 23.5588 29.0159 23.6847 29.0184 23.773C29.0197 23.8171 29.0216 23.8517 29.0232 23.8817C29.0233 23.8843 29.023 23.8886 29.0232 23.8911C29.0234 23.8935 29.0419 24.1128 28.7751 24.4226C28.507 24.734 27.9192 25.1336 26.4484 25.1336C24.983 25.1336 24.3473 24.7176 24.0318 24.3683C23.7164 24.0189 23.7106 23.7494 23.7106 23.7494V14.7328C23.7106 13.9712 23.4458 13.3432 23.0468 12.9045C22.6477 12.4657 22.1418 12.2103 21.6649 12.0541C20.7112 11.7418 19.7988 11.8037 19.7988 11.8037C19.7233 11.8049 19.6488 11.8213 19.5798 11.852C19.5108 11.8826 19.4487 11.927 19.3973 11.9823C19.3459 12.0375 19.3061 12.1027 19.2805 12.1737C19.2549 12.2447 19.2439 12.3202 19.2482 12.3956C19.2525 12.471 19.272 12.5447 19.3056 12.6124C19.3391 12.68 19.386 12.7402 19.4433 12.7893C19.5007 12.8384 19.5674 12.8753 19.6395 12.898C19.7115 12.9206 19.7874 12.9285 19.8625 12.921C19.8625 12.921 20.6113 12.8881 21.3176 13.1194C21.6708 13.2351 21.9942 13.4123 22.2176 13.658C22.4411 13.9037 22.5909 14.213 22.5909 14.7328V23.8108L22.5933 23.832C22.5933 23.832 22.6564 24.5147 23.2004 25.1171C23.7443 25.7195 24.7578 26.2533 26.4484 26.2533C28.1336 26.2533 29.1137 25.7493 29.6256 25.1549C29.9963 24.7243 29.9703 24.459 30.0012 24.2289C30.0021 24.2289 30.0224 24.2313 30.0224 24.2313L30.0035 24.2242C30.0148 24.1388 30.1453 23.8769 30.1453 23.8769L30.1311 22.3061L30.1169 22.3226C30.1157 22.2115 30.1157 22.1553 30.1145 22.0344C30.1034 20.9046 30.0943 19.3638 30.0885 17.7352C30.077 14.478 30.0854 10.8491 30.1452 9.4911C30.2851 6.31442 27.2373 4.40055 27.2373 4.40055C27.1437 4.33795 27.0334 4.30503 26.9208 4.30607Z" fill="#495965"/>
   <path d="M27.4452 7.79504C26.0212 7.79504 24.8562 8.96002 24.8562 10.384C24.8562 11.808 26.0212 12.9754 27.4452 12.9754C28.8692 12.9754 30.0365 11.808 30.0365 10.384C30.0365 8.96002 28.8692 7.79504 27.4452 7.79504ZM27.4452 8.91473C28.2639 8.91473 28.9168 9.56532 28.9168 10.384C28.9168 11.2027 28.2639 11.8557 27.4452 11.8557C26.6265 11.8557 25.9759 11.2027 25.9759 10.384C25.9759 9.56532 26.6265 8.91473 27.4452 8.91473Z" fill="#495965"/>
   <path d="M5.29234 1.96275C3.76874 1.96275 2.83762 2.83212 2.41281 3.64937C1.988 4.46662 1.96399 5.26984 1.96399 5.26984V5.2817V28.6203H3.08367V5.31472C3.08367 5.31472 3.11268 4.73347 3.4073 4.16669C3.70191 3.59991 4.15746 3.0848 5.29234 3.0848H17.0845C18.1183 3.0848 18.5033 3.53477 18.7593 4.03441C19.0152 4.53404 19.0356 5.05016 19.0356 5.05016V28.7549H20.1553V5.0289V5.02176C20.1553 5.02176 20.1436 4.28049 19.7561 3.52412C19.3686 2.76776 18.501 1.96271 17.0845 1.96271L5.29234 1.96275Z" fill="#495965"/>
   <path d="M1.44906 28.4195C1.37424 28.4174 1.29976 28.4303 1.23003 28.4576C1.1603 28.4848 1.09673 28.5257 1.04308 28.5779C0.989426 28.63 0.946781 28.6925 0.91766 28.7614C0.88854 28.8304 0.873535 28.9045 0.873535 28.9793C0.873535 29.0542 0.88854 29.1282 0.91766 29.1972C0.946781 29.2661 0.989426 29.3286 1.04308 29.3808C1.09673 29.4329 1.1603 29.4739 1.23003 29.5011C1.29976 29.5283 1.37424 29.5412 1.44906 29.5391H20.6703C20.7451 29.5412 20.8196 29.5283 20.8893 29.5011C20.9591 29.4739 21.0226 29.4329 21.0763 29.3808C21.13 29.3286 21.1726 29.2661 21.2017 29.1972C21.2308 29.1282 21.2458 29.0542 21.2458 28.9793C21.2458 28.9045 21.2308 28.8304 21.2017 28.7614C21.1726 28.6925 21.13 28.63 21.0763 28.5779C21.0226 28.5257 20.9591 28.4848 20.8893 28.4576C20.8196 28.4303 20.7451 28.4174 20.6703 28.4195H1.44906Z" fill="#495965"/>
</svg>
