<svg width="32" height="32" viewBox="0 0 32 32" fill="none" xmlns="http://www.w3.org/2000/svg">
   <path d="M4.5897 5.38245C3.29092 5.38245 2.22986 6.44587 2.22986 7.74465V20.9092C2.22986 22.208 3.29092 23.2714 4.5897 23.2714H27.4629C28.7617 23.2714 29.8251 22.208 29.8251 20.9092V7.74465C29.8251 6.44587 28.7617 5.38245 27.4629 5.38245H4.5897ZM4.5897 6.50213H27.4629C28.1606 6.50213 28.7054 7.04697 28.7054 7.74465V20.9092C28.7054 21.6069 28.1606 22.1517 27.4629 22.1517H4.5897C3.89202 22.1517 3.34954 21.6069 3.34954 20.9092V7.74465C3.34954 7.04697 3.89202 6.50213 4.5897 6.50213Z" fill="#495965"/>
   <path d="M8.82277 22.2438V26.4415C8.82277 26.4415 8.81504 26.6111 8.73301 26.7675C8.65096 26.9238 8.59109 27.0509 8.16136 27.0509C7.73183 27.0509 7.67416 26.9239 7.59207 26.7675C7.51053 26.6121 7.5023 26.4438 7.5023 26.4438V22.31H6.38026V26.4438V26.4463C6.38026 26.4463 6.3759 26.8604 6.59994 27.2872C6.82395 27.714 7.37397 28.1707 8.16136 28.1707C8.94886 28.1707 9.50115 27.7141 9.72514 27.2872C9.94912 26.8603 9.94246 26.4463 9.94246 26.4463V26.4438V22.2438H8.82277Z" fill="#495965"/>
   <path d="M24.822 22.2438V26.4415C24.822 26.4415 24.8143 26.6111 24.7323 26.7675C24.6502 26.9238 24.5927 27.0509 24.163 27.0509C23.7334 27.0509 23.6734 26.9239 23.5913 26.7675C23.5098 26.6121 23.5015 26.4438 23.5015 26.4438V22.31H22.3819V26.4438V26.4463C22.3819 26.4463 22.3752 26.8604 22.5992 27.2872C22.8232 27.714 23.3756 28.1707 24.163 28.1707C24.9505 28.1707 25.5004 27.7141 25.7244 27.2872C25.9484 26.8603 25.9417 26.4463 25.9417 26.4463V26.4438V22.2438H24.822Z" fill="#495965"/>
   <path d="M10.6865 8.62578C10.538 8.6277 10.3964 8.6885 10.2928 8.79481C10.1891 8.90112 10.1319 9.04424 10.1338 9.1927V18.0462C10.1317 18.1211 10.1446 18.1955 10.1718 18.2653C10.1991 18.335 10.24 18.3986 10.2921 18.4522C10.3443 18.5059 10.4068 18.5485 10.4757 18.5777C10.5447 18.6068 10.6188 18.6218 10.6936 18.6218C10.7685 18.6218 10.8425 18.6068 10.9115 18.5777C10.9804 18.5485 11.0429 18.5059 11.0951 18.4522C11.1472 18.3986 11.1881 18.335 11.2154 18.2653C11.2426 18.1955 11.2555 18.1211 11.2534 18.0462V9.1927C11.2544 9.118 11.2403 9.04386 11.2122 8.97466C11.184 8.90546 11.1423 8.8426 11.0894 8.78977C11.0366 8.73694 10.9738 8.69521 10.9046 8.66705C10.8354 8.63888 10.7612 8.62485 10.6865 8.62578Z" fill="#495965"/>
   <path d="M16.0346 8.62575C15.8866 8.62829 15.7455 8.68936 15.6424 8.79561C15.5393 8.90185 15.4824 9.04461 15.4842 9.19268V18.0462C15.4822 18.121 15.4951 18.1955 15.5223 18.2653C15.5495 18.335 15.5904 18.3985 15.6426 18.4522C15.6948 18.5058 15.7572 18.5485 15.8262 18.5776C15.8951 18.6067 15.9692 18.6217 16.0441 18.6217C16.1189 18.6217 16.193 18.6067 16.262 18.5776C16.3309 18.5485 16.3933 18.5058 16.4455 18.4522C16.4977 18.3985 16.5386 18.335 16.5658 18.2653C16.593 18.1955 16.606 18.121 16.6039 18.0462V9.19268C16.6048 9.11777 16.5907 9.04344 16.5624 8.97408C16.5341 8.90472 16.4922 8.84175 16.4391 8.78889C16.386 8.73603 16.3229 8.69435 16.2534 8.66633C16.1839 8.63831 16.1095 8.62451 16.0346 8.62575Z" fill="#495965"/>
   <path d="M10.8732 13.0289C10.7983 13.0268 10.7239 13.0398 10.6541 13.067C10.5844 13.0942 10.5208 13.1351 10.4672 13.1873C10.4135 13.2395 10.3709 13.3019 10.3417 13.3708C10.3126 13.4398 10.2976 13.5139 10.2976 13.5887C10.2976 13.6636 10.3126 13.7377 10.3417 13.8066C10.3709 13.8756 10.4135 13.938 10.4672 13.9902C10.5208 14.0424 10.5844 14.0833 10.6541 14.1105C10.7239 14.1377 10.7983 14.1507 10.8732 14.1486H16.0204C16.0952 14.1507 16.1697 14.1377 16.2394 14.1105C16.3092 14.0833 16.3727 14.0424 16.4264 13.9902C16.48 13.938 16.5227 13.8756 16.5518 13.8066C16.5809 13.7377 16.5959 13.6636 16.5959 13.5887C16.5959 13.5139 16.5809 13.4398 16.5518 13.3708C16.5227 13.3019 16.48 13.2395 16.4264 13.1873C16.3727 13.1351 16.3092 13.0942 16.2394 13.067C16.1697 13.0398 16.0952 13.0268 16.0204 13.0289H10.8732Z" fill="#495965"/>
   <path d="M20.0031 14.1439C19.1948 14.1366 18.6366 14.6337 18.4062 15.0793C18.1759 15.5249 18.1653 15.9581 18.1653 15.9581C18.1626 16.0316 18.1745 16.1049 18.2002 16.1739C18.2259 16.2428 18.2649 16.306 18.315 16.3598C18.3652 16.4137 18.4254 16.4572 18.4923 16.4877C18.5592 16.5183 18.6315 16.5354 18.705 16.538C18.7786 16.5407 18.8519 16.5288 18.9208 16.5031C18.9898 16.4774 19.053 16.4384 19.1068 16.3882C19.1607 16.3381 19.2041 16.2779 19.2347 16.2109C19.2653 16.144 19.2823 16.0717 19.285 15.9982C19.285 15.9982 19.3005 15.788 19.4007 15.5943C19.5009 15.4005 19.579 15.2601 19.996 15.2636C20.4439 15.2672 20.5554 15.3881 20.648 15.5234C20.7405 15.6587 20.7796 15.8798 20.7802 16.0266C20.7817 16.3857 20.7204 16.5371 20.4259 17.0045C19.6996 18.1572 18.5196 18.9132 18.5196 18.9132C18.4168 18.9776 18.3376 19.0737 18.2941 19.187C18.2506 19.3004 18.2451 19.4248 18.2784 19.5415C18.3117 19.6582 18.3821 19.7609 18.4788 19.8342C18.5756 19.9075 18.6935 19.9474 18.8149 19.9478H21.6732C21.748 19.9499 21.8224 19.9369 21.8921 19.9097C21.9618 19.8825 22.0254 19.8415 22.079 19.7894C22.1326 19.7372 22.1753 19.6748 22.2044 19.6058C22.2335 19.5369 22.2485 19.4628 22.2485 19.388C22.2485 19.3131 22.2335 19.2391 22.2044 19.1701C22.1753 19.1012 22.1326 19.0388 22.079 18.9866C22.0254 18.9344 21.9618 18.8935 21.8921 18.8663C21.8224 18.8391 21.748 18.8261 21.6732 18.8281H20.1472C20.6163 18.4411 20.8868 18.374 21.3732 17.6021C21.7091 17.0689 21.9023 16.5877 21.8999 16.0218C21.8987 15.7368 21.855 15.3047 21.5716 14.8903C21.2881 14.476 20.7298 14.1499 20.0031 14.1439Z" fill="#495965"/>
   <path d="M2.44482 12.3911C2.44482 12.3911 1.94275 12.386 1.42907 12.6557C0.915397 12.9253 0.373169 13.5674 0.373169 14.536C0.373169 15.5048 0.917711 16.1468 1.43144 16.4163C1.94517 16.6859 2.44482 16.6809 2.44482 16.6809L2.44966 15.5612C2.44966 15.5612 2.19446 15.5515 1.95123 15.4242C1.708 15.2966 1.49296 15.147 1.49296 14.536C1.49296 13.9252 1.70795 13.7755 1.95123 13.6478C2.19453 13.5201 2.44966 13.5132 2.44966 13.5132L2.44482 12.3911Z" fill="#495965"/>
   <path d="M29.6244 12.3911L29.6219 13.5132C29.6219 13.5132 29.8771 13.5204 30.1204 13.6478C30.3637 13.7755 30.5763 13.9252 30.5763 14.536C30.5763 15.147 30.3636 15.2966 30.1204 15.4242C29.8771 15.5518 29.6219 15.5612 29.6219 15.5612L29.6244 16.6809C29.6244 16.6809 30.1264 16.6857 30.6401 16.4163C31.1538 16.1468 31.696 15.5048 31.696 14.536C31.696 13.5674 31.1538 12.9253 30.6401 12.6557C30.1264 12.3861 29.6244 12.3911 29.6244 12.3911Z" fill="#495965"/>
</svg>
