<svg width="32" height="32" viewBox="0 0 32 32" fill="none" xmlns="http://www.w3.org/2000/svg">
   <path d="M14.3689 0.472954C14.2413 0.468117 14.1159 0.506327 14.0133 0.58228L9.90076 3.63296V2.03983C9.90107 1.73057 9.65066 1.47957 9.34139 1.47918H6.65701C6.3475 1.47922 6.09667 1.73032 6.097 2.03983V6.45481L3.86763 8.10858C3.72499 8.21416 3.64082 8.38108 3.64075 8.55854V25.3948C3.64043 25.7043 3.89123 25.9554 4.20076 25.9554H21.797V30.6042C21.7974 30.9132 22.048 31.1635 22.357 31.1636H26.6508C26.9595 31.1632 27.2098 30.913 27.2101 30.6042V23.8023C27.401 23.7824 27.4494 23.8034 27.7051 23.7291C27.977 23.6502 28.2709 23.5323 28.532 23.3066C28.7931 23.0809 29.0064 22.7069 29.0064 22.2866V17.8416C29.0064 17.8416 29.026 17.3852 28.7945 16.9104C28.5631 16.4356 27.9738 15.9241 27.1033 15.9241H25.5664C25.2519 15.9244 24.9993 16.1835 25.007 16.4979C25.007 16.4979 25.0022 16.6369 24.9439 16.7566C24.8855 16.8764 24.8801 16.9585 24.532 16.9585C24.1878 16.9585 24.1302 16.8517 24.047 16.7085C23.9638 16.5653 23.9458 16.4179 23.9458 16.4179C23.9224 16.1244 23.6758 15.8991 23.3814 15.9023C23.3814 15.9023 22.3637 15.9132 21.8645 15.9132C21.0369 15.9132 20.4805 16.4568 20.2626 16.9269C20.0448 17.397 20.0458 17.8444 20.0458 17.8444C20.0458 17.8468 20.0458 17.8492 20.0458 17.8517V22.306C20.0458 22.7465 20.2315 23.1452 20.4989 23.3935C20.7663 23.6419 21.0785 23.756 21.3583 23.8192C21.5879 23.871 21.6161 23.8375 21.797 23.841V24.8348H4.76012V8.84044L14.347 1.72981L23.9095 8.83922V10.7217C22.8179 10.9414 21.9876 11.9121 21.9876 13.0654C21.9876 14.379 23.0646 15.4561 24.3783 15.4561C25.6919 15.4561 26.7689 14.379 26.7689 13.0654C26.7689 11.9775 26.029 11.0539 25.0289 10.768V8.55793C25.0289 8.38123 24.9454 8.21489 24.8039 8.10919L14.6814 0.582945C14.5908 0.515336 14.4818 0.47755 14.3689 0.472954ZM7.21637 2.5992H8.78137V4.46357L7.21637 5.6242V2.5992ZM24.3783 11.7948C25.0866 11.7948 25.6489 12.3578 25.6489 13.0661C25.6489 13.7744 25.0866 14.3367 24.3783 14.3367C23.6699 14.3367 23.1083 13.7744 23.1083 13.0661C23.1083 12.3578 23.6699 11.7948 24.3783 11.7948ZM22.9976 17.0254C23.0343 17.136 23.0061 17.1481 23.0783 17.2723C23.3023 17.6576 23.8158 18.0786 24.5321 18.0786C25.2444 18.0786 25.7569 17.6449 25.9508 17.2473C26.0015 17.1434 25.9712 17.1392 25.997 17.0442H27.1032C27.6096 17.0442 27.6917 17.2043 27.7876 17.4011C27.8835 17.5979 27.8864 17.8135 27.8864 17.8135C27.8864 17.8184 27.8864 17.8232 27.8864 17.8273V22.2867C27.8864 22.3818 27.8755 22.3946 27.8002 22.4598C27.7247 22.5251 27.5697 22.6022 27.3927 22.6536C27.0388 22.7564 26.6489 22.7629 26.6489 22.7629C26.3404 22.764 26.0909 23.0144 26.0908 23.3229V30.0442H22.9165V23.3167C22.916 22.9804 22.6214 22.7204 22.2877 22.7617C22.2877 22.7617 21.9212 22.7987 21.6052 22.7273C21.4472 22.6917 21.3211 22.6296 21.2602 22.5729C21.1992 22.5163 21.1659 22.4816 21.1659 22.3067V17.8598C21.1659 17.8598 21.1768 17.6173 21.2783 17.398C21.3799 17.1786 21.4521 17.0336 21.8646 17.0336C22.247 17.0336 22.6839 17.0291 22.9976 17.0254Z" fill="#495965"/>
   <path d="M10.4612 11.6784C10.4297 11.6789 10.3983 11.6821 10.3674 11.6878C10.3674 11.6878 9.96099 11.7566 9.54762 12.0347C9.13426 12.3128 8.67103 12.832 8.48408 13.6441C8.29334 14.4726 8.62806 15.1271 8.97575 15.5503C9.32343 15.9735 9.65031 16.2823 9.85804 16.9211C10.0384 17.4757 9.84834 17.7281 9.57366 17.9857C9.29901 18.2434 8.96012 18.3753 8.96012 18.3753C8.88816 18.3983 8.82158 18.4355 8.76439 18.4849C8.70719 18.5342 8.66057 18.5946 8.62732 18.6624C8.59407 18.7302 8.57488 18.8041 8.57091 18.8795C8.56694 18.9549 8.57826 19.0304 8.60421 19.1013C8.63015 19.1722 8.67017 19.2372 8.72186 19.2922C8.77356 19.3473 8.83586 19.3914 8.90502 19.4217C8.97418 19.4521 9.04876 19.4682 9.12428 19.469C9.19981 19.4698 9.27471 19.4553 9.3445 19.4264C9.3445 19.4264 9.87236 19.2413 10.3403 18.8024C10.8083 18.3634 11.2372 17.5396 10.9237 16.5753C10.6375 15.6952 10.1281 15.189 9.84137 14.8399C9.55459 14.4908 9.45592 14.4156 9.57575 13.8951C9.69937 13.3581 9.95058 13.1132 10.1726 12.9639C10.3947 12.8145 10.5455 12.793 10.5455 12.793C10.6864 12.7731 10.8145 12.7004 10.9037 12.5896C10.9928 12.4787 11.0365 12.3381 11.0258 12.1962C11.015 12.0543 10.9507 11.9219 10.8458 11.8257C10.741 11.7295 10.6034 11.6769 10.4612 11.6784Z" fill="#495965"/>
   <path d="M13.6611 11.6784C13.6297 11.6789 13.5983 11.6821 13.5674 11.6878C13.5674 11.6878 13.1609 11.7566 12.7476 12.0347C12.3342 12.3128 11.871 12.832 11.684 13.6441C11.4933 14.4726 11.828 15.1271 12.1757 15.5503C12.5234 15.9735 12.8503 16.2823 13.058 16.9211C13.2383 17.4757 13.0483 17.7281 12.7736 17.9857C12.499 18.2434 12.1601 18.3753 12.1601 18.3753C12.0881 18.3983 12.0215 18.4355 11.9643 18.4849C11.9071 18.5342 11.8605 18.5946 11.8273 18.6624C11.794 18.7302 11.7748 18.8041 11.7709 18.8795C11.7669 18.9549 11.7782 19.0304 11.8042 19.1013C11.8301 19.1722 11.8701 19.2372 11.9218 19.2922C11.9735 19.3473 12.0358 19.3914 12.105 19.4217C12.1741 19.4521 12.2487 19.4682 12.3242 19.469C12.3998 19.4698 12.4747 19.4553 12.5444 19.4264C12.5444 19.4264 13.0723 19.2413 13.5403 18.8024C14.0083 18.3634 14.4372 17.5396 14.1236 16.5753C13.8374 15.6952 13.3281 15.189 13.0413 14.8399C12.7545 14.4908 12.6559 14.4156 12.7757 13.8951C12.8993 13.3581 13.1505 13.1132 13.3726 12.9639C13.5946 12.8145 13.7455 12.793 13.7455 12.793C13.8864 12.7731 14.0144 12.7004 14.1036 12.5896C14.1928 12.4787 14.2365 12.3381 14.2257 12.1962C14.215 12.0543 14.1506 11.9219 14.0458 11.8257C13.9409 11.7295 13.8034 11.6769 13.6611 11.6784Z" fill="#495965"/>
   <path d="M16.8612 11.6784C16.8297 11.6789 16.7984 11.6821 16.7674 11.6878C16.7674 11.6878 16.361 11.7566 15.9476 12.0347C15.5343 12.3128 15.0711 12.832 14.8841 13.6441C14.6934 14.4726 15.0281 15.1271 15.3758 15.5503C15.7235 15.9735 16.0503 16.2823 16.2581 16.9211C16.4384 17.4757 16.2484 17.7281 15.9737 17.9857C15.699 18.2434 15.3601 18.3753 15.3601 18.3753C15.2882 18.3983 15.2216 18.4355 15.1644 18.4849C15.1072 18.5342 15.0606 18.5946 15.0273 18.6624C14.9941 18.7302 14.9749 18.8041 14.9709 18.8795C14.967 18.9549 14.9783 19.0304 15.0042 19.1013C15.0302 19.1722 15.0702 19.2372 15.1219 19.2922C15.1736 19.3473 15.2359 19.3914 15.305 19.4217C15.3742 19.4521 15.4488 19.4682 15.5243 19.469C15.5998 19.4698 15.6747 19.4553 15.7445 19.4264C15.7445 19.4264 16.2724 19.2413 16.7404 18.8024C17.2083 18.3634 17.6373 17.5396 17.3237 16.5753C17.0375 15.6952 16.5282 15.189 16.2414 14.8399C15.9546 14.4908 15.8559 14.4156 15.9758 13.8951C16.0994 13.3581 16.3506 13.1132 16.5726 12.9639C16.7947 12.8145 16.9456 12.793 16.9456 12.793C17.0864 12.7731 17.2145 12.7004 17.3037 12.5896C17.3929 12.4787 17.4365 12.3381 17.4258 12.1962C17.415 12.0543 17.3507 11.9219 17.2458 11.8257C17.141 11.7295 17.0035 11.6769 16.8612 11.6784Z" fill="#495965"/>
</svg>
