<svg width="32" height="32" viewBox="0 0 32 32" fill="none" xmlns="http://www.w3.org/2000/svg">
   <path d="M8.69726 3.38324C6.38911 3.38324 4.51379 5.25856 4.51379 7.5667V24.9667C4.51379 27.2749 6.38911 29.1525 8.69726 29.1525H23.4988C25.807 29.1525 27.6823 27.2749 27.6823 24.9667V7.5667C27.6823 5.25856 25.807 3.38324 23.4988 3.38324H8.69726ZM8.69726 4.59033H23.4988C25.1589 4.59033 26.4752 5.90666 26.4752 7.5667V24.9667C26.4752 26.6267 25.1589 27.9454 23.4988 27.9454H8.69726C7.03721 27.9454 5.72088 26.6267 5.72088 24.9667V7.5667C5.72088 5.90666 7.03721 4.59033 8.69726 4.59033Z" fill="#495965"/>
   <path d="M8.10205 28.217V30.8178C8.10211 30.9663 8.16111 31.1087 8.26609 31.2136C8.37107 31.3186 8.51343 31.3776 8.66189 31.3777H23.5343C23.6828 31.3776 23.8252 31.3186 23.9301 31.2136C24.0351 31.1087 24.0941 30.9663 24.0942 30.8178V28.217H22.9745V30.258H9.22174V28.217H8.10205Z" fill="#495965"/>
   <path d="M7.85828 0.925659V3.52625H8.97846V0.925659H7.85828Z" fill="#495965"/>
   <path d="M23.2181 0.925659V3.52625H24.3383V0.925659H23.2181Z" fill="#495965"/>
   <path d="M7.15948 0.366684C7.01108 0.374309 6.87178 0.440536 6.77219 0.550826C6.67261 0.661115 6.62089 0.80643 6.6284 0.954837C6.63592 1.10324 6.70205 1.24261 6.81226 1.34228C6.92248 1.44194 7.06776 1.49377 7.21617 1.48637H24.9799C25.0548 1.48844 25.1292 1.47548 25.199 1.44828C25.2687 1.42108 25.3323 1.38018 25.3859 1.32799C25.4396 1.2758 25.4822 1.21339 25.5114 1.14444C25.5405 1.07549 25.5555 1.00138 25.5555 0.926527C25.5555 0.851676 25.5405 0.777604 25.5114 0.708651C25.4822 0.639697 25.4396 0.577254 25.3859 0.525063C25.3323 0.472872 25.2687 0.431979 25.199 0.404775C25.1292 0.377571 25.0548 0.364614 24.9799 0.366684H7.21617C7.19728 0.365728 7.17836 0.365728 7.15948 0.366684Z" fill="#495965"/>
   <path d="M3.83825 15.6383C3.67137 15.6469 3.51472 15.7214 3.40273 15.8454C3.29075 15.9694 3.23259 16.1328 3.24104 16.2997C3.2495 16.4666 3.32387 16.6233 3.44781 16.7354C3.57176 16.8475 3.73513 16.9057 3.90203 16.8974H28.2942C28.379 16.9009 28.4637 16.8871 28.5431 16.8571C28.6225 16.827 28.695 16.7812 28.7563 16.7224C28.8175 16.6636 28.8663 16.593 28.8996 16.5149C28.9329 16.4368 28.95 16.3528 28.95 16.2678C28.95 16.1829 28.9329 16.0989 28.8996 16.0208C28.8663 15.9427 28.8175 15.8721 28.7563 15.8133C28.695 15.7545 28.6225 15.7087 28.5431 15.6786C28.4637 15.6486 28.379 15.6348 28.2942 15.6383H3.90203C3.88078 15.6372 3.8595 15.6372 3.83825 15.6383Z" fill="#495965"/>
   <path d="M13.6295 6.47794C13.598 6.47843 13.5667 6.48156 13.5357 6.48731C13.5357 6.48731 13.1293 6.55612 12.716 6.83419C12.3026 7.11226 11.8394 7.63151 11.6524 8.44356C11.4617 9.27211 11.7964 9.92659 12.1441 10.3498C12.4918 10.773 12.8186 11.0818 13.0264 11.7206C13.2067 12.2752 13.0167 12.5276 12.742 12.7852C12.4673 13.0429 12.1285 13.1748 12.1285 13.1748C12.0565 13.1978 11.9899 13.235 11.9327 13.2844C11.8755 13.3337 11.8289 13.3941 11.7957 13.4619C11.7624 13.5297 11.7432 13.6036 11.7392 13.679C11.7353 13.7544 11.7466 13.8299 11.7725 13.9008C11.7985 13.9717 11.8385 14.0367 11.8902 14.0917C11.9419 14.1468 12.0042 14.1909 12.0734 14.2212C12.1425 14.2516 12.2171 14.2677 12.2926 14.2685C12.3681 14.2693 12.443 14.2548 12.5128 14.2259C12.5128 14.2259 13.0407 14.0408 13.5087 13.6019C13.9766 13.1629 14.4056 12.3391 14.092 11.3748C13.8058 10.4947 13.2965 9.98848 13.0097 9.6394C12.7229 9.29031 12.6243 9.21511 12.7441 8.69461C12.8677 8.15761 13.1189 7.91272 13.341 7.76336C13.563 7.61399 13.7139 7.59252 13.7139 7.59252C13.8548 7.57265 13.9828 7.49992 14.072 7.38907C14.1612 7.27822 14.2048 7.13755 14.1941 6.99568C14.1834 6.85381 14.119 6.72137 14.0142 6.6252C13.9093 6.52904 13.7718 6.47638 13.6295 6.47794Z" fill="#495965"/>
   <path d="M16.8294 6.47794C16.798 6.47843 16.7666 6.48156 16.7357 6.48731C16.7357 6.48731 16.3293 6.55612 15.9159 6.83419C15.5025 7.11226 15.0393 7.63151 14.8524 8.44356C14.6616 9.27211 14.9963 9.92659 15.344 10.3498C15.6917 10.773 16.0186 11.0818 16.2263 11.7206C16.4067 12.2752 16.2166 12.5276 15.9419 12.7852C15.6673 13.0429 15.3284 13.1748 15.3284 13.1748C15.2564 13.1978 15.1899 13.235 15.1327 13.2844C15.0755 13.3337 15.0289 13.3941 14.9956 13.4619C14.9624 13.5297 14.9432 13.6036 14.9392 13.679C14.9352 13.7544 14.9465 13.8299 14.9725 13.9008C14.9984 13.9717 15.0385 14.0367 15.0902 14.0917C15.1418 14.1468 15.2041 14.1909 15.2733 14.2212C15.3425 14.2516 15.417 14.2677 15.4926 14.2685C15.5681 14.2693 15.643 14.2548 15.7128 14.2259C15.7128 14.2259 16.2406 14.0408 16.7086 13.6019C17.1766 13.1629 17.6055 12.3391 17.2919 11.3748C17.0058 10.4947 16.4964 9.98848 16.2097 9.6394C15.9229 9.29031 15.8242 9.21511 15.944 8.69461C16.0677 8.15761 16.3189 7.91272 16.5409 7.76336C16.763 7.61399 16.9138 7.59252 16.9138 7.59252C17.0547 7.57265 17.1827 7.49992 17.2719 7.38907C17.3611 7.27822 17.4048 7.13755 17.394 6.99568C17.3833 6.85381 17.319 6.72137 17.2141 6.6252C17.1092 6.52904 16.9717 6.47638 16.8294 6.47794Z" fill="#495965"/>
   <path d="M20.0295 6.47794C19.9981 6.47843 19.9667 6.48156 19.9358 6.48731C19.9358 6.48731 19.5294 6.55612 19.116 6.83419C18.7026 7.11226 18.2394 7.63151 18.0524 8.44356C17.8617 9.27211 18.1964 9.92659 18.5441 10.3498C18.8918 10.773 19.2187 11.0818 19.4264 11.7206C19.6067 12.2752 19.4167 12.5276 19.142 12.7852C18.8674 13.0429 18.5285 13.1748 18.5285 13.1748C18.4565 13.1978 18.3899 13.235 18.3327 13.2844C18.2756 13.3337 18.2289 13.3941 18.1957 13.4619C18.1624 13.5297 18.1432 13.6036 18.1393 13.679C18.1353 13.7544 18.1466 13.8299 18.1726 13.9008C18.1985 13.9717 18.2385 14.0367 18.2902 14.0917C18.3419 14.1468 18.4042 14.1909 18.4734 14.2212C18.5425 14.2516 18.6171 14.2677 18.6926 14.2685C18.7682 14.2693 18.8431 14.2548 18.9129 14.2259C18.9129 14.2259 19.4407 14.0408 19.9087 13.6019C20.3767 13.1629 20.8056 12.3391 20.492 11.3748C20.2059 10.4947 19.6965 9.98848 19.4097 9.6394C19.123 9.29031 19.0243 9.21511 19.1441 8.69461C19.2677 8.15761 19.5189 7.91272 19.741 7.76336C19.963 7.61399 20.1139 7.59252 20.1139 7.59252C20.2548 7.57265 20.3828 7.49992 20.472 7.38907C20.5612 7.27822 20.6049 7.13755 20.5941 6.99568C20.5834 6.85381 20.519 6.72137 20.4142 6.6252C20.3093 6.52904 20.1718 6.47638 20.0295 6.47794Z" fill="#495965"/>
   <path d="M16.0895 18.7019C15.9412 18.7043 15.7999 18.7654 15.6966 18.8718C15.5933 18.9783 15.5364 19.1213 15.5385 19.2696V25.6686C15.5367 25.7432 15.5499 25.8175 15.5772 25.887C15.6045 25.9565 15.6455 26.0198 15.6977 26.0732C15.7498 26.1267 15.8122 26.1691 15.881 26.1981C15.9498 26.2271 16.0237 26.242 16.0984 26.242C16.1731 26.242 16.247 26.2271 16.3158 26.1981C16.3846 26.1691 16.4469 26.1267 16.4991 26.0732C16.5513 26.0198 16.5922 25.9565 16.6196 25.887C16.6469 25.8175 16.6601 25.7432 16.6583 25.6686V19.2696C16.6593 19.1947 16.6453 19.1203 16.6171 19.0509C16.5888 18.9815 16.547 18.9185 16.4939 18.8655C16.4409 18.8126 16.3778 18.7708 16.3083 18.7427C16.2388 18.7146 16.1645 18.7007 16.0895 18.7019Z" fill="#495965"/>
   <path d="M13.3416 20.3061C13.2158 20.3013 13.0921 20.339 12.9904 20.4131C12.8887 20.4873 12.8149 20.5935 12.781 20.7147C12.7471 20.8359 12.7549 20.965 12.8033 21.0811C12.8518 21.1973 12.9379 21.2938 13.0478 21.355L18.5885 24.554C18.6522 24.5915 18.7227 24.616 18.7959 24.6262C18.8692 24.6363 18.9437 24.6319 19.0152 24.6131C19.0867 24.5943 19.1538 24.5615 19.2126 24.5166C19.2713 24.4717 19.3207 24.4157 19.3577 24.3516C19.3947 24.2876 19.4186 24.2169 19.4281 24.1436C19.4377 24.0703 19.4326 23.9958 19.4132 23.9244C19.3937 23.8531 19.3604 23.7863 19.315 23.7279C19.2697 23.6695 19.2132 23.6207 19.1489 23.5842L13.6072 20.3842C13.5266 20.3363 13.4353 20.3095 13.3416 20.3061Z" fill="#495965"/>
   <path d="M18.8937 20.3061C18.7866 20.3024 18.6807 20.3295 18.5885 20.3842L13.0479 23.5842C12.9817 23.6196 12.9234 23.668 12.8763 23.7264C12.8292 23.7848 12.7943 23.8521 12.7737 23.9242C12.7531 23.9964 12.7472 24.0719 12.7564 24.1464C12.7656 24.2209 12.7896 24.2928 12.8271 24.3578C12.8646 24.4228 12.9148 24.4795 12.9747 24.5248C13.0345 24.57 13.1029 24.6028 13.1756 24.6211C13.2484 24.6394 13.3241 24.6428 13.3983 24.6313C13.4724 24.6198 13.5435 24.5935 13.6073 24.554L19.1489 21.355C19.2559 21.2954 19.3404 21.2023 19.3895 21.09C19.4385 20.9777 19.4494 20.8525 19.4204 20.7334C19.3915 20.6144 19.3243 20.5082 19.2291 20.431C19.134 20.3538 19.0162 20.3099 18.8937 20.3061Z" fill="#495965"/>
</svg>
