<svg width="32" height="32" viewBox="0 0 32 32" fill="none" xmlns="http://www.w3.org/2000/svg">
   <path d="M12.092 4.75781L12.0333 4.77343H4.73639C4.65067 4.77346 4.5661 4.79317 4.4892 4.83104C4.4123 4.86891 4.34511 4.92393 4.29283 4.99186C4.24054 5.05978 4.20453 5.1388 4.1876 5.22283C4.17066 5.30687 4.17325 5.39365 4.19514 5.47653L6.08264 12.6309H3.76764C3.61912 12.6309 3.47669 12.6899 3.37168 12.795C3.26666 12.9 3.20766 13.0424 3.20764 13.1909V26.2159C3.20782 26.3643 3.2669 26.5066 3.3719 26.6115C3.4769 26.7164 3.61923 26.7753 3.76764 26.7753H25.727C25.8753 26.7751 26.0175 26.7161 26.1224 26.6113C26.2272 26.5064 26.2862 26.3642 26.2864 26.2159V22.2172H29.8858C29.9716 22.2171 30.0564 22.1973 30.1334 22.1593C30.2104 22.1213 30.2776 22.0661 30.3298 21.9979C30.3821 21.9298 30.418 21.8505 30.4347 21.7663C30.4515 21.6821 30.4486 21.5951 30.4264 21.5122L26.052 5.18779C26.02 5.0689 25.9497 4.96387 25.8519 4.88897C25.7542 4.81407 25.6345 4.77346 25.5114 4.77343H19.262L19.2572 4.75781L19.199 4.77343H12.0958L12.092 4.75781ZM5.46392 5.89344H11.2364L12.3608 10.0903H6.57078L5.46392 5.89344ZM12.3964 5.89344H18.4033L19.5277 10.0903H13.5208L12.3964 5.89344ZM19.562 5.89344H25.0814L26.2064 10.0903H20.687L19.562 5.89344ZM26.5014 11.1916L27.6377 15.4297H22.1177L20.9864 11.2097H26.5014V11.1916ZM6.86578 11.2097H12.6608L13.7914 15.4297H7.99829V15.5029L6.86578 11.2097ZM13.8208 11.2097H19.827L20.9577 15.4297H14.9514L13.8208 11.2097ZM4.32829 13.7516H6.37829L8.50142 21.8003C8.53301 21.9198 8.60322 22.0254 8.70111 22.1008C8.79901 22.1762 8.91909 22.2172 9.04266 22.2172H25.167V25.656H4.32829V13.7516ZM8.27454 16.5497H14.0914L15.3102 21.0972H9.47392L8.27454 16.5497ZM15.2514 16.5497H21.2577L22.4758 21.0972H16.4695L15.2514 16.5497ZM22.4177 16.5497H27.9377L29.1564 21.0972H23.6364L22.4177 16.5497Z" fill="#495965"/>
</svg>
