<svg width="32" height="32" viewBox="0 0 32 32" fill="none" xmlns="http://www.w3.org/2000/svg">
   <path d="M6.12933 6.64819C5.836 6.64819 5.59558 6.88861 5.59558 7.18194V9.81632C5.59558 10.1097 5.836 10.3494 6.12933 10.3494H6.76932V22.0669H6.12933C5.836 22.0669 5.59558 22.3074 5.59558 22.6007V25.2351C5.59558 25.5284 5.836 25.7682 6.12933 25.7682H25.9906C26.2839 25.7682 26.5237 25.5284 26.5237 25.2351V22.6007C26.5237 22.3074 26.2839 22.0669 25.9906 22.0669H25.3506V10.3494H25.9906C26.2839 10.3494 26.5237 10.1097 26.5237 9.81632V7.18194C26.5237 6.88861 26.2839 6.64819 25.9906 6.64819H6.12933ZM6.66246 7.70945H25.4568V9.27757H24.8168H7.30246H6.66246V7.70945ZM7.83558 10.3494H24.2837V22.0669H7.83558V10.3494ZM16.0481 11.0044C15.9745 11.0055 15.9018 11.0211 15.8343 11.0502C15.7667 11.0794 15.7055 11.1216 15.6543 11.1744C15.603 11.2273 15.5627 11.2897 15.5355 11.3581C15.5084 11.4265 15.4951 11.4996 15.4962 11.5732V12.4463C15.4951 12.5205 15.5089 12.5942 15.5365 12.6631C15.5642 12.732 15.6053 12.7946 15.6574 12.8475C15.7095 12.9004 15.7716 12.9423 15.84 12.971C15.9085 12.9996 15.982 13.0144 16.0562 13.0144C16.1304 13.0144 16.2039 12.9996 16.2724 12.971C16.3408 12.9423 16.4029 12.9004 16.455 12.8475C16.5071 12.7946 16.5482 12.732 16.5759 12.6631C16.6036 12.5942 16.6173 12.5205 16.6162 12.4463V11.5732C16.6174 11.4982 16.6035 11.4238 16.5754 11.3543C16.5472 11.2848 16.5054 11.2217 16.4525 11.1686C16.3995 11.1156 16.3364 11.0737 16.2669 11.0455C16.1975 11.0173 16.123 11.0034 16.0481 11.0044ZM12.8006 12.3532C12.6891 12.3531 12.5801 12.3863 12.4875 12.4485C12.395 12.5108 12.3231 12.5992 12.2812 12.7025C12.2392 12.8058 12.2291 12.9193 12.252 13.0285C12.2749 13.1376 12.3299 13.2374 12.41 13.3151L13.0275 13.9326C13.0795 13.9846 13.1413 14.0258 13.2092 14.054C13.2772 14.0821 13.3501 14.0965 13.4236 14.0965C13.4972 14.0965 13.57 14.082 13.638 14.0538C13.7059 14.0256 13.7677 13.9843 13.8197 13.9323C13.8717 13.8803 13.9129 13.8185 13.941 13.7505C13.9692 13.6825 13.9836 13.6097 13.9836 13.5361C13.9836 13.4625 13.969 13.3897 13.9409 13.3218C13.9127 13.2538 13.8714 13.1921 13.8193 13.1401L13.2025 12.5232C13.1503 12.4694 13.0878 12.4267 13.0188 12.3974C12.9497 12.3682 12.8755 12.3532 12.8006 12.3532ZM19.295 12.3532C19.1496 12.3578 19.0118 12.4188 18.9106 12.5232L18.2931 13.1401C18.241 13.1921 18.1997 13.2538 18.1716 13.3218C18.1434 13.3897 18.1289 13.4625 18.1288 13.5361C18.1288 13.6097 18.1433 13.6825 18.1714 13.7505C18.1995 13.8185 18.2407 13.8803 18.2927 13.9323C18.3447 13.9843 18.4065 14.0256 18.4744 14.0538C18.5424 14.082 18.6152 14.0965 18.6888 14.0965C18.7624 14.0965 18.8352 14.0821 18.9032 14.054C18.9712 14.0258 19.0329 13.9846 19.085 13.9326L19.7025 13.3151C19.7836 13.2364 19.839 13.135 19.8615 13.0243C19.884 12.9135 19.8724 12.7986 19.8283 12.6945C19.7842 12.5904 19.7097 12.5022 19.6145 12.4412C19.5193 12.3803 19.4079 12.3496 19.295 12.3532ZM16.0243 13.6401C14.6459 13.6401 13.5168 14.7698 13.5168 16.1482C13.5168 17.5266 14.6459 18.6557 16.0243 18.6557C17.4027 18.6557 18.5325 17.5266 18.5325 16.1482C18.5325 14.7698 17.4027 13.6401 16.0243 13.6401ZM16.0243 14.7607C16.7974 14.7607 17.4131 15.3751 17.4131 16.1482C17.4131 16.9213 16.7974 17.5357 16.0243 17.5357C15.2512 17.5357 14.6368 16.9213 14.6368 16.1482C14.6368 15.3751 15.2512 14.7607 16.0243 14.7607ZM11.46 15.6094C11.3857 15.6084 11.3121 15.6221 11.2432 15.6498C11.1743 15.6774 11.1116 15.7185 11.0588 15.7706C11.0059 15.8227 10.964 15.8848 10.9353 15.9533C10.9067 16.0217 10.8919 16.0952 10.8919 16.1694C10.8919 16.2437 10.9067 16.3171 10.9353 16.3856C10.964 16.4541 11.0059 16.5162 11.0588 16.5683C11.1116 16.6204 11.1743 16.6615 11.2432 16.6891C11.3121 16.7168 11.3857 16.7305 11.46 16.7294H12.3325C12.4067 16.7305 12.4803 16.7168 12.5492 16.6891C12.6181 16.6615 12.6808 16.6204 12.7336 16.5683C12.7865 16.5162 12.8285 16.4541 12.8571 16.3856C12.8857 16.3171 12.9005 16.2437 12.9005 16.1694C12.9005 16.0952 12.8857 16.0217 12.8571 15.9533C12.8285 15.8848 12.7865 15.8227 12.7336 15.7706C12.6808 15.7185 12.6181 15.6774 12.5492 15.6498C12.4803 15.6221 12.4067 15.6084 12.3325 15.6094H11.46ZM19.7793 15.6094C19.7051 15.6084 19.6314 15.6221 19.5626 15.6498C19.4937 15.6774 19.431 15.7185 19.3782 15.7706C19.3253 15.8227 19.2833 15.8848 19.2547 15.9533C19.226 16.0217 19.2113 16.0952 19.2113 16.1694C19.2113 16.2437 19.226 16.3171 19.2547 16.3856C19.2833 16.4541 19.3253 16.5162 19.3782 16.5683C19.431 16.6204 19.4937 16.6615 19.5626 16.6891C19.6314 16.7168 19.7051 16.7305 19.7793 16.7294H20.6525C20.7267 16.7305 20.8003 16.7168 20.8692 16.6891C20.9381 16.6615 21.0008 16.6204 21.0536 16.5683C21.1065 16.5162 21.1485 16.4541 21.1771 16.3856C21.2057 16.3171 21.2205 16.2437 21.2205 16.1694C21.2205 16.0952 21.2057 16.0217 21.1771 15.9533C21.1485 15.8848 21.1065 15.8227 21.0536 15.7706C21.0008 15.7185 20.9381 15.6774 20.8692 15.6498C20.8003 15.6221 20.7267 15.6084 20.6525 15.6094H19.7793ZM13.4118 18.2369C13.2666 18.2414 13.1288 18.3021 13.0275 18.4063L12.41 19.0232C12.356 19.0748 12.3128 19.1367 12.2831 19.2052C12.2533 19.2737 12.2375 19.3474 12.2367 19.4221C12.2358 19.4968 12.2499 19.5709 12.2781 19.64C12.3063 19.7092 12.348 19.772 12.4008 19.8248C12.4536 19.8776 12.5165 19.9193 12.5856 19.9475C12.6548 19.9757 12.7289 19.9898 12.8036 19.989C12.8782 19.9881 12.952 19.9723 13.0205 19.9426C13.089 19.9128 13.1509 19.8697 13.2025 19.8157L13.8193 19.1982C13.9002 19.1195 13.9555 19.0182 13.9778 18.9075C14.0001 18.7969 13.9885 18.6821 13.9445 18.5782C13.9004 18.4742 13.826 18.386 13.7309 18.3252C13.6359 18.2643 13.5247 18.2335 13.4118 18.2369ZM18.6837 18.2369C18.5723 18.237 18.4635 18.2702 18.3711 18.3324C18.2787 18.3946 18.2069 18.483 18.165 18.5862C18.1231 18.6894 18.1129 18.8027 18.1357 18.9117C18.1585 19.0207 18.2133 19.1205 18.2931 19.1982L18.9106 19.8157C19.0157 19.9207 19.1582 19.9796 19.3067 19.9796C19.4553 19.9795 19.5977 19.9204 19.7027 19.8153C19.8077 19.7103 19.8667 19.5678 19.8666 19.4192C19.8666 19.2707 19.8075 19.1282 19.7025 19.0232L19.085 18.4063C19.0328 18.3527 18.9704 18.3101 18.9015 18.281C18.8325 18.2519 18.7585 18.237 18.6837 18.2369ZM16.0481 19.3251C15.9745 19.3261 15.9019 19.3417 15.8344 19.3708C15.7669 19.3999 15.7057 19.4421 15.6545 19.4948C15.6032 19.5476 15.5629 19.6099 15.5357 19.6783C15.5086 19.7466 15.4951 19.8197 15.4962 19.8932V20.7657C15.4951 20.8399 15.5089 20.9136 15.5365 20.9825C15.5642 21.0513 15.6053 21.114 15.6574 21.1669C15.7095 21.2197 15.7716 21.2617 15.84 21.2903C15.9085 21.319 15.982 21.3337 16.0562 21.3337C16.1304 21.3337 16.2039 21.319 16.2724 21.2903C16.3408 21.2617 16.4029 21.2197 16.455 21.1669C16.5071 21.114 16.5482 21.0513 16.5759 20.9825C16.6036 20.9136 16.6173 20.8399 16.6162 20.7657V19.8932C16.6173 19.8183 16.6033 19.7439 16.5752 19.6745C16.547 19.6051 16.5052 19.542 16.4522 19.489C16.3993 19.4361 16.3362 19.3943 16.2668 19.3661C16.1974 19.3379 16.123 19.324 16.0481 19.3251ZM6.66246 23.1338H7.30246H24.8168H25.4568V24.702H6.66246V23.1338Z" fill="#495965"/>
</svg>
