<svg width="32" height="32" viewBox="0 0 32 32" fill="none" xmlns="http://www.w3.org/2000/svg">
   <path d="M2.59416 6.8855C2.30082 6.8855 2.06104 7.12591 2.06104 7.41925V10.0536C2.06104 10.347 2.30082 10.5867 2.59416 10.5867H3.23416V22.3043H2.59416C2.30082 22.3043 2.06104 22.5447 2.06104 22.838V25.4724C2.06104 25.7657 2.30082 26.0055 2.59416 26.0055H22.4554C22.7487 26.0055 22.9885 25.7657 22.9885 25.4724V22.838C22.9885 22.5447 22.7487 22.3043 22.4554 22.3043H21.8154V10.5867H22.4554C22.7487 10.5867 22.9885 10.347 22.9885 10.0536V7.41925C22.9885 7.12591 22.7487 6.8855 22.4554 6.8855H2.59416ZM3.12728 7.94676H21.9223V9.51488H21.2823H3.76729H3.12728V7.94676ZM4.30103 10.5867H20.7485V22.3043H4.30103V10.5867ZM11.9117 11.5255C11.661 11.5255 11.4472 11.6964 11.3885 11.9418L10.4073 16.3205C10.37 16.4805 10.4075 16.646 10.5142 16.7686C10.6155 16.8966 10.7704 16.9711 10.9304 16.9711H11.8048L11.3835 20.758C11.3569 21.0087 11.5064 21.243 11.741 21.323C11.7997 21.3443 11.853 21.3499 11.9117 21.3499C12.093 21.3499 12.2691 21.254 12.3704 21.0886L15.8579 15.2749C15.9593 15.1095 15.9595 14.9068 15.8636 14.7361C15.7676 14.5655 15.5912 14.4699 15.3992 14.4699H14.2261L14.5192 12.1286C14.5406 11.9793 14.4931 11.8241 14.3917 11.7068C14.2904 11.5894 14.1464 11.5255 13.9917 11.5255L11.9117 11.5255ZM12.3329 12.598H13.3835L13.0904 14.9393C13.0691 15.0886 13.1166 15.2432 13.2179 15.3605C13.3192 15.4778 13.4632 15.5418 13.6179 15.5418H14.4504L12.7117 18.4486L12.9304 16.5017C12.9464 16.3524 12.898 16.1975 12.7967 16.0855C12.6953 15.9735 12.5513 15.9099 12.3967 15.9099H11.5917L12.3329 12.598ZM29.4304 13.523C28.9278 13.5235 28.6805 14.1348 29.041 14.4849L29.8473 15.2918H24.311C23.5538 15.2811 23.5538 16.4224 24.311 16.4118H29.746L29.041 17.1168C28.4914 17.6446 29.3051 18.4583 29.8329 17.9086C32.2939 15.5443 32.1176 15.9794 29.8329 13.693C29.7273 13.5842 29.5821 13.5228 29.4304 13.523ZM3.12728 23.3711H3.76729H21.2823H21.9223V24.9392H3.12728V23.3711Z" fill="#495965"/>
</svg>
