<svg width="32" height="32" viewBox="0 0 32 32" fill="none" xmlns="http://www.w3.org/2000/svg">
   <path d="M10.3924 6.75952C10.0991 6.75952 9.85928 6.99996 9.85928 7.29329V9.92766C9.85928 10.221 10.0991 10.4608 10.3924 10.4608H11.0324V22.1783H10.3924C10.0991 22.1783 9.85928 22.4187 9.85928 22.712V25.3464C9.85928 25.6397 10.0991 25.8795 10.3924 25.8795H30.2537C30.547 25.8795 30.7868 25.6397 30.7868 25.3464V22.712C30.7868 22.4187 30.547 22.1783 30.2537 22.1783H29.6137V10.4608H30.2537C30.547 10.4608 30.7868 10.221 30.7868 9.92766V7.29329C30.7868 6.99996 30.547 6.75952 30.2537 6.75952H10.3924ZM10.9255 7.82078H29.7205V9.38891H29.0805H11.5655H10.9255V7.82078ZM12.0993 10.4608H28.5468V22.1783H12.0993V10.4608ZM19.7099 11.3995C19.4592 11.3995 19.2454 11.5704 19.1868 11.8158L18.2055 16.1945C18.1682 16.3545 18.2057 16.52 18.3124 16.6427C18.4138 16.7707 18.5687 16.8452 18.7287 16.8452H19.603L19.1818 20.632C19.1551 20.8827 19.3046 21.117 19.5393 21.197C19.598 21.2183 19.6512 21.2239 19.7099 21.2239C19.8912 21.2239 20.0673 21.128 20.1687 20.9626L23.6562 15.1489C23.7575 14.9835 23.7578 14.7808 23.6618 14.6101C23.5659 14.4395 23.3895 14.3439 23.1975 14.3439H22.0243L22.3175 12.0026C22.3388 11.8533 22.2913 11.6981 22.19 11.5808C22.0886 11.4634 21.9446 11.3995 21.79 11.3995L19.7099 11.3995ZM20.1312 12.472H21.1818L20.8887 14.8133C20.8673 14.9626 20.9148 15.1172 21.0162 15.2345C21.1175 15.3518 21.2615 15.4158 21.4162 15.4158H22.2487L20.5099 18.3227L20.7287 16.3758C20.7447 16.2264 20.6962 16.0715 20.5949 15.9595C20.4936 15.8475 20.3496 15.7839 20.1949 15.7839H19.3899L20.1312 12.472ZM7.04991 13.5633C6.79862 13.5636 6.61112 13.7166 6.53152 13.9132C6.45193 14.1098 6.48024 14.3501 6.66053 14.5252L7.06366 14.9286L7.46678 15.332H4.69866H1.93053C1.55188 15.3272 1.36255 15.6094 1.36255 15.892C1.36255 16.1747 1.55188 16.4574 1.93053 16.452H4.64802H7.36553L7.01303 16.8045L6.66053 17.157C6.38567 17.4209 6.45169 17.7563 6.65243 17.9571C6.85314 18.1578 7.18854 18.2238 7.45244 17.9486L8.30806 17.093L9.16368 16.2373C9.27298 16.128 9.32764 15.9847 9.32764 15.8414C9.32764 15.6981 9.27298 15.5548 9.16368 15.4455L8.30807 14.5892L7.45244 13.7329C7.39963 13.6785 7.33691 13.6359 7.26845 13.607C7.19998 13.5781 7.12573 13.5632 7.04991 13.5633ZM10.9255 23.2452H11.5655H29.0805H29.7205V24.8133H10.9255V23.2452Z" fill="#495965"/>
</svg>
