<svg width="32" height="32" viewBox="0 0 32 32" fill="none" xmlns="http://www.w3.org/2000/svg">
   <path d="M6.01866 1.90918C5.72533 1.90918 5.48554 2.14897 5.48554 2.44231V3.00793H4.85116C4.55783 3.00793 4.31741 3.24772 4.31741 3.54106C4.31741 3.83439 4.55783 4.07481 4.85116 4.07481H5.48554V5.24793H4.85116C4.55783 5.24793 4.31741 5.48772 4.31741 5.78105C4.31741 6.07439 4.55783 6.31481 4.85116 6.31481H5.48554V7.48793H4.85116C4.55783 7.48793 4.31741 7.72772 4.31741 8.02105C4.31741 8.31439 4.55783 8.55481 4.85116 8.55481H5.48554V9.45606H2.34929C2.05595 9.45606 1.81616 9.69585 1.81616 9.98918V12.6236C1.81616 12.9169 2.05595 13.1573 2.34929 13.1573H2.98929V24.8748H2.34929C2.05595 24.8748 1.81616 25.1146 1.81616 25.4079V28.0423C1.81616 28.3356 2.05595 28.5761 2.34929 28.5761H22.2112C22.5045 28.5761 22.7443 28.3356 22.7443 28.0423V25.4079C22.7443 25.1146 22.5045 24.8748 22.2112 24.8748H21.5712V13.1573H22.2112C22.5045 13.1573 22.7443 12.9169 22.7443 12.6236V9.98918C22.7443 9.69585 22.5045 9.45605 22.2112 9.45606H19.0749V8.55481H19.7093C20.0026 8.55481 20.243 8.31439 20.243 8.02105C20.243 7.72772 20.0026 7.48793 19.7093 7.48793H19.0749V6.31481H19.7093C20.0026 6.31481 20.243 6.07439 20.243 5.78105C20.243 5.48772 20.0026 5.24793 19.7093 5.24793H19.0749V4.07481H19.7093C20.0026 4.07481 20.243 3.83439 20.243 3.54106C20.243 3.24772 20.0026 3.00793 19.7093 3.00793H19.0749V2.44231C19.0749 2.14897 18.8351 1.90918 18.5418 1.90918C18.2485 1.90918 18.008 2.14897 18.008 2.44231V3.00793H17.3737C17.0803 3.00793 16.8399 3.24772 16.8399 3.54106C16.8399 3.83439 17.0803 4.07481 17.3737 4.07481H18.008V5.24793H17.3737C17.0803 5.24793 16.8399 5.48772 16.8399 5.78105C16.8399 6.07439 17.0803 6.31481 17.3737 6.31481H18.008V7.48793H17.3737C17.0803 7.48793 16.8399 7.72772 16.8399 8.02105C16.8399 8.31439 17.0803 8.55481 17.3737 8.55481H18.008V9.45606H12.8137V8.55481H13.448C13.7414 8.55481 13.9818 8.31439 13.9818 8.02105C13.9818 7.72772 13.7414 7.48793 13.448 7.48793H12.8137V6.31481H13.448C13.7414 6.31481 13.9818 6.07439 13.9818 5.78105C13.9818 5.48772 13.7414 5.24793 13.448 5.24793H12.8137V4.07481H13.448C13.7414 4.07481 13.9818 3.83439 13.9818 3.54106C13.9818 3.24772 13.7414 3.00793 13.448 3.00793H12.8137V2.44231C12.8137 2.14897 12.5732 1.90918 12.2799 1.90918C11.9866 1.90918 11.7468 2.14897 11.7468 2.44231V3.00793H11.1124C10.8191 3.00793 10.5787 3.24772 10.5787 3.54106C10.5787 3.83439 10.8191 4.07481 11.1124 4.07481H11.7468V5.24793H11.1124C10.8191 5.24793 10.5787 5.48772 10.5787 5.78105C10.5787 6.07439 10.8191 6.31481 11.1124 6.31481H11.7468V7.48793H11.1124C10.8191 7.48793 10.5787 7.72772 10.5787 8.02105C10.5787 8.31439 10.8191 8.55481 11.1124 8.55481H11.7468V9.45606H6.55241V8.55481H7.18679C7.48012 8.55481 7.71991 8.31439 7.71991 8.02105C7.71991 7.72772 7.48012 7.48793 7.18679 7.48793H6.55241V6.31481H7.18679C7.48012 6.31481 7.71991 6.07439 7.71991 5.78105C7.71991 5.48772 7.48012 5.24793 7.18679 5.24793H6.55241V4.07481H7.18679C7.48012 4.07481 7.71991 3.83439 7.71991 3.54106C7.71991 3.24772 7.48012 3.00793 7.18679 3.00793H6.55241V2.44231C6.55241 2.14897 6.312 1.90918 6.01866 1.90918ZM2.88304 10.5173H21.6774V12.0854H21.0374H3.52304H2.88304V10.5173ZM4.05616 13.1573H20.5043V24.8748H4.05616V13.1573ZM11.6668 14.0961C11.4161 14.0961 11.203 14.2663 11.1443 14.5117L10.163 18.8904C10.1257 19.0504 10.1626 19.2159 10.2693 19.3386C10.3706 19.4666 10.5255 19.5411 10.6855 19.5411H11.5599L11.1387 23.3279C11.112 23.5786 11.2615 23.8129 11.4962 23.8929C11.5548 23.9143 11.6081 23.9198 11.6668 23.9198C11.8481 23.9198 12.0242 23.8239 12.1255 23.6586L15.6137 17.8454C15.715 17.6801 15.7147 17.4773 15.6187 17.3067C15.5227 17.136 15.3469 17.0398 15.1549 17.0398H13.9818L14.2749 14.6986C14.2962 14.5492 14.2481 14.3946 14.1468 14.2773C14.0455 14.16 13.9015 14.0961 13.7468 14.0961L11.6668 14.0961ZM12.088 15.1679H13.1387L12.8455 17.5092C12.8242 17.6585 12.8723 17.8131 12.9737 17.9304C13.075 18.0478 13.219 18.1117 13.3737 18.1117H14.2055L12.4668 21.0186L12.6855 19.0717C12.7015 18.9223 12.6537 18.7681 12.5524 18.6561C12.4511 18.5441 12.3071 18.4798 12.1524 18.4798H11.3468L12.088 15.1679ZM29.1855 16.0929C28.683 16.0935 28.4356 16.7047 28.7962 17.0548L29.6024 17.8617H24.0662C23.309 17.8511 23.309 18.9923 24.0662 18.9817H29.5012L28.7962 19.6867C28.2465 20.2145 29.0602 21.0282 29.588 20.4786C32.049 18.1143 31.8727 18.5493 29.588 16.2629C29.4824 16.1541 29.3372 16.0928 29.1855 16.0929ZM2.88304 25.9411H3.52304H21.0374H21.6774V27.5092H2.88304V25.9411Z" fill="#495965"/>
</svg>
