<svg width="36" height="30" viewBox="0 0 36 30" fill="none" xmlns="http://www.w3.org/2000/svg">
   <path d="M11.6901 24.03C11.4151 24.03 11.1901 24.255 11.1901 24.53V27C11.1901 27.275 11.4151 27.5 11.6901 27.5H30.3101C30.5851 27.5 30.8101 27.275 30.8101 27V24.53C30.8101 24.255 30.5851 24.03 30.3101 24.03H29.7101V13.045H30.3101C30.5851 13.045 30.8101 12.82 30.8101 12.545V10.075C30.8101 9.8 30.5851 9.575 30.3101 9.575H27.3701V8.73H27.9651C28.2401 8.73 28.4651 8.505 28.4651 8.23C28.4651 7.955 28.2401 7.73 27.9651 7.73H27.3701V6.63H27.9651C28.2401 6.63 28.4651 6.405 28.4651 6.13C28.4651 5.855 28.2401 5.63 27.9651 5.63H27.3701V4.53H27.9651C28.2401 4.53 28.4651 4.305 28.4651 4.03C28.4651 3.755 28.2401 3.53 27.9651 3.53H27.3701V3C27.3701 2.725 27.1451 2.5 26.8701 2.5C26.5951 2.5 26.3701 2.725 26.3701 3V3.53H25.7751C25.5001 3.53 25.2751 3.755 25.2751 4.03C25.2751 4.305 25.5001 4.53 25.7751 4.53H26.3701V5.63H25.7751C25.5001 5.63 25.2751 5.855 25.2751 6.13C25.2751 6.405 25.5001 6.63 25.7751 6.63H26.3701V7.73H25.7751C25.5001 7.73 25.2751 7.955 25.2751 8.23C25.2751 8.505 25.5001 8.73 25.7751 8.73H26.3701V9.575H21.5001V8.73H22.0951C22.3701 8.73 22.5951 8.505 22.5951 8.23C22.5951 7.955 22.3701 7.73 22.0951 7.73H21.5001V6.63H22.0951C22.3701 6.63 22.5951 6.405 22.5951 6.13C22.5951 5.855 22.3701 5.63 22.0951 5.63H21.5001V4.53H22.0951C22.3701 4.53 22.5951 4.305 22.5951 4.03C22.5951 3.755 22.3701 3.53 22.0951 3.53H21.5001V3C21.5001 2.725 21.2751 2.5 21.0001 2.5C20.7251 2.5 20.5001 2.725 20.5001 3V3.53H19.9051C19.6301 3.53 19.4051 3.755 19.4051 4.03C19.4051 4.305 19.6301 4.53 19.9051 4.53H20.5001V5.63H19.9051C19.6301 5.63 19.4051 5.855 19.4051 6.13C19.4051 6.405 19.6301 6.63 19.9051 6.63H20.5001V7.73H19.9051C19.6301 7.73 19.4051 7.955 19.4051 8.23C19.4051 8.505 19.6301 8.73 19.9051 8.73H20.5001V9.575H15.6301V8.73H16.2251C16.5001 8.73 16.7251 8.505 16.7251 8.23C16.7251 7.955 16.5001 7.73 16.2251 7.73H15.6301V6.63H16.2251C16.5001 6.63 16.7251 6.405 16.7251 6.13C16.7251 5.855 16.5001 5.63 16.2251 5.63H15.6301V4.53H16.2251C16.5001 4.53 16.7251 4.305 16.7251 4.03C16.7251 3.755 16.5001 3.53 16.2251 3.53H15.6301V3C15.6301 2.725 15.4051 2.5 15.1301 2.5C14.8551 2.5 14.6301 2.725 14.6301 3V3.53H14.0351C13.7601 3.53 13.5351 3.755 13.5351 4.03C13.5351 4.305 13.7601 4.53 14.0351 4.53H14.6301V5.63H14.0351C13.7601 5.63 13.5351 5.855 13.5351 6.13C13.5351 6.405 13.7601 6.63 14.0351 6.63H14.6301V7.73H14.0351C13.7601 7.73 13.5351 7.955 13.5351 8.23C13.5351 8.505 13.7601 8.73 14.0351 8.73H14.6301V9.575H11.6901C11.4151 9.575 11.1901 9.8 11.1901 10.075V12.545C11.1901 12.82 11.4151 13.045 11.6901 13.045H12.2901V24.03H11.6901ZM29.8101 26.5H12.1901V25.03H12.7901H29.2101H29.8101V26.5V26.5ZM12.1901 10.57H29.8101V12.04H29.2101H12.7901H12.1901V10.57ZM13.2901 13.045H28.7101V24.03H13.2901V13.045Z" fill="#495965"/>
   <path d="M23.0953 16.685H21.9953L22.2703 14.49C22.2903 14.35 22.2453 14.205 22.1503 14.095C22.0553 13.985 21.9203 13.925 21.7753 13.925H19.8253C19.5903 13.925 19.3903 14.085 19.3353 14.315L18.4153 18.42C18.3803 18.57 18.4153 18.725 18.5153 18.84C18.6103 18.96 18.7553 19.03 18.9053 19.03H19.7253L19.3303 22.58C19.3053 22.815 19.4453 23.035 19.6653 23.11C19.7203 23.13 19.7703 23.135 19.8253 23.135C19.9953 23.135 20.1603 23.045 20.2553 22.89L23.5253 17.44C23.6203 17.285 23.6203 17.095 23.5303 16.935C23.4403 16.775 23.2753 16.685 23.0953 16.685ZM20.5753 20.415L20.7803 18.59C20.7953 18.45 20.7503 18.305 20.6553 18.2C20.5603 18.095 20.4253 18.035 20.2803 18.035H19.5253L20.2203 14.93H21.2053L20.9303 17.125C20.9103 17.265 20.9553 17.41 21.0503 17.52C21.1453 17.63 21.2803 17.69 21.4253 17.69H22.2053L20.5753 20.415Z" fill="#495965"/>
   <path d="M7.63183 17.6L5.28783 15.256C5.07183 15.04 4.71183 15.04 4.49583 15.256C4.27983 15.472 4.27983 15.832 4.49583 16.048L5.87983 17.44H0.759829C0.447829 17.44 0.199829 17.688 0.199829 18C0.199829 18.312 0.447829 18.56 0.759829 18.56H5.87983L4.49583 19.944C4.27983 20.16 4.27983 20.52 4.49583 20.736C4.60783 20.848 4.75183 20.904 4.89583 20.904C5.03983 20.904 5.18383 20.848 5.29583 20.736L7.63183 18.4C7.73583 18.296 7.79983 18.152 7.79983 18C7.79983 17.848 7.74383 17.704 7.63183 17.6Z" fill="#495965"/>
</svg>
