<svg width="32" height="32" viewBox="0 0 32 32" fill="none" xmlns="http://www.w3.org/2000/svg">
   <g clip-path="url(#clip0_1368_108)">
      <path d="M7.69324 13.9797L6.6048 25.0277C6.59966 25.0798 6.60549 25.1324 6.62191 25.1821C6.63833 25.2318 6.66498 25.2775 6.70014 25.3163C6.7353 25.3551 6.77819 25.3861 6.82606 25.4073C6.87392 25.4285 6.9257 25.4395 6.97805 25.4395H11.3284C11.3815 25.4395 11.4339 25.4282 11.4823 25.4065C11.5306 25.3847 11.5739 25.3529 11.609 25.3133C11.6442 25.2736 11.6706 25.2269 11.6864 25.1762C11.7022 25.1256 11.7071 25.0722 11.7007 25.0195L10.3627 13.9254L11.2725 14.599C12.6633 15.6389 14.3025 16.2959 16.0265 16.5044L17.1429 16.639C17.1578 16.6408 17.1728 16.6417 17.1878 16.6417C17.2552 16.6417 17.3214 16.6235 17.3794 16.5891C17.4373 16.5546 17.4849 16.5052 17.5172 16.446C17.5494 16.3867 17.5651 16.3199 17.5625 16.2525C17.56 16.1852 17.5393 16.1197 17.5027 16.0631L16.7753 14.9381C15.9453 13.6575 14.8323 12.5847 13.522 11.8024L11.4143 10.5149C11.3194 10.0067 11.0656 9.54177 10.6896 9.18698L10.7999 7.15704C10.8933 5.42737 10.5326 3.70337 9.75362 2.15623L9.2423 1.14154C9.21022 1.07787 9.16065 1.02467 9.09941 0.988172C9.03816 0.951673 8.96779 0.933388 8.89652 0.935461C8.82526 0.937534 8.75606 0.959879 8.69705 0.999876C8.63803 1.03987 8.59163 1.09586 8.5633 1.16129L8.03393 2.38379C7.42474 3.795 7.15023 5.328 7.23187 6.86291L7.35918 9.16104C6.94146 9.54356 6.6697 10.0594 6.59043 10.6202L4.60718 11.8C3.29539 12.5827 2.18104 13.6564 1.35018 14.9382L0.622804 16.0632C0.586207 16.1198 0.565552 16.1852 0.563011 16.2526C0.56047 16.32 0.576137 16.3868 0.608365 16.446C0.640592 16.5052 0.688187 16.5546 0.746141 16.5891C0.804094 16.6235 0.870261 16.6417 0.937679 16.6417C0.952698 16.6417 0.967702 16.6408 0.982617 16.639L2.09899 16.5044C3.8221 16.2961 5.46049 15.6397 6.85074 14.6006L7.69324 13.9797ZM7.3918 24.6895L8.50593 13.3808L8.53387 13.3602C8.86558 13.4263 9.20745 13.4227 9.53768 13.3495L10.9055 24.6895H7.3918ZM11.4168 11.3953L13.1347 12.4447C14.3472 13.1682 15.3773 14.1606 16.1454 15.3454L16.4385 15.7987L16.1162 15.7598C14.522 15.5668 13.0062 14.9591 11.7202 13.9973L10.3671 12.9954C10.6405 12.8127 10.8743 12.577 11.0547 12.3021C11.235 12.0272 11.3582 11.7188 11.4168 11.3953V11.3953ZM7.98074 6.82198C7.90531 5.40327 8.15905 3.98634 8.72212 2.68198L8.93312 2.19448L9.08387 2.4936C9.80384 3.92368 10.1373 5.51721 10.051 7.11598L9.9643 8.71041C9.66727 8.5845 9.34823 8.51871 9.02562 8.51683C8.70301 8.51495 8.38322 8.57703 8.08474 8.69948L7.98074 6.82198ZM9.01093 9.2671C9.34617 9.2671 9.67388 9.36651 9.95262 9.55275C10.2314 9.73899 10.4486 10.0037 10.5769 10.3134C10.7052 10.6231 10.7388 10.9639 10.6734 11.2927C10.6081 11.6215 10.4467 11.9236 10.2096 12.1606C9.9726 12.3977 9.6706 12.5592 9.34181 12.6246C9.01302 12.6901 8.67221 12.6565 8.36247 12.5283C8.05274 12.4 7.78798 12.1828 7.60169 11.9041C7.41539 11.6254 7.31593 11.2977 7.31587 10.9625C7.3163 10.513 7.49501 10.0821 7.81279 9.76425C8.13058 9.44641 8.56147 9.26761 9.01093 9.2671V9.2671ZM2.00912 15.7598L1.68687 15.7987L1.97993 15.3454C2.74802 14.1606 3.77811 13.1682 4.99068 12.4447L6.62043 11.475C6.68958 11.7944 6.8219 12.0968 7.00962 12.3644C7.19733 12.6319 7.43665 12.8593 7.71349 13.033L6.40355 13.9984C5.11795 14.9596 3.60274 15.567 2.00912 15.7598V15.7598Z" fill="#495965"/>
      <path d="M9.01065 12.0676C9.22928 12.0676 9.44301 12.0027 9.62479 11.8813C9.80658 11.7598 9.94826 11.5871 10.0319 11.3851C10.1156 11.1831 10.1374 10.9609 10.0948 10.7464C10.0521 10.532 9.94678 10.335 9.79216 10.1805C9.63754 10.0259 9.44055 9.92063 9.22611 9.87801C9.01166 9.8354 8.7894 9.85733 8.58742 9.94104C8.38545 10.0248 8.21283 10.1665 8.09141 10.3483C7.96999 10.5301 7.90521 10.7439 7.90527 10.9625C7.90569 11.2555 8.02229 11.5364 8.22951 11.7436C8.43672 11.9507 8.71764 12.0672 9.01065 12.0676V12.0676ZM9.01065 10.6068C9.08094 10.6068 9.14964 10.6277 9.20808 10.6667C9.26653 10.7058 9.31208 10.7613 9.33897 10.8262C9.36587 10.8911 9.37291 10.9626 9.3592 11.0315C9.34548 11.1005 9.31164 11.1638 9.26194 11.2135C9.21224 11.2632 9.14891 11.297 9.07998 11.3107C9.01104 11.3244 8.93959 11.3174 8.87465 11.2905C8.80972 11.2636 8.75421 11.2181 8.71516 11.1596C8.67612 11.1012 8.65527 11.0325 8.65527 10.9622C8.65539 10.868 8.69287 10.7776 8.75949 10.711C8.82611 10.6444 8.91643 10.6069 9.01065 10.6068V10.6068Z" fill="#495965"/>
      <path d="M30.65 20.5649C29.8202 19.2845 28.7073 18.2118 27.3972 17.4297L25.29 16.1422C25.1951 15.6341 24.9414 15.1692 24.5654 14.8144L24.6757 12.7849C24.769 11.0555 24.4084 9.33176 23.6296 7.78485L23.1184 6.77035C23.0863 6.70668 23.0367 6.65348 22.9755 6.61697C22.9142 6.58047 22.8439 6.56218 22.7726 6.56424C22.7013 6.56631 22.6321 6.58865 22.5731 6.62864C22.5141 6.66863 22.4677 6.72462 22.4394 6.79004L21.9102 8.01248C21.3012 9.42349 21.0268 10.9562 21.1084 12.4909L21.2357 14.7886C20.818 15.171 20.5462 15.6868 20.4669 16.2475L18.4842 17.4271C17.1726 18.2096 16.0584 19.2831 15.2276 20.5646L14.5004 21.6896C14.4617 21.7494 14.4409 21.8191 14.4403 21.8903C14.4398 21.9616 14.4595 22.0315 14.4973 22.0919C14.535 22.1524 14.5892 22.2008 14.6535 22.2315C14.7178 22.2623 14.7895 22.2741 14.8602 22.2655L15.9763 22.1312C17.6991 21.9229 19.3373 21.2666 20.7274 20.2277L21.5697 19.607L20.4813 30.6527C20.4762 30.7048 20.482 30.7574 20.4984 30.8071C20.5148 30.8568 20.5415 30.9025 20.5766 30.9413C20.6118 30.9801 20.6546 31.0111 20.7025 31.0323C20.7504 31.0535 20.8021 31.0645 20.8545 31.0645H25.2042C25.2572 31.0645 25.3096 31.0532 25.358 31.0315C25.4064 31.0097 25.4496 30.9779 25.4848 30.9383C25.52 30.8986 25.5463 30.8519 25.5621 30.8012C25.5779 30.7506 25.5828 30.6972 25.5765 30.6445L24.2387 19.5524L25.1483 20.2258C26.5388 21.2656 28.1777 21.9226 29.9015 22.1312L31.0177 22.2658C31.0884 22.2743 31.1601 22.2625 31.2244 22.2318C31.2887 22.201 31.3429 22.1526 31.3806 22.0922C31.4184 22.0317 31.4381 21.9618 31.4376 21.8906C31.437 21.8193 31.4162 21.7497 31.3775 21.6899L30.65 20.5649ZM21.8572 12.45C21.7819 11.0315 22.0355 9.61483 22.5985 8.31066L22.8094 7.8236L22.96 8.1226C23.6799 9.55244 24.0132 11.1457 23.927 12.7442L23.8404 14.3379C23.5434 14.212 23.2244 14.1463 22.9019 14.1444C22.5793 14.1425 22.2596 14.2046 21.9612 14.327L21.8572 12.45ZM22.8872 14.8947C23.2224 14.8947 23.55 14.994 23.8287 15.1803C24.1074 15.3665 24.3247 15.6311 24.453 15.9408C24.5812 16.2505 24.6148 16.5913 24.5494 16.92C24.484 17.2488 24.3226 17.5507 24.0856 17.7878C23.8486 18.0248 23.5466 18.1862 23.2179 18.2516C22.8891 18.317 22.5484 18.2834 22.2387 18.1552C21.929 18.0269 21.6643 17.8097 21.4781 17.531C21.2919 17.2523 21.1925 16.9246 21.1925 16.5894C21.193 16.1401 21.3717 15.7094 21.6894 15.3917C22.0071 15.074 22.4379 14.8953 22.8872 14.8948V14.8947ZM20.2802 19.6252C18.9948 20.5863 17.4798 21.1935 15.8864 21.3862L15.5643 21.425L15.8572 20.9719C16.6252 19.7874 17.6552 18.7952 18.8675 18.0719L20.4969 17.1025C20.5661 17.4219 20.6983 17.7242 20.886 17.9917C21.0737 18.2592 21.3129 18.4865 21.5897 18.6602L20.2802 19.6252ZM21.2684 30.3144L22.3823 19.0077L22.4102 18.9871C22.7419 19.0532 23.0836 19.0495 23.4138 18.9764L24.7813 30.3145L21.2684 30.3144ZM29.9913 21.3863C28.3973 21.1934 26.8818 20.5858 25.5961 19.6242L24.2432 18.6225C24.5166 18.4399 24.7504 18.2041 24.9307 17.9292C25.111 17.6543 25.2341 17.3459 25.2927 17.0225L27.0102 18.0717C28.2225 18.7949 29.2524 19.7871 30.0204 20.9717L30.3134 21.4248L29.9913 21.3863Z" fill="#495965"/>
      <path d="M22.8871 17.6948C23.1057 17.6948 23.3194 17.6299 23.5012 17.5085C23.6829 17.387 23.8246 17.2144 23.9082 17.0125C23.9919 16.8105 24.0138 16.5883 23.9711 16.3739C23.9285 16.1595 23.8232 15.9625 23.6686 15.808C23.5141 15.6534 23.3171 15.5481 23.1027 15.5055C22.8883 15.4628 22.6661 15.4847 22.4641 15.5684C22.2622 15.652 22.0896 15.7937 21.9681 15.9755C21.8467 16.1572 21.7819 16.3709 21.7819 16.5895C21.7821 16.8826 21.8987 17.1635 22.1059 17.3707C22.3131 17.578 22.5941 17.6945 22.8871 17.6948V17.6948ZM22.8871 16.2343C22.9574 16.2343 23.0261 16.2551 23.0845 16.2941C23.1429 16.3332 23.1884 16.3886 23.2153 16.4536C23.2422 16.5185 23.2492 16.5899 23.2355 16.6588C23.2218 16.7277 23.188 16.791 23.1383 16.8407C23.0886 16.8904 23.0253 16.9242 22.9564 16.9379C22.8875 16.9516 22.8161 16.9446 22.7512 16.9177C22.6862 16.8908 22.6308 16.8453 22.5917 16.7869C22.5527 16.7284 22.5319 16.6598 22.5319 16.5895C22.532 16.4953 22.5694 16.405 22.636 16.3384C22.7026 16.2718 22.7929 16.2344 22.8871 16.2343V16.2343Z" fill="#495965"/>
   </g>
   <defs>
      <clipPath id="clip0_1368_108">
         <rect width="32" height="32" fill="white"/>
      </clipPath>
   </defs>
</svg>
