<?xml version="1.0" encoding="utf-8"?>
<!-- Generator: Adobe Illustrator 27.9.0, SVG Export Plug-In . SVG Version: 6.00 Build 0)  -->
<svg version="1.1"
	 id="svg17967" xmlns:rdf="http://www.w3.org/1999/02/22-rdf-syntax-ns#" xmlns:dc="http://purl.org/dc/elements/1.1/" xmlns:cc="http://creativecommons.org/ns#" xmlns:svg="http://www.w3.org/2000/svg"
	 xmlns="http://www.w3.org/2000/svg" xmlns:xlink="http://www.w3.org/1999/xlink" x="0px" y="0px" viewBox="0 0 75 75"
	 style="enable-background:new 0 0 75 75;" xml:space="preserve">
<style type="text/css">
	.st0{fill:#008753;fill-opacity:0;}
	.st1{fill:#008753;}
</style>
<g id="layer1" transform="translate(27.592262,-219.51488)">
	<path id="rect815" class="st0" d="M-26.2,219.5H46c0.8,0,1.4,0.6,1.4,1.4v72.2c0,0.8-0.6,1.4-1.4,1.4h-72.2c-0.8,0-1.4-0.6-1.4-1.4
		v-72.2C-27.6,220.1-27,219.5-26.2,219.5z"/>
	<path id="rect1348" class="st1" d="M-0.6,227.9c-0.9,0-1.7,0.8-1.7,1.7v6.6h-5.1v-3.8c0-0.8-0.7-1.5-1.5-1.5h-6.6
		c-0.8,0-1.5,0.7-1.5,1.5v3.8h-2.1c-1.1,0-1.9,0.9-1.9,1.9v13.1c0,1.1,0.9,1.9,1.9,1.9h1.7c0,0,0,0.1,0,0.1v30.2
		c0,1.5,1.3,2.8,2.8,2.8h48.9c1.5,0,2.8-1.3,2.8-2.8v-30.2c0,0,0-0.1,0-0.1h1.8c1.1,0,1.9-0.9,1.9-1.9V238c0-1.1-0.9-1.9-1.9-1.9
		h-2.7v-3.8c0-0.8-0.7-1.5-1.5-1.5h-6.6c-0.8,0-1.5,0.7-1.5,1.5v3.8h-5.1v-6.6c0-0.9-0.8-1.7-1.7-1.7H-0.6z M0.4,230.5h18.4v5.5H0.4
		V230.5z M-14.4,233.3h4.4v2.6h-4.4V233.3z M29.1,233.3h4.4v2.6h-4.4V233.3z M-18.4,238.7h56.6v11.7h-3.6c-0.1,0-0.2,0-0.3,0h-48.9
		c-0.1,0-0.2,0-0.3,0h-3.5L-18.4,238.7z M-7.6,240c-0.7,0-1.3,0.6-1.3,1.3v2h-2c-0.7,0-1.3,0.6-1.3,1.3c0,0.7,0.6,1.3,1.3,1.3
		c0,0,0,0,0,0h2v2c0,0.7,0.6,1.3,1.3,1.3c0.7,0,1.3-0.6,1.3-1.3c0,0,0,0,0,0v-2h2c0.7,0,1.3-0.6,1.3-1.3c0-0.7-0.6-1.3-1.3-1.3
		c0,0,0,0,0,0h-2v-2C-6.3,240.6-6.9,240-7.6,240C-7.6,240-7.6,240-7.6,240z M22.1,243.3c-0.7,0-1.3,0.6-1.3,1.3s0.6,1.3,1.3,1.3
		c0,0,0,0,0,0h6.6c0.7,0,1.3-0.6,1.3-1.3c0-0.7-0.6-1.3-1.3-1.3c0,0,0,0,0,0H22.1z M-14.7,253.1h49.1c0,0,0,0.1,0,0.1v30.2
		c0,0.1,0,0.1-0.1,0.1h-48.9c-0.1,0-0.1,0-0.1-0.1v-30.2C-14.7,253.1-14.7,253.1-14.7,253.1L-14.7,253.1z"/>
</g>
</svg>
