<?xml version="1.0" encoding="utf-8"?>
<!-- Generator: Adobe Illustrator 27.9.0, SVG Export Plug-In . SVG Version: 6.00 Build 0)  -->
<svg version="1.1"
	 id="svg12277" xmlns:rdf="http://www.w3.org/1999/02/22-rdf-syntax-ns#" xmlns:dc="http://purl.org/dc/elements/1.1/" xmlns:cc="http://creativecommons.org/ns#" xmlns:svg="http://www.w3.org/2000/svg"
	 xmlns="http://www.w3.org/2000/svg" xmlns:xlink="http://www.w3.org/1999/xlink" x="0px" y="0px" viewBox="0 0 75 75"
	 style="enable-background:new 0 0 75 75;" xml:space="preserve">
<style type="text/css">
	.st0{fill:#54504C;}
</style>
<g id="layer1" transform="translate(143.78217,-180.9377)">
	<path id="path976" class="st0" d="M-72.3,197.5h-16.4v-1.8c0-1.9,1.6-3.5,3.5-3.5h1.2c0-0.2,0-0.4,0-0.6v-1.8h-1.2
		c-3.2,0-5.9,2.6-5.9,5.9v1.8h-4.7v-1.8c0-5.8,4.7-10.5,10.5-10.5h1.2v-1.8c0-0.2,0-0.4,0-0.6h-1.2c-7.1,0-12.9,5.8-12.9,12.9v1.8
		h-4.7v-2.9c0-2.6-1.7-4.9-4.2-5.6c0.1,0.8,0.1,1.7-0.1,2.5c1.2,0.6,2,1.8,2,3.1v2.9h-30.5v-2.9c0-1.3,0.8-2.6,2-3.1
		c-0.2-0.8-0.3-1.6-0.1-2.5c-2.5,0.7-4.2,3-4.2,5.6v2.9h-2.3c-1.9,0-3.5,1.6-3.5,3.5v41c0,1.9,1.6,3.5,3.5,3.5h2.2l2.2,5.1
		c0.2,0.4,0.6,0.7,1.1,0.7h7.9c0.5,0,0.9-0.3,1.1-0.7l2.2-5.1h34.8l2.2,5.1c0.2,0.4,0.6,0.7,1.1,0.7h7.9c0.5,0,0.9-0.3,1.1-0.7
		l2.2-5.1h2.2c1.9,0,3.5-1.6,3.5-3.5v-41C-68.8,199.1-70.4,197.5-72.3,197.5L-72.3,197.5z M-127.7,249.1h-6.4l-1.5-3.5h9.4
		L-127.7,249.1z M-78.5,249.1h-6.4l-1.5-3.5h9.4L-78.5,249.1z M-71.1,242.1c0,0.6-0.5,1.2-1.2,1.2h-68c-0.6,0-1.2-0.5-1.2-1.2v-2.3
		h70.3V242.1z M-71.1,237.4h-70.3V201c0-0.6,0.5-1.2,1.2-1.2h68c0.6,0,1.2,0.5,1.2,1.2V237.4z"/>
	<path id="path978" class="st0" d="M-109.8,202.8h-21.1c-1.3,0-2.3,1-2.3,2.3v1.2h-3.5c-0.6,0-1.2,0.5-1.2,1.2v4.7
		c0,0.6,0.5,1.2,1.2,1.2h3.5v10.5h-3.5c-0.6,0-1.2,0.5-1.2,1.2v4.7c0,0.6,0.5,1.2,1.2,1.2h3.5v1.2c0,1.3,1,2.3,2.3,2.3h21.1
		c1.3,0,2.3-1,2.3-2.3v-27C-107.5,203.9-108.5,202.8-109.8,202.8z M-133.2,228.6h-2.3v-2.3h2.3V228.6z M-133.2,211h-2.3v-2.3h2.3
		V211z M-130.9,232.1v-27h21.1l0,27H-130.9z"/>
	<path id="path980" class="st0" d="M-77,218h-21.1c-1.3,0-2.3,1-2.3,2.3v11.7c0,1.3,1,2.3,2.3,2.3H-77c1.3,0,2.3-1,2.3-2.3v-11.7
		C-74.6,219.1-75.7,218-77,218L-77,218z M-98.1,232.1v-11.7H-77l0,11.7H-98.1z"/>
	<path id="path982" class="st0" d="M-81.1,222.7H-94c-0.6,0-1.2,0.5-1.2,1.2c0,0.6,0.5,1.2,1.2,1.2h12.9c0.6,0,1.2-0.5,1.2-1.2
		C-79.9,223.2-80.4,222.7-81.1,222.7z"/>
	<path id="path984" class="st0" d="M-81.1,227.4H-94c-0.6,0-1.2,0.5-1.2,1.2c0,0.6,0.5,1.2,1.2,1.2h12.9c0.6,0,1.2-0.5,1.2-1.2
		C-79.9,227.9-80.4,227.4-81.1,227.4z"/>
	<path id="path988" class="st0" d="M-113.9,209.8h-12.9c-0.6,0-1.2,0.5-1.2,1.2v4.7c0,0.6,0.5,1.2,1.2,1.2h12.9
		c0.6,0,1.2-0.5,1.2-1.2V211C-112.7,210.4-113.3,209.8-113.9,209.8z M-115.1,214.5h-10.5v-2.3h10.5V214.5z"/>
	<path id="path990" class="st0" d="M-113.9,220.4h-12.9c-0.6,0-1.2,0.5-1.2,1.2v4.7c0,0.6,0.5,1.2,1.2,1.2h12.9
		c0.6,0,1.2-0.5,1.2-1.2v-4.7C-112.7,220.9-113.3,220.4-113.9,220.4z M-115.1,225.1h-10.5v-2.3h10.5V225.1z"/>
	<path id="path992" class="st0" d="M-83.8,194h2.3c1.3,0,2.3-1,2.3-2.3v-8.2c0-1.3-1-2.3-2.3-2.3h-2.3c-1.3,0-2.3,1-2.3,2.3v8.2
		C-86.2,193-85.1,194-83.8,194z M-83.8,183.5h2.3l0,8.2h-2.3L-83.8,183.5z"/>
	<path id="path994" class="st0" d="M-80.5,202.8c-3.2,0-5.9,2.6-5.9,5.9c0,3.2,2.6,5.9,5.9,5.9c3.2,0,5.9-2.6,5.9-5.9
		C-74.6,205.4-77.3,202.8-80.5,202.8z M-79.3,212v-2.1c0-0.6-0.5-1.2-1.2-1.2c-0.6,0-1.2,0.5-1.2,1.2v2.1c-1.8-0.6-2.8-2.7-2.1-4.5
		c0.6-1.8,2.7-2.8,4.5-2.1c1.8,0.6,2.8,2.7,2.1,4.5C-77.5,210.8-78.3,211.6-79.3,212z"/>
	<path id="path996" class="st0" d="M-94.6,214.5c3.2,0,5.9-2.6,5.9-5.9c0-3.2-2.6-5.9-5.9-5.9c-3.2,0-5.9,2.6-5.9,5.9
		C-100.4,211.9-97.8,214.5-94.6,214.5L-94.6,214.5z M-95.7,205.4v2.1c0,0.6,0.5,1.2,1.2,1.2c0.6,0,1.2-0.5,1.2-1.2v-2.1
		c1.8,0.6,2.8,2.7,2.1,4.5c-0.6,1.8-2.7,2.8-4.5,2.1s-2.8-2.7-2.1-4.5C-97.5,206.5-96.7,205.7-95.7,205.4z"/>
	<path id="rect5388" class="st0" d="M-128.9,184.1c-3,0-5.4,2.4-5.4,5.4c0,3,2.4,5.4,5.4,5.4h17.6c3,0,5.4-2.4,5.4-5.4
		c0-3-2.4-5.4-5.4-5.4H-128.9z M-128.9,186.5h17.6c1.7,0,3,1.3,3,3c0,1.7-1.3,3-3,3h-17.6c-1.7,0-3-1.3-3-3
		C-131.9,187.8-130.6,186.5-128.9,186.5z"/>
</g>
</svg>
