<?xml version="1.0" encoding="utf-8"?>
<!-- Generator: Adobe Illustrator 27.9.0, SVG Export Plug-In . SVG Version: 6.00 Build 0)  -->
<svg version="1.1"
	 id="svg4924" xmlns:rdf="http://www.w3.org/1999/02/22-rdf-syntax-ns#" xmlns:dc="http://purl.org/dc/elements/1.1/" xmlns:cc="http://creativecommons.org/ns#" xmlns:svg="http://www.w3.org/2000/svg"
	 xmlns="http://www.w3.org/2000/svg" xmlns:xlink="http://www.w3.org/1999/xlink" x="0px" y="0px" viewBox="0 0 75 75"
	 style="enable-background:new 0 0 75 75;" xml:space="preserve">
<style type="text/css">
	.st0{fill:#54504C;}
</style>
<g id="layer1" transform="translate(106.96726,-125.77679)">
	<path id="path1441" class="st0" d="M-98.9,131.6c-0.7,0-1.3,0.6-1.3,1.3s0.6,1.3,1.3,1.3c0,0,0,0,0,0h15.8c0.7,0,1.3-0.6,1.3-1.3
		c0-0.7-0.6-1.3-1.3-1.3c0,0,0,0,0,0H-98.9z M-77.9,131.6c-0.7,0-1.3,0.6-1.3,1.3s0.6,1.3,1.3,1.3c0,0,0,0,0,0h2.8v4.9h-6.4
		c-0.7,0-1.3,0.6-1.3,1.3s0.6,1.3,1.3,1.3c0,0,0,0,0,0h5.2c0,0,0,0,0,0l-8.9,53.8c-0.1,0.7,0.4,1.4,1.1,1.5c0.6,0.1,1.2-0.2,1.4-0.8
		l12.2-11.2l12.3,11.2c0.3,0.6,1.1,0.9,1.8,0.6c0.5-0.3,0.8-0.8,0.7-1.4l-8.1-49l0.1-0.1l-0.1-0.1l-0.8-4.7c0,0,0,0,0,0h6.1
		c0.7,0,1.3-0.6,1.3-1.3c0-0.7-0.6-1.3-1.3-1.3c0,0,0,0,0,0H-65v-4.9h2.9c0.7,0,1.3-0.6,1.3-1.3c0-0.7-0.6-1.3-1.3-1.3c0,0,0,0,0,0
		L-77.9,131.6z M-56.9,131.6c-0.7,0-1.3,0.6-1.3,1.3s0.6,1.3,1.3,1.3c0,0,0,0,0,0h15.8c0.7,0,1.3-0.6,1.3-1.3c0-0.7-0.6-1.3-1.3-1.3
		c0,0,0,0,0,0H-56.9z M-72.5,134.3h4.9v4.9h-2.2L-70,139l-0.1,0.2h-0.4l-0.1-0.2l-0.2,0.2h-1.7L-72.5,134.3z M-101.9,139.1
		c-0.7,0-1.3,0.6-1.3,1.3s0.6,1.3,1.3,1.3c0,0,0,0,0,0h15.8c0.7,0,1.3-0.6,1.3-1.3c0-0.7-0.6-1.3-1.3-1.3c0,0,0,0,0,0H-101.9z
		 M-53.9,139.1c-0.7,0-1.3,0.6-1.3,1.3s0.6,1.3,1.3,1.3c0,0,0,0,0,0h15.8c0.7,0,1.3-0.6,1.3-1.3c0-0.7-0.6-1.3-1.3-1.3c0,0,0,0,0,0
		H-53.9z M-73.8,141.8h1.3l-1.4,1.6l0.2-1.1C-73.7,142.1-73.7,141.9-73.8,141.8L-73.8,141.8z M-68.1,141.8h0.9c0,0.2,0,0.3,0,0.5
		l0.1,0.7L-68.1,141.8z M-70.3,143.3l2.7,3l-3,2.9l-2.7-2.7L-70.3,143.3z M-66.2,148.6l1,6l-3.5-3.5L-66.2,148.6z M-74.8,148.7
		l2.4,2.4l-3.4,3.3L-74.8,148.7z M-70.5,152.9l4.9,4.9l-4.9,4.9l-4.9-4.9L-70.5,152.9z M-64.2,160.2l1.7,10.5l-6.2-6.1L-64.2,160.2z
		 M-76.7,160.3l4.3,4.3l-6,6L-76.7,160.3z M-70.5,166.4l8,7.9l-7.9,7.2l-8-7.3L-70.5,166.4z M-61.5,176.9l2.5,15.2l-9.6-8.8
		L-61.5,176.9z M-79.5,176.9l7,6.4l-9.5,8.7L-79.5,176.9z"/>
</g>
</svg>
