<?xml version="1.0" encoding="utf-8"?>
<!-- Generator: Adobe Illustrator 27.9.0, SVG Export Plug-In . SVG Version: 6.00 Build 0)  -->
<svg version="1.1"
	 id="svg5607" xmlns:rdf="http://www.w3.org/1999/02/22-rdf-syntax-ns#" xmlns:dc="http://purl.org/dc/elements/1.1/" xmlns:cc="http://creativecommons.org/ns#" xmlns:svg="http://www.w3.org/2000/svg" xmlns:inkscape="http://www.inkscape.org/namespaces/inkscape" xmlns:sodipodi="http://sodipodi.sourceforge.net/DTD/sodipodi-0.dtd" inkscape:version="0.92.3 (2405546, 2018-03-11)" sodipodi:docname="production_pv.svg"
	 xmlns="http://www.w3.org/2000/svg" xmlns:xlink="http://www.w3.org/1999/xlink" x="0px" y="0px" viewBox="0 0 75 75"
	 style="enable-background:new 0 0 75 75;" xml:space="preserve">
<style type="text/css">
	.st0{fill:#54504C;}
</style>
<sodipodi:namedview  bordercolor="#666666" borderopacity="1" gridtolerance="10" guidetolerance="10" id="namedview9" inkscape:current-layer="layer1" inkscape:cx="50.000001" inkscape:cy="50.000001" inkscape:pageopacity="0" inkscape:pageshadow="2" inkscape:window-height="480" inkscape:window-maximized="0" inkscape:window-width="961" inkscape:window-x="67" inkscape:window-y="27" inkscape:zoom="2.3599999" objecttolerance="10" pagecolor="#ffffff" showgrid="false">
	</sodipodi:namedview>
<g id="layer1" transform="translate(116.79464,-135.60417)">
	<path id="path1753" class="st0" d="M-88.5,146.8l-0.1,0h-17.1c-0.7,0-1.3,0.6-1.3,1.3c0,0.1,0,0.2,0,0.3l4.4,16.8h-5.4
		c-0.7,0-1.3,0.6-1.3,1.3V197c0,0.7,0.6,1.3,1.3,1.3h51.5c0.7,0,1.3-0.6,1.3-1.3v-9.4h8.4c0.7,0,1.3-0.6,1.3-1.3c0-0.1,0-0.2,0-0.3
		l-10.3-38.3c-0.2-0.6-0.7-1-1.3-1h-14.6l0,0l-0.1,0L-88.5,146.8L-88.5,146.8z M-104,149.4h13.5l2.6,9.8h-13.6L-104,149.4z
		 M-87.7,149.4h14.1l2.6,9.8h-14.1L-87.7,149.4z M-70.9,149.4H-58l2.6,9.8h-12.9L-70.9,149.4z M-54.7,161.8l2.7,9.9H-65l-2.7-9.9
		L-54.7,161.8L-54.7,161.8z M-100.7,161.9h13.6l2.6,9.9H-98v0.2L-100.7,161.9z M-84.4,161.9h14.1l2.6,9.9h-14.1L-84.4,161.9z
		 M-106.7,167.8h4.8l5,18.9c0.2,0.6,0.7,1,1.3,1h37.8v8.1h-48.8V167.8z M-97.4,174.4h13.6l2.9,10.7h-13.7L-97.4,174.4z M-81,174.4
		H-67l2.9,10.7h-14.1L-81,174.4z M-64.3,174.4h12.9l2.9,10.7h-12.9L-64.3,174.4z"/>
</g>
</svg>
