<?xml version="1.0" encoding="UTF-8" standalone="no"?>
<svg
   xmlns:dc="http://purl.org/dc/elements/1.1/"
   xmlns:cc="http://creativecommons.org/ns#"
   xmlns:rdf="http://www.w3.org/1999/02/22-rdf-syntax-ns#"
   xmlns:svg="http://www.w3.org/2000/svg"
   xmlns="http://www.w3.org/2000/svg"
   id="svg8"
   version="1.1"
   viewBox="0 0 57.943748 57.943749"
   height="57.943748mm"
   width="57.943748mm">
  <defs
     id="defs2">
    <filter
       id="filter1002"
       style="color-interpolation-filters:sRGB">
      <feFlood
         id="feFlood992"
         result="flood"
         flood-color="rgb(0,46,80)"
         flood-opacity="0.180392" />
      <feComposite
         id="feComposite994"
         result="composite1"
         operator="in"
         in2="SourceGraphic"
         in="flood" />
      <feGaussianBlur
         id="feGaussianBlur996"
         result="blur"
         stdDeviation="9.1"
         in="composite1" />
      <feOffset
         id="feOffset998"
         result="offset"
         dy="0"
         dx="0" />
      <feComposite
         id="feComposite1000"
         result="composite2"
         operator="over"
         in2="offset"
         in="SourceGraphic" />
    </filter>
    <filter
       id="filter1014"
       style="color-interpolation-filters:sRGB">
      <feFlood
         id="feFlood1004"
         result="flood"
         flood-color="rgb(0,46,80)"
         flood-opacity="0.180392" />
      <feComposite
         id="feComposite1006"
         result="composite1"
         operator="in"
         in2="SourceGraphic"
         in="flood" />
      <feGaussianBlur
         id="feGaussianBlur1008"
         result="blur"
         stdDeviation="9.1"
         in="composite1" />
      <feOffset
         id="feOffset1010"
         result="offset"
         dy="0"
         dx="0" />
      <feComposite
         id="feComposite1012"
         result="composite2"
         operator="over"
         in2="offset"
         in="SourceGraphic" />
    </filter>
    <filter
       style="color-interpolation-filters:sRGB"
       id="filter1002-2">
      <feFlood
         flood-opacity="0.180392"
         flood-color="rgb(0,46,80)"
         result="flood"
         id="feFlood992-2" />
      <feComposite
         in="flood"
         in2="SourceGraphic"
         operator="in"
         result="composite1"
         id="feComposite994-4" />
      <feGaussianBlur
         in="composite1"
         stdDeviation="9.1"
         result="blur"
         id="feGaussianBlur996-7" />
      <feOffset
         dx="0"
         dy="0"
         result="offset"
         id="feOffset998-7" />
      <feComposite
         in="SourceGraphic"
         in2="offset"
         operator="over"
         result="composite2"
         id="feComposite1000-5" />
    </filter>
    <filter
       style="color-interpolation-filters:sRGB"
       id="filter1014-4">
      <feFlood
         flood-opacity="0.180392"
         flood-color="rgb(0,46,80)"
         result="flood"
         id="feFlood1004-8" />
      <feComposite
         in="flood"
         in2="SourceGraphic"
         operator="in"
         result="composite1"
         id="feComposite1006-1" />
      <feGaussianBlur
         in="composite1"
         stdDeviation="9.1"
         result="blur"
         id="feGaussianBlur1008-2" />
      <feOffset
         dx="0"
         dy="0"
         result="offset"
         id="feOffset1010-8" />
      <feComposite
         in="SourceGraphic"
         in2="offset"
         operator="over"
         result="composite2"
         id="feComposite1012-9" />
    </filter>
  </defs>
  <metadata
     id="metadata5">
    <rdf:RDF>
      <cc:Work
         rdf:about="">
        <dc:format>image/svg+xml</dc:format>
        <dc:type
           rdf:resource="http://purl.org/dc/dcmitype/StillImage" />
        <dc:title></dc:title>
      </cc:Work>
    </rdf:RDF>
  </metadata>
  <g
     transform="translate(-143.57642,685.11224)"
     style="display:inline"
     id="layer1" />
  <g
     transform="translate(-143.57642,685.11224)"
     style="display:inline"
     id="layer2">
    <rect
       y="-685.11224"
       x="143.57642"
       height="57.943748"
       width="57.943748"
       id="rect2298"
       style="opacity:1;fill:#e6e6e6;fill-opacity:0;stroke:none;stroke-width:4;stroke-linecap:round;stroke-linejoin:round;stroke-miterlimit:4;stroke-dasharray:none;stroke-dashoffset:0;stroke-opacity:1;paint-order:normal" />
    <g
       transform="translate(2.1166667)"
       id="g2069" />
    <g
       style="fill:#ffffff;fill-opacity:1;stroke-width:0.12555267"
       transform="matrix(0.54924286,0,0,0.55220262,730.26785,-856.46939)"
       id="g1278">
      <path
         style="fill:#ffffff;fill-opacity:1;stroke:none;stroke-width:0.48043099px;stroke-linecap:butt;stroke-linejoin:miter;stroke-opacity:1"
         d="m 125.31542,904.05438 h 64.15693 l -12.37516,-33.75063 h -39.4066 z"
         id="path1274" />
      <path
         id="path1162"
         overflow="visible"
         display="inline"
         visibility="visible"
         marker="none"
         d="m 136.23636,868.44279 c -0.68275,0.0667 -1.30716,0.55207 -1.53977,1.19724 l -13.68681,37.39944 c -0.40132,1.09659 0.54289,2.44937 1.71085,2.45148 h 32.84835 v 10.94607 h -9.29563 c -0.95552,0.0448 -1.78415,0.95457 -1.73937,1.90985 0.0448,0.95528 0.95493,1.78365 1.91045,1.73886 h 21.8989 c 0.96412,0.0141 1.85088,-0.86042 1.85088,-1.82431 0,-0.96398 -0.88676,-1.83802 -1.85088,-1.8244 h -9.12454 v -10.94607 h 32.84835 c 1.16796,0 2.11217,-1.35489 1.71086,-2.45148 l -13.68682,-37.39944 c -0.2548,-0.69576 -0.96975,-1.1961 -1.71085,-1.19724 z m 1.45423,3.64872 h 10.43618 l -1.28314,8.20959 h -12.17556 z m 14.086,0 h 13.05951 l 1.25462,8.20959 h -15.56875 z m 16.70932,0 h 8.61128 l 3.02251,8.20959 h -10.35065 z m -35.12948,11.8584 h 12.94544 l -1.42572,9.12166 h -14.85588 z m 16.59525,0 h 16.70931 l 1.3972,9.12166 h -19.50371 z m 20.35913,0 h 11.12054 l 3.33616,9.12166 h -13.03099 z m -41.65923,12.77038 h 15.68281 l -1.42571,9.12185 h -17.59326 z m 19.33263,0 h 20.64427 l 1.3972,9.12185 h -23.43867 z m 24.29408,0 h 13.8579 l 3.33616,9.12185 H 173.704 Z"
         style="color:#000000;text-indent:0;text-transform:none;direction:ltr;baseline-shift:baseline;display:inline;overflow:visible;visibility:visible;fill:#ffffff;fill-opacity:1;stroke:none;stroke-width:0.12555268;enable-background:accumulate" />
    </g>
    <g
       transform="matrix(0.90417087,0,0,0.90417087,71.38358,-732.16964)"
       id="g2207"
       style="fill:#000000;fill-opacity:1;stroke-width:0.45722714">
      <path
         style="fill:#000000;fill-opacity:1;stroke-width:0.45722714"
         d="M 53,22 C 53,10.42 43.579,1 32,1 20.421,1 11,10.42 11,22 c 0,7.749 4.198,14.762 11,18.448 V 43 h -2 v 2 h 2 v 2 h -2 v 2 h 2 v 3 c 0,0.552 0.447,1 1,1 h 1 v 3 c 0,0.552 0.447,1 1,1 h 1 c 0,3.309 2.691,6 6,6 3.309,0 6,-2.691 6,-6 h 1 c 0.553,0 1,-0.448 1,-1 v -3 h 1 c 0.553,0 1,-0.448 1,-1 v -3 h 2 v -2 h -2 v -2 h 2 V 43 H 42 V 40.448 C 48.802,36.762 53,29.749 53,22 Z M 32,61 c -2.206,0 -4,-1.794 -4,-4 h 8 c 0,2.206 -1.794,4 -4,4 z m 6,-6 H 26 v -2 h 12 z m 2,-4 H 24 v -2 h 16 z m 0,-4 H 24 V 45 H 40 Z M 33,43 V 33 h 5 c 4.963,0 9,-4.038 9,-9 0,-0.552 -0.447,-1 -1,-1 h -6 c -2.826,0 -5.349,1.312 -7,3.356 V 21 h 3 c 3.859,0 7,-3.14 7,-7 0,-0.552 -0.447,-1 -1,-1 h -4 c -2.548,0 -4.775,1.373 -6,3.413 C 30.775,14.373 28.548,13 26,13 h -4 c -0.553,0 -1,0.448 -1,1 0,3.86 3.141,7 7,7 h 3 v 5.356 C 29.349,24.312 26.826,23 24,23 h -6 c -0.553,0 -1,0.448 -1,1 0,4.962 4.037,9 9,9 h 5 V 43 H 24 V 39.843 C 24,39.466 23.788,39.121 23.451,38.95 17.005,35.692 13,29.197 13,22 13,11.523 21.523,3 32,3 42.477,3 51,11.523 51,22 51,29.197 46.995,35.692 40.549,38.95 40.212,39.121 40,39.465 40,39.843 V 43 Z M 33.071,31 C 33.557,27.612 36.479,25 40,25 h 4.929 C 44.443,28.388 41.521,31 38,31 Z m 0.03,-12 C 33.566,16.721 35.585,15 38,15 h 2.899 C 40.434,17.279 38.415,19 36,19 Z m -2.202,0 H 28 c -2.415,0 -4.435,-1.721 -4.899,-4 H 26 c 2.415,0 4.435,1.721 4.899,4 z m 0.03,12 H 26 c -3.521,0 -6.442,-2.612 -6.929,-6 H 24 c 3.521,0 6.442,2.612 6.929,6 z"
         id="path2196" />
    </g>
    <g
       transform="matrix(0.12108473,0,0,0.12108473,141.58311,-689.12685)"
       id="g2253"
       style="fill:#ffffff;stroke-width:0.42677909;fill-opacity:1">
      <g
         style="stroke-width:0.42677909;fill:#ffffff;fill-opacity:1"
         id="g2231">
        <g
           style="stroke-width:0.42677909;fill:#ffffff;fill-opacity:1"
           id="g2229">
          <path
             style="stroke-width:0.42677909;fill:#ffffff;fill-opacity:1"
             d="m 380.1,435.1 h -0.3 c -14,0 -27.7,-2.6 -40.8,-7.6 -31.5,-12.1 -56.1,-37.9 -67,-69.6 h -32.2 c -7.8,22.9 -22.9,43 -43,56.9 -19.1,13.3 -41.5,20.3 -64.8,20.4 -0.1,0 -0.2,0 -0.3,0 C 69,435.1 17.8,383.9 17.8,321 17.8,258.1 69,206.9 131.9,206.9 h 0.2 c 0,0 0.1,0 0.1,0 H 380 c 0,0 0.1,0 0.1,0 62.9,0 114.1,51.2 114.1,114.1 0,62.9 -51.2,114.1 -114.1,114.1 z M 131.8,222.9 c -54,0.1 -98,44.1 -98,98.1 0,54.1 44,98.1 98,98.1 0.1,0 0.2,0 0.3,0 20,0 39.3,-6.1 55.8,-17.5 18.7,-13 32.4,-32.1 38.5,-53.9 l 1.6,-5.8 h 56 l 1.6,5.8 c 8.3,29.6 30.4,53.8 59.1,64.9 11.3,4.3 23.1,6.5 35.2,6.6 h 0.3 c 54.1,-0.1 98,-44.1 98,-98.1 0,-54.1 -43.9,-98.1 -98,-98.1 h -0.5 -0.1 -247.3 c -0.1,0 -0.2,0 -0.3,0 z"
             id="path2209" />
          <g
             style="stroke-width:0.42677909;fill:#ffffff;fill-opacity:1"
             id="g2219">
            <path
               style="stroke-width:0.42677909;fill:#ffffff;fill-opacity:1"
               d="m 417.7,344.2 c -13.1,0 -23.8,-10.7 -23.8,-23.8 0,-13.1 10.7,-23.8 23.8,-23.8 13.1,0 23.8,10.7 23.8,23.8 0,13.1 -10.7,23.8 -23.8,23.8 z m 0,-31.6 c -4.3,0 -7.8,3.5 -7.8,7.8 0,4.3 3.5,7.8 7.8,7.8 4.3,0 7.8,-3.5 7.8,-7.8 0,-4.3 -3.5,-7.8 -7.8,-7.8 z"
               id="path2211" />
            <path
               style="stroke-width:0.42677909;fill:#ffffff;fill-opacity:1"
               d="m 335.7,344.2 c -13.1,0 -23.8,-10.7 -23.8,-23.8 0,-13.1 10.7,-23.8 23.8,-23.8 13.1,0 23.8,10.7 23.8,23.8 0,13.1 -10.7,23.8 -23.8,23.8 z m 0,-31.6 c -4.3,0 -7.8,3.5 -7.8,7.8 0,4.3 3.5,7.8 7.8,7.8 4.3,0 7.8,-3.5 7.8,-7.8 0,-4.3 -3.5,-7.8 -7.8,-7.8 z"
               id="path2213" />
            <path
               style="stroke-width:0.42677909;fill:#ffffff;fill-opacity:1"
               d="m 377.1,295.6 c -13.1,0 -23.8,-10.7 -23.8,-23.8 0,-13.1 10.7,-23.8 23.8,-23.8 13.1,0 23.8,10.7 23.8,23.8 -0.1,13.2 -10.7,23.8 -23.8,23.8 z m 0,-31.5 c -4.3,0 -7.8,3.5 -7.8,7.8 0,4.3 3.5,7.8 7.8,7.8 4.3,0 7.8,-3.5 7.8,-7.8 0,-4.3 -3.5,-7.8 -7.8,-7.8 z"
               id="path2215" />
            <path
               style="stroke-width:0.42677909;fill:#ffffff;fill-opacity:1"
               d="m 377.1,393.9 c -13.1,0 -23.8,-10.7 -23.8,-23.8 0,-13.1 10.7,-23.8 23.8,-23.8 13.1,0 23.8,10.7 23.8,23.8 -0.1,13.2 -10.7,23.8 -23.8,23.8 z m 0,-31.5 c -4.3,0 -7.8,3.5 -7.8,7.8 0,4.3 3.5,7.8 7.8,7.8 4.3,0 7.8,-3.5 7.8,-7.8 0,-4.3 -3.5,-7.8 -7.8,-7.8 z"
               id="path2217" />
          </g>
          <path
             style="stroke-width:0.42677909;fill:#ffffff;fill-opacity:1"
             d="m 157.9,377.2 h -40 c -4.4,0 -8,-3.6 -8,-8 V 347.8 H 86.8 c -4.4,0 -8,-3.6 -8,-8 v -37.7 c 0,-4.4 3.6,-8 8,-8 H 110 v -21.4 c 0,-4.4 3.6,-8 8,-8 h 40 c 4.4,0 8,3.6 8,8 v 21.4 h 23.2 c 4.4,0 8,3.6 8,8 v 37.7 c 0,4.4 -3.6,8 -8,8 H 166 v 21.4 c -0.1,4.5 -3.7,8 -8.1,8 z m -32,-16 h 24 v -21.4 c 0,-4.4 3.6,-8 8,-8 h 23.2 v -21.7 h -23.2 c -4.4,0 -8,-3.6 -8,-8 v -21.4 h -24 v 21.4 c 0,4.4 -3.6,8 -8,8 H 94.8 v 21.7 H 118 c 4.4,0 8,3.6 8,8 v 21.4 z"
             id="path2221" />
          <g
             style="stroke-width:0.42677909;fill:#ffffff;fill-opacity:1"
             id="g2227">
            <path
               style="stroke-width:0.42677909;fill:#ffffff;fill-opacity:1"
               d="M 324.3,222.9 H 196.2 c -4.7,0 -8.5,-3.8 -8.5,-8.5 v -25.1 c 0,-12.1 9.8,-21.9 21.9,-21.9 h 92.1 c 12.5,0 22.6,10.1 22.6,22.6 z m -120.6,-16 H 308.3 V 190 c 0,-3.7 -3,-6.6 -6.6,-6.6 h -92.1 c -3.2,0 -5.9,2.6 -5.9,5.9 z"
               id="path2223" />
            <path
               style="stroke-width:0.42677909;fill:#ffffff;fill-opacity:1"
               d="m 239.1,183.3 c -3.6,0 -6.8,-2.4 -7.7,-6 -3.3,-12.6 -2,-22 3.9,-27.9 7.2,-7.2 17.3,-6.4 25.4,-5.8 3,0.2 8.6,0.6 9.9,-0.2 1.5,-1.8 2.2,-7.7 -1.3,-11.1 -5.2,-5.1 -15.1,-4.1 -23.1,-3.4 -8.3,0.8 -17,1.6 -20.7,-6 -4,-8.2 3.5,-15.8 6.7,-19.1 5.9,-6 16.2,-14.3 31.5,-25.4 3.6,-2.6 8.6,-1.8 11.2,1.8 2.6,3.6 1.8,8.6 -1.8,11.2 -14.6,10.5 -22.7,17.2 -27.2,21.4 10.1,-1 24.6,-1.9 34.7,8 9.8,9.6 9.1,24.7 2.3,32.8 -6,7.2 -15.6,6.5 -23.3,5.9 -5.1,-0.4 -10.9,-0.8 -12.9,1.2 -0.9,0.9 -1.8,4.5 0.3,12.6 1.1,4.3 -1.5,8.6 -5.7,9.7 -0.9,0.2 -1.5,0.3 -2.2,0.3 z"
               id="path2225" />
          </g>
        </g>
      </g>
    </g>
    <g
       transform="matrix(0.40088384,0,0,0.40088384,319.89369,-712.63418)"
       id="g2275"
       style="fill:#000000">
      <g
         id="g2261">
        <path
           d="M 61.5,1 H 4.5 C 2.6,1 1.1,2.5 1.1,4.4 v 0.5 c 0,1.5 1,2.7 2.4,3.2 v 37 c 0,2.6 2,4.7 4.4,4.7 h 11 l -7,9.9 c -1.1,1.5 -0.7,3.6 0.8,4.7 1.5,1.1 3.6,0.7 4.7,-0.8 l 9.7,-13.8 h 11.8 l 9.6,13.8 c 1,1.5 3.1,1.9 4.7,0.8 1.5,-1.1 1.9,-3.2 0.8,-4.7 l -7,-9.9 h 11 c 2.4,0 4.4,-2.1 4.4,-4.7 V 8 C 63.8,7.6 64.7,6.3 64.7,4.8 V 4.4 C 64.9,2.5 63.4,1 61.5,1 Z M 15.8,62.4 c -0.4,0.6 -1.3,0.7 -1.9,0.3 -0.6,-0.4 -0.8,-1.3 -0.3,-1.9 l 7.8,-11.1 h 3.3 z m 36.6,-1.5 c 0.4,0.6 0.3,1.5 -0.3,1.9 -0.6,0.4 -1.5,0.3 -1.9,-0.3 L 41.4,49.9 h 3.3 z m 8.1,-15.8 c 0,1.5 -1.1,2.7 -2.4,2.7 -22.9,0 -28.3,0 -50.2,0 -1.3,0 -2.4,-1.2 -2.4,-2.7 V 8.2 h 55 z M 62.9,4.8 c 0,0.8 -0.6,1.4 -1.4,1.4 H 4.5 C 3.7,6.2 3.1,5.6 3.1,4.8 V 4.4 C 3.1,3.6 3.7,3 4.5,3 h 57 c 0.8,0 1.4,0.6 1.4,1.4 z"
           id="path2255" />
        <path
           d="m 14.4,42.4 h 36.9 c 0.6,0 1,-0.4 1,-1 0,-0.6 -0.4,-1 -1,-1 h -2.2 v -1.1 c 0,-0.6 -0.4,-1 -1,-1 -0.6,0 -1,0.4 -1,1 v 1.1 h -4.8 v -1.1 c 0,-0.6 -0.4,-1 -1,-1 -0.6,0 -1,0.4 -1,1 v 1.1 h -4.8 v -1.1 c 0,-0.6 -0.4,-1 -1,-1 -0.6,0 -1,0.4 -1,1 v 1.1 h -4.8 v -1.1 c 0,-0.6 -0.4,-1 -1,-1 -0.6,0 -1,0.4 -1,1 v 1.1 h -4.8 v -1.1 c 0,-0.6 -0.4,-1 -1,-1 -0.6,0 -1,0.4 -1,1 v 1.1 h -4.6 v -1.9 h 1.1 c 0.6,0 1,-0.4 1,-1 0,-0.6 -0.4,-1 -1,-1 h -1.1 v -3.8 h 1.1 c 0.6,0 1,-0.4 1,-1 0,-0.6 -0.4,-1 -1,-1 H 15.3 V 27 h 1.1 c 0.6,0 1,-0.4 1,-1 0,-0.6 -0.4,-1 -1,-1 h -1.1 v -3.8 h 1.1 c 0.6,0 1,-0.4 1,-1 0,-0.6 -0.4,-1 -1,-1 h -1.1 v -3.8 h 1.1 c 0.6,0 1,-0.4 1,-1 0,-0.6 -0.4,-1 -1,-1 h -1.1 v -1 c 0,-0.6 -0.4,-1 -1,-1 -0.6,0 -1,0.4 -1,1 v 29 c 0.1,0.6 0.5,1 1.1,1 z"
           id="path2257" />
        <path
           d="m 25.4,33.3 9.2,-9.1 6.6,5.1 c 0.4,0.3 1,0.3 1.4,-0.1 l 7.7,-8.6 0.4,1.5 c 0.4,1.3 2.3,0.7 1.9,-0.5 L 51.7,18.3 C 51.6,17.8 51.1,17.5 50.6,17.6 L 46.9,18 c -0.5,0.1 -0.9,0.6 -0.9,1.1 0.1,0.5 0.6,0.9 1.1,0.9 l 1.1,-0.1 -6.5,7.2 -6.6,-5 c -0.4,-0.3 -1,-0.3 -1.3,0.1 L 24,31.9 c -0.4,0.4 -0.4,1 0,1.4 0.4,0.4 1,0.4 1.4,0 z"
           id="path2259" />
      </g>
    </g>
  </g>
</svg>
