<?xml version="1.0" encoding="UTF-8"?>
<svg id="Layer_1" data-name="Layer 1" xmlns="http://www.w3.org/2000/svg" viewBox="0 0 100 100">
  <defs>
    <style>
      .cls-1 {
        fill: #825f08;
      }
    </style>
  </defs>
  <path class="cls-1" d="m88.02,67.19l-27.19-46.88c-2.29-3.86-6.36-6.25-10.83-6.25s-8.54,2.29-10.83,6.25l-27.19,46.88c-2.29,3.96-2.29,8.54,0,12.5s6.36,6.25,10.83,6.25h54.38c4.48,0,8.54-2.29,10.83-6.25,2.29-3.96,2.29-8.54,0-12.5h0Zm-7.19,8.33c-.31.62-1.46,2.08-3.64,2.08H22.81c-2.19,0-3.23-1.45-3.64-2.08-.42-.62-1.04-2.29,0-4.17l27.19-46.88c1.04-1.88,2.92-2.08,3.64-2.08s2.5.21,3.64,2.08l27.19,46.88c1.04,1.88.31,3.54,0,4.16h0Z"/>
  <path class="cls-1" d="m45.83,36.98h8.33v23.96h-8.33v-23.96Z"/>
  <path class="cls-1" d="m45.83,65.11h8.33v8.33h-8.33v-8.33Z"/>
</svg>