<svg width="0" height="0" class="hidden">
  <symbol xmlns="http://www.w3.org/2000/svg" viewBox="0 0 20 20" id="add">
    <title>ic_new_question_20px</title>
    <path d="M9 9H5.995C5.455 9 5 9.448 5 10c0 .556.446 1 .995 1H9v3.005c0 .54.448.995 1 .995.556 0 1-.446 1-.995V11h3.005c.54 0 .995-.448.995-1 0-.556-.446-1-.995-1H11V5.995c0-.54-.448-.995-1-.995-.556 0-1 .446-1 .995V9zm1 11C4.477 20 0 15.523 0 10S4.477 0 10 0s10 4.477 10 10-4.477 10-10 10z" fill-rule="evenodd"></path>
  </symbol>
  <symbol xmlns="http://www.w3.org/2000/svg" viewBox="0 0 100 100" id="close">
    <path d="M61.2 50.5l32.1 32.1c3 3 3 7.7 0 10.7-3 3-7.7 3-10.7 0L50.5 61.2 18.4 93.3c-3 3-7.7 3-10.7 0-3-3-3-7.7 0-10.7l32.1-32.1L7.7 18.4c-3-3-3-7.7 0-10.7s7.7-3 10.7 0l32.1 32.1L82.6 7.7c3-3 7.7-3 10.7 0 3 3 3 7.7 0 10.7L61.2 50.5z" fill-rule="evenodd" clip-rule="evenodd"></path>
  </symbol>
  <symbol xmlns="http://www.w3.org/2000/svg" viewBox="1 -1 100 100" id="delete">
    <path d="M65.1 17.8V6.5H35.8v11.3H11.4v6.1h7.3l5.2 67.7h53.3l5.2-67.7h8.3v-6.1H65.1zm-6-5.3v5.2H41.9v-5.2h17.2zM29.4 85.4l-4.7-61.6h51.5l-4.8 61.6h-42z"></path>
    <path d="M47.4 32.6h6.1v44.3h-6.1zm17.301 44.486l-6.09-.331 2.407-44.334 6.09.331zm-28.515-.001l-2.401-44.333 6.09-.33 2.402 44.333z"></path>
  </symbol>
  <symbol xmlns="http://www.w3.org/2000/svg" fill="none" viewBox="0 0 32 32" id="duplicate">
    <path fill-rule="evenodd" clip-rule="evenodd" d="M10 2a1 1 0 00-1 1v4H5a1 1 0 00-1 1v21a1 1 0 001 1h16a1 1 0 001-1v-4h5a1 1 0 001-1V3a1 1 0 00-1-1H10zm12 21h4V4H11v3h10a1 1 0 011 1v15zM6 28V9h14v19H6z" fill="#000"></path>
  </symbol>
  <symbol xmlns="http://www.w3.org/2000/svg" viewBox="0 0 27 27" id="edit">
    <path d="M19.3.3c.4-.4 1-.4 1.4 0l6 6c.4.4.4 1 0 1.4l-17 17c-.1.1-.3.2-.5.3l-8 2c-.7.2-1.4-.5-1.2-1.2l2-8c0-.2.1-.3.3-.5l17-17zM16 6.4L3.9 18.5l-1.5 6.1 6.1-1.5L20.6 11 16 6.4zm4-4L17.4 5 22 9.6 24.6 7 20 2.4z"></path>
  </symbol>
  <symbol xmlns="http://www.w3.org/2000/svg" viewBox="0 0 216 146" id="empty_file">
    <path d="M158.514 47.58c-1.086-2.607-2.389-4.67-3.91-6.191l-25.42-25.42c-1.521-1.52-3.584-2.824-6.191-3.911-2.607-1.086-4.997-1.629-7.169-1.629H63.679c-2.172 0-4.019.76-5.54 2.281-1.521 1.52-2.281 3.367-2.281 5.54v109.5c0 2.173.76 4.02 2.281 5.54s3.368 2.281 5.54 2.281h88.644c2.172 0 4.018-.761 5.538-2.281 1.521-1.521 2.281-3.367 2.281-5.54v-73c.001-2.173-.542-4.563-1.628-7.17zM118.43 21.509c1.574.543 2.688 1.141 3.34 1.792l25.502 25.502c.65.652 1.248 1.765 1.791 3.34H118.43V21.509zm31.285 103.634H66.286V20.858H108v33.893c0 2.173.76 4.019 2.281 5.54 1.521 1.52 3.367 2.281 5.541 2.281h33.893v62.571z"></path>
  </symbol>
  <symbol xmlns="http://www.w3.org/2000/svg" viewBox="0 0 100 100" id="export">
    <title>Upload s26.4</title>
    <path d="M69.945 63.945a3.5 3.5 0 01-4.95-4.95c8.006-8.005 8.006-20.985 0-28.99-8.005-8.006-20.985-8.006-28.99 0-8.006 8.005-8.006 20.985 0 28.99a3.5 3.5 0 01-4.95 4.95c-10.74-10.739-10.74-28.151 0-38.89 10.739-10.74 28.151-10.74 38.89 0 10.74 10.739 10.74 28.151 0 38.89zm-17.4-28.8L62.57 45.38c2.82 2.828-1.41 7.07-4.23 4.243l-3.433-3.455c-.781-.787-1.415-.528-1.415.578v32.759c0 1.65-1.34 2.994-2.992 2.994a2.995 2.995 0 01-2.991-2.994V46.747c0-1.107-.634-1.365-1.415-.578l-3.433 3.455c-2.82 2.828-7.051-1.415-4.231-4.243l9.923-10.222a2.908 2.908 0 014.191-.014z" fill-rule="evenodd"></path>
  </symbol>
  <symbol xmlns="http://www.w3.org/2000/svg" viewBox="0 0 100 100" id="eye">
    <path d="M50 80C18.595 80 3.025 52.622 2.378 51.458a2.999 2.999 0 010-2.915C3.025 47.378 18.595 20 50 20s46.975 27.378 47.622 28.542a2.999 2.999 0 010 2.915C96.975 52.622 81.405 80 50 80zM8.53 49.996C12.099 55.404 26.11 74 50 74c23.966 0 37.915-18.582 41.47-23.996C87.901 44.596 73.89 26 50 26 26.034 26 12.085 44.582 8.53 49.996zM50 68c-9.926 0-18-8.074-18-18s8.074-18 18-18 18 8.074 18 18-8.074 18-18 18zm0-30c-6.617 0-12 5.383-12 12s5.383 12 12 12 12-5.383 12-12-5.383-12-12-12z"></path>
  </symbol>
  <symbol xmlns="http://www.w3.org/2000/svg" viewBox="0 0 216 146" id="file">
    <path d="M158.514 47.58c-1.086-2.607-2.389-4.67-3.91-6.191l-25.42-25.42c-1.521-1.52-3.584-2.824-6.191-3.911-2.607-1.086-4.997-1.629-7.169-1.629H63.679c-2.172 0-4.019.76-5.54 2.281-1.521 1.52-2.281 3.367-2.281 5.54v109.5c0 2.173.76 4.02 2.281 5.54s3.368 2.281 5.54 2.281h88.644c2.172 0 4.018-.761 5.538-2.281 1.521-1.521 2.281-3.367 2.281-5.54v-73c.001-2.173-.542-4.563-1.628-7.17zM118.43 21.509c1.574.543 2.688 1.141 3.34 1.792l25.502 25.502c.65.652 1.248 1.765 1.791 3.34H118.43V21.509zm31.285 103.634H66.286V20.858H108v33.893c0 2.173.76 4.019 2.281 5.54 1.521 1.52 3.367 2.281 5.541 2.281h33.893v62.571z"></path>
    <path d="M136.68 93.857H79.322c-.76 0-1.385.244-1.874.732-.488.489-.733 1.114-.733 1.874v5.215c0 .761.244 1.386.733 1.874.489.488 1.114.732 1.874.732h57.358c.76 0 1.385-.244 1.873-.732s.733-1.113.733-1.874v-5.215c0-.76-.245-1.385-.733-1.874-.489-.487-1.114-.732-1.873-.732zM77.448 73.732c-.488.488-.733 1.113-.733 1.875v5.214c0 .761.244 1.385.733 1.874.489.488 1.114.732 1.874.732h57.358c.76 0 1.385-.244 1.873-.732.488-.489.733-1.113.733-1.874v-5.214c0-.76-.245-1.385-.733-1.875-.489-.488-1.114-.732-1.873-.732H79.322c-.76 0-1.385.244-1.874.732z"></path>
  </symbol>
  <symbol xmlns="http://www.w3.org/2000/svg" overflow="visible" viewBox="0 0 10.5 16" id="i_arrow_down">
    <path fill="#1f567d" d="M5.25 8.25l5.5-5.5 2.5 2.5-8 8-8-8 2.5-2.5z"></path>
  </symbol>
  <symbol xmlns="http://www.w3.org/2000/svg" overflow="visible" viewBox="0 0 10.5 16" id="i_arrow_left">
    <path fill="#1f567d" d="M10.5 2.5L5 8l5.5 5.5L8 16 0 8l8-8z"></path>
  </symbol>
  <symbol xmlns="http://www.w3.org/2000/svg" overflow="visible" viewBox="0 0 10.5 16" id="i_arrow_right">
    <path fill="#1f567d" d="M2.5 0L0 2.5 5.5 8 0 13.5 2.5 16l8-8z"></path>
  </symbol>
  <symbol xmlns="http://www.w3.org/2000/svg" overflow="visible" viewBox="0 0 10.5 16" id="i_arrow_up">
    <path fill="#1f567d" d="M10.75 13.25l2.5-2.5-8-8-8 8 2.5 2.5 5.5-5.5z"></path>
  </symbol>
  <symbol xmlns="http://www.w3.org/2000/svg" viewBox="0 0 24 24" id="more">
    <path d="M12 7a2 2 0 110-4 2 2 0 010 4zm2 5a2 2 0 10-4 0 2 2 0 004 0zm0 7a2 2 0 10-4 0 2 2 0 004 0z"></path>
  </symbol>
  <symbol xmlns="http://www.w3.org/2000/svg" viewBox="0 0 32 32" id="question">
    <path fill="none" d="M0 0h32v32H0z"></path>
    <path d="M16 31C7.729 31 1 24.271 1 16S7.729 1 16 1s15 6.729 15 15-6.729 15-15 15zm0-28C8.832 3 3 8.832 3 16s5.832 13 13 13 13-5.832 13-13S23.168 3 16 3z"></path>
    <path d="M16 18v-2c1.654 0 3-1.346 3-3s-1.346-3-3-3-3 1.346-3 3h-2c0-2.757 2.243-5 5-5s5 2.243 5 5-2.243 5-5 5z"></path>
    <path d="M15 16h2v4h-2zm0 6h2v2h-2z"></path>
  </symbol>
  <symbol xmlns="http://www.w3.org/2000/svg" viewBox="0 0 32 32" id="results">
    <title>a</title>
    <path d="M3.63 24.553a3.634 3.634 0 003.631-3.63 3.589 3.589 0 00-.342-1.514l2.5-2.174a3.613 3.613 0 004.086 0l2.521 2.181a3.593 3.593 0 00-.34 1.511 3.631 3.631 0 007.261 0 3.593 3.593 0 00-.73-2.161l4.851-5.389a3.584 3.584 0 001.3.253 3.631 3.631 0 10-3.631-3.631 3.593 3.593 0 00.731 2.161l-4.85 5.389a3.564 3.564 0 00-3.3.347l-2.545-2.2a3.586 3.586 0 00.309-1.455 3.63 3.63 0 10-6.948 1.461L5.618 17.89a3.629 3.629 0 10-1.988 6.663zM28.37 8.364a1.631 1.631 0 11-1.631 1.631 1.632 1.632 0 011.631-1.631zm-7.426 12.559a1.631 1.631 0 11-2.875-1.043l.013-.01c0-.006.006-.014.011-.019a1.623 1.623 0 012.851 1.07zm-9.488-8.319a1.631 1.631 0 11-1.63 1.631 1.632 1.632 0 011.63-1.631zM3.63 19.292A1.631 1.631 0 112 20.923a1.633 1.633 0 011.63-1.631z"></path>
  </symbol>
  <symbol xmlns="http://www.w3.org/2000/svg" viewBox="0 0 64 64" id="settings">
    <path d="M32 64c-2.148 0-4.3-.216-6.398-.642A2 2 0 0124 61.398v-4.653a25.874 25.874 0 01-3.836-1.595l-3.29 3.29a2 2 0 01-2.519.253 32.17 32.17 0 01-4.905-3.992l-.15-.15a32.296 32.296 0 01-3.993-4.906 2.002 2.002 0 01.253-2.519l3.29-3.29A25.786 25.786 0 017.255 40H2.601a2 2 0 01-1.96-1.603 32.27 32.27 0 01-.64-6.336v-.12c.004-2.138.22-4.27.64-6.34A2 2 0 012.601 24l4.654-.001a25.874 25.874 0 011.595-3.836l-3.29-3.29a2 2 0 01-.253-2.519 32.236 32.236 0 014.044-4.959 32.32 32.32 0 015.004-4.088 2.002 2.002 0 012.518.253l3.29 3.29A25.93 25.93 0 0124 7.255V2.602a2 2 0 011.602-1.96 32.35 32.35 0 0112.796 0A2 2 0 0140 2.602v4.654c1.316.426 2.599.959 3.837 1.595l3.29-3.29a2.002 2.002 0 012.519-.253 31.982 31.982 0 019.048 9.048 2.002 2.002 0 01-.253 2.519l-3.29 3.29a25.83 25.83 0 011.595 3.836L61.399 24a2 2 0 011.96 1.602 32.283 32.283 0 010 12.796A2 2 0 0161.399 40l-4.653-.001a25.753 25.753 0 01-1.595 3.837l3.29 3.29a2 2 0 01.253 2.519 31.97 31.97 0 01-9.048 9.048 2.002 2.002 0 01-2.519-.253l-3.29-3.29A25.967 25.967 0 0140 56.745v4.654a2 2 0 01-1.602 1.96A32.29 32.29 0 0132 64zm-4-4.285a28.36 28.36 0 008 0v-4.471a2 2 0 011.501-1.937 21.906 21.906 0 005.67-2.356 2 2 0 012.432.308l3.163 3.163a27.926 27.926 0 005.657-5.657l-3.163-3.164a2 2 0 01-.308-2.432 21.822 21.822 0 002.355-5.669 2 2 0 011.937-1.501h4.471a28.116 28.116 0 000-7.999h-4.471c-.913 0-1.71-.618-1.938-1.502a21.853 21.853 0 00-2.355-5.668 2 2 0 01.308-2.431l3.163-3.164a27.9 27.9 0 00-5.657-5.657l-3.163 3.163a1.999 1.999 0 01-2.432.308 21.857 21.857 0 00-5.67-2.356A2.002 2.002 0 0136 8.756V4.285a28.36 28.36 0 00-8 0v4.471a2 2 0 01-1.501 1.937 21.873 21.873 0 00-5.669 2.355 2 2 0 01-2.431-.308l-3.164-3.163a28.185 28.185 0 00-3.015 2.604 28.534 28.534 0 00-2.642 3.052l3.163 3.163c.646.645.772 1.646.308 2.431a21.842 21.842 0 00-2.356 5.669 2 2 0 01-1.937 1.501H4.284a28.23 28.23 0 00-.283 3.946v.112c.002 1.32.098 2.64.283 3.942h4.471a2 2 0 011.937 1.501 21.903 21.903 0 002.356 5.67 2 2 0 01-.308 2.431l-3.163 3.163a28.197 28.197 0 002.558 2.965l.141.141a27.946 27.946 0 002.959 2.551l3.163-3.163a2 2 0 012.431-.308 21.839 21.839 0 005.669 2.355A2.01 2.01 0 0128 55.244v4.471z"></path>
    <path d="M32 44c-6.617 0-12-5.383-12-12s5.383-12 12-12 12 5.383 12 12-5.383 12-12 12zm0-20c-4.411 0-8 3.589-8 8s3.589 8 8 8 8-3.589 8-8-3.589-8-8-8z"></path>
  </symbol>
</svg>